G04 #@! TF.GenerationSoftware,KiCad,Pcbnew,(6.0.1)*
G04 #@! TF.CreationDate,2022-04-16T00:13:44-07:00*
G04 #@! TF.ProjectId,AnimatronicEyes,416e696d-6174-4726-9f6e-696345796573,rev?*
G04 #@! TF.SameCoordinates,Original*
G04 #@! TF.FileFunction,Soldermask,Bot*
G04 #@! TF.FilePolarity,Negative*
%FSLAX46Y46*%
G04 Gerber Fmt 4.6, Leading zero omitted, Abs format (unit mm)*
G04 Created by KiCad (PCBNEW (6.0.1)) date 2022-04-16 00:13:44*
%MOMM*%
%LPD*%
G01*
G04 APERTURE LIST*
%ADD10C,2.100000*%
%ADD11R,2.030000X1.730000*%
%ADD12O,2.030000X1.730000*%
%ADD13C,1.500000*%
%ADD14C,1.800000*%
%ADD15C,1.600000*%
%ADD16R,2.400000X2.400000*%
%ADD17C,2.400000*%
%ADD18O,1.700000X1.700000*%
%ADD19R,5.516000X5.516000*%
%ADD20C,5.516000*%
%ADD21R,1.700000X1.700000*%
%ADD22R,2.000000X2.000000*%
%ADD23C,2.000000*%
G04 APERTURE END LIST*
D10*
X79756000Y-46863000D03*
D11*
X88621000Y-77254000D03*
D12*
X88621000Y-74714000D03*
X88621000Y-72174000D03*
D13*
X171400000Y-86800000D03*
X174800000Y-86800000D03*
X129139000Y-85254000D03*
X125739000Y-85254000D03*
D11*
X88621000Y-86904000D03*
D12*
X88621000Y-84364000D03*
X88621000Y-81824000D03*
D14*
X169921000Y-75754000D03*
D15*
X174421000Y-75754000D03*
D11*
X80721000Y-77254000D03*
D12*
X80721000Y-74714000D03*
X80721000Y-72174000D03*
D16*
X129400000Y-49200000D03*
D17*
X129400000Y-56700000D03*
D18*
X96197000Y-75894000D03*
X96197000Y-78434000D03*
X96197000Y-80974000D03*
X96197000Y-83514000D03*
X96197000Y-86054000D03*
X96197000Y-88594000D03*
X96197000Y-91134000D03*
X96197000Y-93674000D03*
X119057000Y-75894000D03*
X119057000Y-78434000D03*
X119057000Y-80974000D03*
X119057000Y-83514000D03*
X119057000Y-86054000D03*
X119057000Y-88594000D03*
X119057000Y-91134000D03*
X119057000Y-93674000D03*
D19*
X164221000Y-88854000D03*
D20*
X157021000Y-88854000D03*
D10*
X175768000Y-46609000D03*
D11*
X88621000Y-67604000D03*
D12*
X88621000Y-65064000D03*
X88621000Y-62524000D03*
D11*
X80721000Y-86904000D03*
D12*
X80721000Y-84364000D03*
X80721000Y-81824000D03*
D10*
X175641000Y-95377000D03*
D21*
X132821000Y-92404000D03*
D18*
X132821000Y-89864000D03*
X132821000Y-87324000D03*
X132821000Y-84784000D03*
X132821000Y-82244000D03*
X132821000Y-79704000D03*
D11*
X80721000Y-67604000D03*
D12*
X80721000Y-65064000D03*
X80721000Y-62524000D03*
D10*
X79756000Y-94869000D03*
D22*
X156255323Y-58293000D03*
D23*
X161255323Y-58293000D03*
M02*
