G04 #@! TF.GenerationSoftware,KiCad,Pcbnew,(6.0.1)*
G04 #@! TF.CreationDate,2022-04-16T00:13:44-07:00*
G04 #@! TF.ProjectId,AnimatronicEyes,416e696d-6174-4726-9f6e-696345796573,rev?*
G04 #@! TF.SameCoordinates,Original*
G04 #@! TF.FileFunction,Legend,Top*
G04 #@! TF.FilePolarity,Positive*
%FSLAX46Y46*%
G04 Gerber Fmt 4.6, Leading zero omitted, Abs format (unit mm)*
G04 Created by KiCad (PCBNEW (6.0.1)) date 2022-04-16 00:13:44*
%MOMM*%
%LPD*%
G01*
G04 APERTURE LIST*
G04 Aperture macros list*
%AMRoundRect*
0 Rectangle with rounded corners*
0 $1 Rounding radius*
0 $2 $3 $4 $5 $6 $7 $8 $9 X,Y pos of 4 corners*
0 Add a 4 corners polygon primitive as box body*
4,1,4,$2,$3,$4,$5,$6,$7,$8,$9,$2,$3,0*
0 Add four circle primitives for the rounded corners*
1,1,$1+$1,$2,$3*
1,1,$1+$1,$4,$5*
1,1,$1+$1,$6,$7*
1,1,$1+$1,$8,$9*
0 Add four rect primitives between the rounded corners*
20,1,$1+$1,$2,$3,$4,$5,0*
20,1,$1+$1,$4,$5,$6,$7,0*
20,1,$1+$1,$6,$7,$8,$9,0*
20,1,$1+$1,$8,$9,$2,$3,0*%
G04 Aperture macros list end*
%ADD10C,0.125000*%
%ADD11C,0.300000*%
%ADD12C,0.150000*%
%ADD13C,0.120000*%
%ADD14C,0.127000*%
%ADD15C,2.100000*%
%ADD16R,1.800000X2.500000*%
%ADD17R,2.030000X1.730000*%
%ADD18O,2.030000X1.730000*%
%ADD19C,1.500000*%
%ADD20RoundRect,0.150000X-0.358000X-1.375000X0.358000X-1.375000X0.358000X1.375000X-0.358000X1.375000X0*%
%ADD21RoundRect,0.500000X-4.745000X-3.690000X4.745000X-3.690000X4.745000X3.690000X-4.745000X3.690000X0*%
%ADD22RoundRect,0.200000X0.200000X0.275000X-0.200000X0.275000X-0.200000X-0.275000X0.200000X-0.275000X0*%
%ADD23R,2.500000X1.800000*%
%ADD24RoundRect,0.150000X-0.150000X0.587500X-0.150000X-0.587500X0.150000X-0.587500X0.150000X0.587500X0*%
%ADD25C,1.800000*%
%ADD26C,1.600000*%
%ADD27RoundRect,0.100000X0.900000X0.900000X-0.900000X0.900000X-0.900000X-0.900000X0.900000X-0.900000X0*%
%ADD28RoundRect,0.225000X0.225000X0.250000X-0.225000X0.250000X-0.225000X-0.250000X0.225000X-0.250000X0*%
%ADD29RoundRect,0.200000X-0.200000X-0.275000X0.200000X-0.275000X0.200000X0.275000X-0.200000X0.275000X0*%
%ADD30RoundRect,0.200000X0.275000X-0.200000X0.275000X0.200000X-0.275000X0.200000X-0.275000X-0.200000X0*%
%ADD31R,2.400000X2.400000*%
%ADD32C,2.400000*%
%ADD33O,1.700000X1.700000*%
%ADD34R,5.516000X5.516000*%
%ADD35C,5.516000*%
%ADD36RoundRect,0.243750X0.243750X0.456250X-0.243750X0.456250X-0.243750X-0.456250X0.243750X-0.456250X0*%
%ADD37RoundRect,0.200000X-0.275000X0.200000X-0.275000X-0.200000X0.275000X-0.200000X0.275000X0.200000X0*%
%ADD38RoundRect,0.218750X-0.218750X-0.256250X0.218750X-0.256250X0.218750X0.256250X-0.218750X0.256250X0*%
%ADD39R,1.700000X1.700000*%
%ADD40R,2.900000X5.400000*%
%ADD41R,2.000000X2.000000*%
%ADD42C,2.000000*%
G04 APERTURE END LIST*
D10*
X92676285Y-72653857D02*
X93283428Y-72653857D01*
X93354857Y-72689571D01*
X93390571Y-72725285D01*
X93426285Y-72796714D01*
X93426285Y-72903857D01*
X93390571Y-72975285D01*
X93140571Y-72653857D02*
X93176285Y-72725285D01*
X93176285Y-72868142D01*
X93140571Y-72939571D01*
X93104857Y-72975285D01*
X93033428Y-73011000D01*
X92819142Y-73011000D01*
X92747714Y-72975285D01*
X92712000Y-72939571D01*
X92676285Y-72868142D01*
X92676285Y-72725285D01*
X92712000Y-72653857D01*
X92676285Y-72296714D02*
X93176285Y-72296714D01*
X92747714Y-72296714D02*
X92712000Y-72261000D01*
X92676285Y-72189571D01*
X92676285Y-72082428D01*
X92712000Y-72011000D01*
X92783428Y-71975285D01*
X93176285Y-71975285D01*
X93176285Y-71296714D02*
X92426285Y-71296714D01*
X93140571Y-71296714D02*
X93176285Y-71368142D01*
X93176285Y-71511000D01*
X93140571Y-71582428D01*
X93104857Y-71618142D01*
X93033428Y-71653857D01*
X92819142Y-71653857D01*
X92747714Y-71618142D01*
X92712000Y-71582428D01*
X92676285Y-71511000D01*
X92676285Y-71368142D01*
X92712000Y-71296714D01*
X77055285Y-63001857D02*
X77662428Y-63001857D01*
X77733857Y-63037571D01*
X77769571Y-63073285D01*
X77805285Y-63144714D01*
X77805285Y-63251857D01*
X77769571Y-63323285D01*
X77519571Y-63001857D02*
X77555285Y-63073285D01*
X77555285Y-63216142D01*
X77519571Y-63287571D01*
X77483857Y-63323285D01*
X77412428Y-63359000D01*
X77198142Y-63359000D01*
X77126714Y-63323285D01*
X77091000Y-63287571D01*
X77055285Y-63216142D01*
X77055285Y-63073285D01*
X77091000Y-63001857D01*
X77055285Y-62644714D02*
X77555285Y-62644714D01*
X77126714Y-62644714D02*
X77091000Y-62609000D01*
X77055285Y-62537571D01*
X77055285Y-62430428D01*
X77091000Y-62359000D01*
X77162428Y-62323285D01*
X77555285Y-62323285D01*
X77555285Y-61644714D02*
X76805285Y-61644714D01*
X77519571Y-61644714D02*
X77555285Y-61716142D01*
X77555285Y-61859000D01*
X77519571Y-61930428D01*
X77483857Y-61966142D01*
X77412428Y-62001857D01*
X77198142Y-62001857D01*
X77126714Y-61966142D01*
X77091000Y-61930428D01*
X77055285Y-61859000D01*
X77055285Y-61716142D01*
X77091000Y-61644714D01*
X92676285Y-82178857D02*
X93283428Y-82178857D01*
X93354857Y-82214571D01*
X93390571Y-82250285D01*
X93426285Y-82321714D01*
X93426285Y-82428857D01*
X93390571Y-82500285D01*
X93140571Y-82178857D02*
X93176285Y-82250285D01*
X93176285Y-82393142D01*
X93140571Y-82464571D01*
X93104857Y-82500285D01*
X93033428Y-82536000D01*
X92819142Y-82536000D01*
X92747714Y-82500285D01*
X92712000Y-82464571D01*
X92676285Y-82393142D01*
X92676285Y-82250285D01*
X92712000Y-82178857D01*
X92676285Y-81821714D02*
X93176285Y-81821714D01*
X92747714Y-81821714D02*
X92712000Y-81786000D01*
X92676285Y-81714571D01*
X92676285Y-81607428D01*
X92712000Y-81536000D01*
X92783428Y-81500285D01*
X93176285Y-81500285D01*
X93176285Y-80821714D02*
X92426285Y-80821714D01*
X93140571Y-80821714D02*
X93176285Y-80893142D01*
X93176285Y-81036000D01*
X93140571Y-81107428D01*
X93104857Y-81143142D01*
X93033428Y-81178857D01*
X92819142Y-81178857D01*
X92747714Y-81143142D01*
X92712000Y-81107428D01*
X92676285Y-81036000D01*
X92676285Y-80893142D01*
X92712000Y-80821714D01*
X120489285Y-76336857D02*
X121096428Y-76336857D01*
X121167857Y-76372571D01*
X121203571Y-76408285D01*
X121239285Y-76479714D01*
X121239285Y-76586857D01*
X121203571Y-76658285D01*
X120953571Y-76336857D02*
X120989285Y-76408285D01*
X120989285Y-76551142D01*
X120953571Y-76622571D01*
X120917857Y-76658285D01*
X120846428Y-76694000D01*
X120632142Y-76694000D01*
X120560714Y-76658285D01*
X120525000Y-76622571D01*
X120489285Y-76551142D01*
X120489285Y-76408285D01*
X120525000Y-76336857D01*
X120489285Y-75979714D02*
X120989285Y-75979714D01*
X120560714Y-75979714D02*
X120525000Y-75944000D01*
X120489285Y-75872571D01*
X120489285Y-75765428D01*
X120525000Y-75694000D01*
X120596428Y-75658285D01*
X120989285Y-75658285D01*
X120989285Y-74979714D02*
X120239285Y-74979714D01*
X120953571Y-74979714D02*
X120989285Y-75051142D01*
X120989285Y-75194000D01*
X120953571Y-75265428D01*
X120917857Y-75301142D01*
X120846428Y-75336857D01*
X120632142Y-75336857D01*
X120560714Y-75301142D01*
X120525000Y-75265428D01*
X120489285Y-75194000D01*
X120489285Y-75051142D01*
X120525000Y-74979714D01*
X93950285Y-93741857D02*
X93950285Y-94099000D01*
X94307428Y-94134714D01*
X94271714Y-94099000D01*
X94236000Y-94027571D01*
X94236000Y-93849000D01*
X94271714Y-93777571D01*
X94307428Y-93741857D01*
X94378857Y-93706142D01*
X94557428Y-93706142D01*
X94628857Y-93741857D01*
X94664571Y-93777571D01*
X94700285Y-93849000D01*
X94700285Y-94027571D01*
X94664571Y-94099000D01*
X94628857Y-94134714D01*
X93950285Y-93491857D02*
X94700285Y-93241857D01*
X93950285Y-92991857D01*
X77055285Y-72653857D02*
X77662428Y-72653857D01*
X77733857Y-72689571D01*
X77769571Y-72725285D01*
X77805285Y-72796714D01*
X77805285Y-72903857D01*
X77769571Y-72975285D01*
X77519571Y-72653857D02*
X77555285Y-72725285D01*
X77555285Y-72868142D01*
X77519571Y-72939571D01*
X77483857Y-72975285D01*
X77412428Y-73011000D01*
X77198142Y-73011000D01*
X77126714Y-72975285D01*
X77091000Y-72939571D01*
X77055285Y-72868142D01*
X77055285Y-72725285D01*
X77091000Y-72653857D01*
X77055285Y-72296714D02*
X77555285Y-72296714D01*
X77126714Y-72296714D02*
X77091000Y-72261000D01*
X77055285Y-72189571D01*
X77055285Y-72082428D01*
X77091000Y-72011000D01*
X77162428Y-71975285D01*
X77555285Y-71975285D01*
X77555285Y-71296714D02*
X76805285Y-71296714D01*
X77519571Y-71296714D02*
X77555285Y-71368142D01*
X77555285Y-71511000D01*
X77519571Y-71582428D01*
X77483857Y-71618142D01*
X77412428Y-71653857D01*
X77198142Y-71653857D01*
X77126714Y-71618142D01*
X77091000Y-71582428D01*
X77055285Y-71511000D01*
X77055285Y-71368142D01*
X77091000Y-71296714D01*
X77055285Y-82178857D02*
X77662428Y-82178857D01*
X77733857Y-82214571D01*
X77769571Y-82250285D01*
X77805285Y-82321714D01*
X77805285Y-82428857D01*
X77769571Y-82500285D01*
X77519571Y-82178857D02*
X77555285Y-82250285D01*
X77555285Y-82393142D01*
X77519571Y-82464571D01*
X77483857Y-82500285D01*
X77412428Y-82536000D01*
X77198142Y-82536000D01*
X77126714Y-82500285D01*
X77091000Y-82464571D01*
X77055285Y-82393142D01*
X77055285Y-82250285D01*
X77091000Y-82178857D01*
X77055285Y-81821714D02*
X77555285Y-81821714D01*
X77126714Y-81821714D02*
X77091000Y-81786000D01*
X77055285Y-81714571D01*
X77055285Y-81607428D01*
X77091000Y-81536000D01*
X77162428Y-81500285D01*
X77555285Y-81500285D01*
X77555285Y-80821714D02*
X76805285Y-80821714D01*
X77519571Y-80821714D02*
X77555285Y-80893142D01*
X77555285Y-81036000D01*
X77519571Y-81107428D01*
X77483857Y-81143142D01*
X77412428Y-81178857D01*
X77198142Y-81178857D01*
X77126714Y-81143142D01*
X77091000Y-81107428D01*
X77055285Y-81036000D01*
X77055285Y-80893142D01*
X77091000Y-80821714D01*
D11*
X87448571Y-42498357D02*
X87662857Y-42569785D01*
X87734285Y-42641214D01*
X87805714Y-42784071D01*
X87805714Y-42998357D01*
X87734285Y-43141214D01*
X87662857Y-43212642D01*
X87520000Y-43284071D01*
X86948571Y-43284071D01*
X86948571Y-41784071D01*
X87448571Y-41784071D01*
X87591428Y-41855500D01*
X87662857Y-41926928D01*
X87734285Y-42069785D01*
X87734285Y-42212642D01*
X87662857Y-42355500D01*
X87591428Y-42426928D01*
X87448571Y-42498357D01*
X86948571Y-42498357D01*
X88662857Y-43284071D02*
X88520000Y-43212642D01*
X88448571Y-43141214D01*
X88377142Y-42998357D01*
X88377142Y-42569785D01*
X88448571Y-42426928D01*
X88520000Y-42355500D01*
X88662857Y-42284071D01*
X88877142Y-42284071D01*
X89020000Y-42355500D01*
X89091428Y-42426928D01*
X89162857Y-42569785D01*
X89162857Y-42998357D01*
X89091428Y-43141214D01*
X89020000Y-43212642D01*
X88877142Y-43284071D01*
X88662857Y-43284071D01*
X90448571Y-43284071D02*
X90448571Y-42498357D01*
X90377142Y-42355500D01*
X90234285Y-42284071D01*
X89948571Y-42284071D01*
X89805714Y-42355500D01*
X90448571Y-43212642D02*
X90305714Y-43284071D01*
X89948571Y-43284071D01*
X89805714Y-43212642D01*
X89734285Y-43069785D01*
X89734285Y-42926928D01*
X89805714Y-42784071D01*
X89948571Y-42712642D01*
X90305714Y-42712642D01*
X90448571Y-42641214D01*
X91162857Y-43284071D02*
X91162857Y-42284071D01*
X91162857Y-42569785D02*
X91234285Y-42426928D01*
X91305714Y-42355500D01*
X91448571Y-42284071D01*
X91591428Y-42284071D01*
X92734285Y-43284071D02*
X92734285Y-41784071D01*
X92734285Y-43212642D02*
X92591428Y-43284071D01*
X92305714Y-43284071D01*
X92162857Y-43212642D01*
X92091428Y-43141214D01*
X92020000Y-42998357D01*
X92020000Y-42569785D01*
X92091428Y-42426928D01*
X92162857Y-42355500D01*
X92305714Y-42284071D01*
X92591428Y-42284071D01*
X92734285Y-42355500D01*
X94591428Y-43284071D02*
X94591428Y-41784071D01*
X94948571Y-41784071D01*
X95162857Y-41855500D01*
X95305714Y-41998357D01*
X95377142Y-42141214D01*
X95448571Y-42426928D01*
X95448571Y-42641214D01*
X95377142Y-42926928D01*
X95305714Y-43069785D01*
X95162857Y-43212642D01*
X94948571Y-43284071D01*
X94591428Y-43284071D01*
X96662857Y-43212642D02*
X96520000Y-43284071D01*
X96234285Y-43284071D01*
X96091428Y-43212642D01*
X96020000Y-43069785D01*
X96020000Y-42498357D01*
X96091428Y-42355500D01*
X96234285Y-42284071D01*
X96520000Y-42284071D01*
X96662857Y-42355500D01*
X96734285Y-42498357D01*
X96734285Y-42641214D01*
X96020000Y-42784071D01*
X97305714Y-43212642D02*
X97448571Y-43284071D01*
X97734285Y-43284071D01*
X97877142Y-43212642D01*
X97948571Y-43069785D01*
X97948571Y-42998357D01*
X97877142Y-42855500D01*
X97734285Y-42784071D01*
X97520000Y-42784071D01*
X97377142Y-42712642D01*
X97305714Y-42569785D01*
X97305714Y-42498357D01*
X97377142Y-42355500D01*
X97520000Y-42284071D01*
X97734285Y-42284071D01*
X97877142Y-42355500D01*
X98591428Y-43284071D02*
X98591428Y-42284071D01*
X98591428Y-41784071D02*
X98520000Y-41855500D01*
X98591428Y-41926928D01*
X98662857Y-41855500D01*
X98591428Y-41784071D01*
X98591428Y-41926928D01*
X99948571Y-42284071D02*
X99948571Y-43498357D01*
X99877142Y-43641214D01*
X99805714Y-43712642D01*
X99662857Y-43784071D01*
X99448571Y-43784071D01*
X99305714Y-43712642D01*
X99948571Y-43212642D02*
X99805714Y-43284071D01*
X99520000Y-43284071D01*
X99377142Y-43212642D01*
X99305714Y-43141214D01*
X99234285Y-42998357D01*
X99234285Y-42569785D01*
X99305714Y-42426928D01*
X99377142Y-42355500D01*
X99520000Y-42284071D01*
X99805714Y-42284071D01*
X99948571Y-42355500D01*
X100662857Y-42284071D02*
X100662857Y-43284071D01*
X100662857Y-42426928D02*
X100734285Y-42355500D01*
X100877142Y-42284071D01*
X101091428Y-42284071D01*
X101234285Y-42355500D01*
X101305714Y-42498357D01*
X101305714Y-43284071D01*
X103162857Y-43284071D02*
X103162857Y-41784071D01*
X103162857Y-42355500D02*
X103305714Y-42284071D01*
X103591428Y-42284071D01*
X103734285Y-42355500D01*
X103805714Y-42426928D01*
X103877142Y-42569785D01*
X103877142Y-42998357D01*
X103805714Y-43141214D01*
X103734285Y-43212642D01*
X103591428Y-43284071D01*
X103305714Y-43284071D01*
X103162857Y-43212642D01*
X104377142Y-42284071D02*
X104734285Y-43284071D01*
X105091428Y-42284071D02*
X104734285Y-43284071D01*
X104591428Y-43641214D01*
X104520000Y-43712642D01*
X104377142Y-43784071D01*
X88698571Y-45270500D02*
X89412857Y-45270500D01*
X88555714Y-45699071D02*
X89055714Y-44199071D01*
X89555714Y-45699071D01*
X90055714Y-45699071D02*
X90055714Y-44199071D01*
X90055714Y-44770500D02*
X90198571Y-44699071D01*
X90484285Y-44699071D01*
X90627142Y-44770500D01*
X90698571Y-44841928D01*
X90770000Y-44984785D01*
X90770000Y-45413357D01*
X90698571Y-45556214D01*
X90627142Y-45627642D01*
X90484285Y-45699071D01*
X90198571Y-45699071D01*
X90055714Y-45627642D01*
X91412857Y-45699071D02*
X91412857Y-44199071D01*
X92055714Y-45699071D02*
X92055714Y-44913357D01*
X91984285Y-44770500D01*
X91841428Y-44699071D01*
X91627142Y-44699071D01*
X91484285Y-44770500D01*
X91412857Y-44841928D01*
X92770000Y-45699071D02*
X92770000Y-44699071D01*
X92770000Y-44199071D02*
X92698571Y-44270500D01*
X92770000Y-44341928D01*
X92841428Y-44270500D01*
X92770000Y-44199071D01*
X92770000Y-44341928D01*
X94555714Y-45270500D02*
X95270000Y-45270500D01*
X94412857Y-45699071D02*
X94912857Y-44199071D01*
X95412857Y-45699071D01*
X96127142Y-45699071D02*
X95984285Y-45627642D01*
X95912857Y-45484785D01*
X95912857Y-44199071D01*
X97341428Y-45699071D02*
X97341428Y-44199071D01*
X97341428Y-45627642D02*
X97198571Y-45699071D01*
X96912857Y-45699071D01*
X96770000Y-45627642D01*
X96698571Y-45556214D01*
X96627142Y-45413357D01*
X96627142Y-44984785D01*
X96698571Y-44841928D01*
X96770000Y-44770500D01*
X96912857Y-44699071D01*
X97198571Y-44699071D01*
X97341428Y-44770500D01*
X98627142Y-45627642D02*
X98484285Y-45699071D01*
X98198571Y-45699071D01*
X98055714Y-45627642D01*
X97984285Y-45484785D01*
X97984285Y-44913357D01*
X98055714Y-44770500D01*
X98198571Y-44699071D01*
X98484285Y-44699071D01*
X98627142Y-44770500D01*
X98698571Y-44913357D01*
X98698571Y-45056214D01*
X97984285Y-45199071D01*
X99341428Y-45699071D02*
X99341428Y-44699071D01*
X99341428Y-44984785D02*
X99412857Y-44841928D01*
X99484285Y-44770500D01*
X99627142Y-44699071D01*
X99770000Y-44699071D01*
X100270000Y-45699071D02*
X100270000Y-44699071D01*
X100270000Y-44841928D02*
X100341428Y-44770500D01*
X100484285Y-44699071D01*
X100698571Y-44699071D01*
X100841428Y-44770500D01*
X100912857Y-44913357D01*
X100912857Y-45699071D01*
X100912857Y-44913357D02*
X100984285Y-44770500D01*
X101127142Y-44699071D01*
X101341428Y-44699071D01*
X101484285Y-44770500D01*
X101555714Y-44913357D01*
X101555714Y-45699071D01*
X102912857Y-45699071D02*
X102912857Y-44913357D01*
X102841428Y-44770500D01*
X102698571Y-44699071D01*
X102412857Y-44699071D01*
X102270000Y-44770500D01*
X102912857Y-45627642D02*
X102770000Y-45699071D01*
X102412857Y-45699071D01*
X102270000Y-45627642D01*
X102198571Y-45484785D01*
X102198571Y-45341928D01*
X102270000Y-45199071D01*
X102412857Y-45127642D01*
X102770000Y-45127642D01*
X102912857Y-45056214D01*
X103627142Y-44699071D02*
X103627142Y-45699071D01*
X103627142Y-44841928D02*
X103698571Y-44770500D01*
X103841428Y-44699071D01*
X104055714Y-44699071D01*
X104198571Y-44770500D01*
X104270000Y-44913357D01*
X104270000Y-45699071D01*
X89448571Y-47685500D02*
X90162857Y-47685500D01*
X89305714Y-48114071D02*
X89805714Y-46614071D01*
X90305714Y-48114071D01*
X90805714Y-47114071D02*
X90805714Y-48114071D01*
X90805714Y-47256928D02*
X90877142Y-47185500D01*
X91020000Y-47114071D01*
X91234285Y-47114071D01*
X91377142Y-47185500D01*
X91448571Y-47328357D01*
X91448571Y-48114071D01*
X92805714Y-48114071D02*
X92805714Y-46614071D01*
X92805714Y-48042642D02*
X92662857Y-48114071D01*
X92377142Y-48114071D01*
X92234285Y-48042642D01*
X92162857Y-47971214D01*
X92091428Y-47828357D01*
X92091428Y-47399785D01*
X92162857Y-47256928D01*
X92234285Y-47185500D01*
X92377142Y-47114071D01*
X92662857Y-47114071D01*
X92805714Y-47185500D01*
X93520000Y-48114071D02*
X93520000Y-47114071D01*
X93520000Y-47399785D02*
X93591428Y-47256928D01*
X93662857Y-47185500D01*
X93805714Y-47114071D01*
X93948571Y-47114071D01*
X95020000Y-48042642D02*
X94877142Y-48114071D01*
X94591428Y-48114071D01*
X94448571Y-48042642D01*
X94377142Y-47899785D01*
X94377142Y-47328357D01*
X94448571Y-47185500D01*
X94591428Y-47114071D01*
X94877142Y-47114071D01*
X95020000Y-47185500D01*
X95091428Y-47328357D01*
X95091428Y-47471214D01*
X94377142Y-47614071D01*
X95591428Y-47114071D02*
X95877142Y-48114071D01*
X96162857Y-47399785D01*
X96448571Y-48114071D01*
X96734285Y-47114071D01*
X98305714Y-46614071D02*
X98662857Y-48114071D01*
X98948571Y-47042642D01*
X99234285Y-48114071D01*
X99591428Y-46614071D01*
X100805714Y-48114071D02*
X100805714Y-47328357D01*
X100734285Y-47185500D01*
X100591428Y-47114071D01*
X100305714Y-47114071D01*
X100162857Y-47185500D01*
X100805714Y-48042642D02*
X100662857Y-48114071D01*
X100305714Y-48114071D01*
X100162857Y-48042642D01*
X100091428Y-47899785D01*
X100091428Y-47756928D01*
X100162857Y-47614071D01*
X100305714Y-47542642D01*
X100662857Y-47542642D01*
X100805714Y-47471214D01*
X101520000Y-47114071D02*
X101520000Y-48114071D01*
X101520000Y-47256928D02*
X101591428Y-47185500D01*
X101734285Y-47114071D01*
X101948571Y-47114071D01*
X102091428Y-47185500D01*
X102162857Y-47328357D01*
X102162857Y-48114071D01*
X103520000Y-47114071D02*
X103520000Y-48328357D01*
X103448571Y-48471214D01*
X103377142Y-48542642D01*
X103234285Y-48614071D01*
X103020000Y-48614071D01*
X102877142Y-48542642D01*
X103520000Y-48042642D02*
X103377142Y-48114071D01*
X103091428Y-48114071D01*
X102948571Y-48042642D01*
X102877142Y-47971214D01*
X102805714Y-47828357D01*
X102805714Y-47399785D01*
X102877142Y-47256928D01*
X102948571Y-47185500D01*
X103091428Y-47114071D01*
X103377142Y-47114071D01*
X103520000Y-47185500D01*
X92484285Y-50386214D02*
X92412857Y-50457642D01*
X92198571Y-50529071D01*
X92055714Y-50529071D01*
X91841428Y-50457642D01*
X91698571Y-50314785D01*
X91627142Y-50171928D01*
X91555714Y-49886214D01*
X91555714Y-49671928D01*
X91627142Y-49386214D01*
X91698571Y-49243357D01*
X91841428Y-49100500D01*
X92055714Y-49029071D01*
X92198571Y-49029071D01*
X92412857Y-49100500D01*
X92484285Y-49171928D01*
X93127142Y-50529071D02*
X93127142Y-49529071D01*
X93127142Y-49029071D02*
X93055714Y-49100500D01*
X93127142Y-49171928D01*
X93198571Y-49100500D01*
X93127142Y-49029071D01*
X93127142Y-49171928D01*
X93841428Y-49529071D02*
X93841428Y-50529071D01*
X93841428Y-49671928D02*
X93912857Y-49600500D01*
X94055714Y-49529071D01*
X94270000Y-49529071D01*
X94412857Y-49600500D01*
X94484285Y-49743357D01*
X94484285Y-50529071D01*
X95841428Y-50529071D02*
X95841428Y-49029071D01*
X95841428Y-50457642D02*
X95698571Y-50529071D01*
X95412857Y-50529071D01*
X95270000Y-50457642D01*
X95198571Y-50386214D01*
X95127142Y-50243357D01*
X95127142Y-49814785D01*
X95198571Y-49671928D01*
X95270000Y-49600500D01*
X95412857Y-49529071D01*
X95698571Y-49529071D01*
X95841428Y-49600500D01*
X96412857Y-49529071D02*
X96770000Y-50529071D01*
X97127142Y-49529071D02*
X96770000Y-50529071D01*
X96627142Y-50886214D01*
X96555714Y-50957642D01*
X96412857Y-51029071D01*
X99555714Y-50529071D02*
X98841428Y-50529071D01*
X98841428Y-49029071D01*
X100055714Y-50529071D02*
X100055714Y-49529071D01*
X100055714Y-49029071D02*
X99984285Y-49100500D01*
X100055714Y-49171928D01*
X100127142Y-49100500D01*
X100055714Y-49029071D01*
X100055714Y-49171928D01*
X100770000Y-49529071D02*
X100770000Y-50529071D01*
X100770000Y-49671928D02*
X100841428Y-49600500D01*
X100984285Y-49529071D01*
X101198571Y-49529071D01*
X101341428Y-49600500D01*
X101412857Y-49743357D01*
X101412857Y-50529071D01*
D10*
X92676285Y-62874857D02*
X93283428Y-62874857D01*
X93354857Y-62910571D01*
X93390571Y-62946285D01*
X93426285Y-63017714D01*
X93426285Y-63124857D01*
X93390571Y-63196285D01*
X93140571Y-62874857D02*
X93176285Y-62946285D01*
X93176285Y-63089142D01*
X93140571Y-63160571D01*
X93104857Y-63196285D01*
X93033428Y-63232000D01*
X92819142Y-63232000D01*
X92747714Y-63196285D01*
X92712000Y-63160571D01*
X92676285Y-63089142D01*
X92676285Y-62946285D01*
X92712000Y-62874857D01*
X92676285Y-62517714D02*
X93176285Y-62517714D01*
X92747714Y-62517714D02*
X92712000Y-62482000D01*
X92676285Y-62410571D01*
X92676285Y-62303428D01*
X92712000Y-62232000D01*
X92783428Y-62196285D01*
X93176285Y-62196285D01*
X93176285Y-61517714D02*
X92426285Y-61517714D01*
X93140571Y-61517714D02*
X93176285Y-61589142D01*
X93176285Y-61732000D01*
X93140571Y-61803428D01*
X93104857Y-61839142D01*
X93033428Y-61874857D01*
X92819142Y-61874857D01*
X92747714Y-61839142D01*
X92712000Y-61803428D01*
X92676285Y-61732000D01*
X92676285Y-61589142D01*
X92712000Y-61517714D01*
D12*
X78994095Y-44115380D02*
X78994095Y-43115380D01*
X78994095Y-43591571D02*
X79565523Y-43591571D01*
X79565523Y-44115380D02*
X79565523Y-43115380D01*
X79994095Y-43210619D02*
X80041714Y-43163000D01*
X80136952Y-43115380D01*
X80375047Y-43115380D01*
X80470285Y-43163000D01*
X80517904Y-43210619D01*
X80565523Y-43305857D01*
X80565523Y-43401095D01*
X80517904Y-43543952D01*
X79946476Y-44115380D01*
X80565523Y-44115380D01*
X136152380Y-73800595D02*
X135152380Y-73800595D01*
X135152380Y-73562500D01*
X135200000Y-73419642D01*
X135295238Y-73324404D01*
X135390476Y-73276785D01*
X135580952Y-73229166D01*
X135723809Y-73229166D01*
X135914285Y-73276785D01*
X136009523Y-73324404D01*
X136104761Y-73419642D01*
X136152380Y-73562500D01*
X136152380Y-73800595D01*
X135247619Y-72848214D02*
X135200000Y-72800595D01*
X135152380Y-72705357D01*
X135152380Y-72467261D01*
X135200000Y-72372023D01*
X135247619Y-72324404D01*
X135342857Y-72276785D01*
X135438095Y-72276785D01*
X135580952Y-72324404D01*
X136152380Y-72895833D01*
X136152380Y-72276785D01*
X84673380Y-75087333D02*
X85387666Y-75087333D01*
X85530523Y-75134952D01*
X85625761Y-75230190D01*
X85673380Y-75373047D01*
X85673380Y-75468285D01*
X85673380Y-74087333D02*
X85673380Y-74658761D01*
X85673380Y-74373047D02*
X84673380Y-74373047D01*
X84816238Y-74468285D01*
X84911476Y-74563523D01*
X84959095Y-74658761D01*
X172933333Y-84352380D02*
X172600000Y-83876190D01*
X172361904Y-84352380D02*
X172361904Y-83352380D01*
X172742857Y-83352380D01*
X172838095Y-83400000D01*
X172885714Y-83447619D01*
X172933333Y-83542857D01*
X172933333Y-83685714D01*
X172885714Y-83780952D01*
X172838095Y-83828571D01*
X172742857Y-83876190D01*
X172361904Y-83876190D01*
X173266666Y-83352380D02*
X173885714Y-83352380D01*
X173552380Y-83733333D01*
X173695238Y-83733333D01*
X173790476Y-83780952D01*
X173838095Y-83828571D01*
X173885714Y-83923809D01*
X173885714Y-84161904D01*
X173838095Y-84257142D01*
X173790476Y-84304761D01*
X173695238Y-84352380D01*
X173409523Y-84352380D01*
X173314285Y-84304761D01*
X173266666Y-84257142D01*
X145473095Y-55652380D02*
X145473095Y-56461904D01*
X145520714Y-56557142D01*
X145568333Y-56604761D01*
X145663571Y-56652380D01*
X145854047Y-56652380D01*
X145949285Y-56604761D01*
X145996904Y-56557142D01*
X146044523Y-56461904D01*
X146044523Y-55652380D01*
X146425476Y-55652380D02*
X147044523Y-55652380D01*
X146711190Y-56033333D01*
X146854047Y-56033333D01*
X146949285Y-56080952D01*
X146996904Y-56128571D01*
X147044523Y-56223809D01*
X147044523Y-56461904D01*
X146996904Y-56557142D01*
X146949285Y-56604761D01*
X146854047Y-56652380D01*
X146568333Y-56652380D01*
X146473095Y-56604761D01*
X146425476Y-56557142D01*
X127272333Y-88606380D02*
X126939000Y-88130190D01*
X126700904Y-88606380D02*
X126700904Y-87606380D01*
X127081857Y-87606380D01*
X127177095Y-87654000D01*
X127224714Y-87701619D01*
X127272333Y-87796857D01*
X127272333Y-87939714D01*
X127224714Y-88034952D01*
X127177095Y-88082571D01*
X127081857Y-88130190D01*
X126700904Y-88130190D01*
X128224714Y-88606380D02*
X127653285Y-88606380D01*
X127939000Y-88606380D02*
X127939000Y-87606380D01*
X127843761Y-87749238D01*
X127748523Y-87844476D01*
X127653285Y-87892095D01*
X84673380Y-84737333D02*
X85387666Y-84737333D01*
X85530523Y-84784952D01*
X85625761Y-84880190D01*
X85673380Y-85023047D01*
X85673380Y-85118285D01*
X84673380Y-83784952D02*
X84673380Y-84261142D01*
X85149571Y-84308761D01*
X85101952Y-84261142D01*
X85054333Y-84165904D01*
X85054333Y-83927809D01*
X85101952Y-83832571D01*
X85149571Y-83784952D01*
X85244809Y-83737333D01*
X85482904Y-83737333D01*
X85578142Y-83784952D01*
X85625761Y-83832571D01*
X85673380Y-83927809D01*
X85673380Y-84165904D01*
X85625761Y-84261142D01*
X85578142Y-84308761D01*
X127278333Y-70175380D02*
X126945000Y-69699190D01*
X126706904Y-70175380D02*
X126706904Y-69175380D01*
X127087857Y-69175380D01*
X127183095Y-69223000D01*
X127230714Y-69270619D01*
X127278333Y-69365857D01*
X127278333Y-69508714D01*
X127230714Y-69603952D01*
X127183095Y-69651571D01*
X127087857Y-69699190D01*
X126706904Y-69699190D01*
X127611666Y-69175380D02*
X128278333Y-69175380D01*
X127849761Y-70175380D01*
X157595404Y-70306380D02*
X157595404Y-69306380D01*
X157833500Y-69306380D01*
X157976357Y-69354000D01*
X158071595Y-69449238D01*
X158119214Y-69544476D01*
X158166833Y-69734952D01*
X158166833Y-69877809D01*
X158119214Y-70068285D01*
X158071595Y-70163523D01*
X157976357Y-70258761D01*
X157833500Y-70306380D01*
X157595404Y-70306380D01*
X159119214Y-70306380D02*
X158547785Y-70306380D01*
X158833500Y-70306380D02*
X158833500Y-69306380D01*
X158738261Y-69449238D01*
X158643023Y-69544476D01*
X158547785Y-69592095D01*
X162547619Y-79349238D02*
X162500000Y-79444476D01*
X162404761Y-79539714D01*
X162261904Y-79682571D01*
X162214285Y-79777809D01*
X162214285Y-79873047D01*
X162452380Y-79825428D02*
X162404761Y-79920666D01*
X162309523Y-80015904D01*
X162119047Y-80063523D01*
X161785714Y-80063523D01*
X161595238Y-80015904D01*
X161500000Y-79920666D01*
X161452380Y-79825428D01*
X161452380Y-79634952D01*
X161500000Y-79539714D01*
X161595238Y-79444476D01*
X161785714Y-79396857D01*
X162119047Y-79396857D01*
X162309523Y-79444476D01*
X162404761Y-79539714D01*
X162452380Y-79634952D01*
X162452380Y-79825428D01*
X162452380Y-78444476D02*
X162452380Y-79015904D01*
X162452380Y-78730190D02*
X161452380Y-78730190D01*
X161595238Y-78825428D01*
X161690476Y-78920666D01*
X161738095Y-79015904D01*
X163166666Y-74952380D02*
X163166666Y-75666666D01*
X163119047Y-75809523D01*
X163023809Y-75904761D01*
X162880952Y-75952380D01*
X162785714Y-75952380D01*
X163547619Y-74952380D02*
X164214285Y-74952380D01*
X163785714Y-75952380D01*
X132733333Y-63307142D02*
X132685714Y-63354761D01*
X132542857Y-63402380D01*
X132447619Y-63402380D01*
X132304761Y-63354761D01*
X132209523Y-63259523D01*
X132161904Y-63164285D01*
X132114285Y-62973809D01*
X132114285Y-62830952D01*
X132161904Y-62640476D01*
X132209523Y-62545238D01*
X132304761Y-62450000D01*
X132447619Y-62402380D01*
X132542857Y-62402380D01*
X132685714Y-62450000D01*
X132733333Y-62497619D01*
X133114285Y-62497619D02*
X133161904Y-62450000D01*
X133257142Y-62402380D01*
X133495238Y-62402380D01*
X133590476Y-62450000D01*
X133638095Y-62497619D01*
X133685714Y-62592857D01*
X133685714Y-62688095D01*
X133638095Y-62830952D01*
X133066666Y-63402380D01*
X133685714Y-63402380D01*
X132933333Y-68202380D02*
X132600000Y-67726190D01*
X132361904Y-68202380D02*
X132361904Y-67202380D01*
X132742857Y-67202380D01*
X132838095Y-67250000D01*
X132885714Y-67297619D01*
X132933333Y-67392857D01*
X132933333Y-67535714D01*
X132885714Y-67630952D01*
X132838095Y-67678571D01*
X132742857Y-67726190D01*
X132361904Y-67726190D01*
X133838095Y-67202380D02*
X133361904Y-67202380D01*
X133314285Y-67678571D01*
X133361904Y-67630952D01*
X133457142Y-67583333D01*
X133695238Y-67583333D01*
X133790476Y-67630952D01*
X133838095Y-67678571D01*
X133885714Y-67773809D01*
X133885714Y-68011904D01*
X133838095Y-68107142D01*
X133790476Y-68154761D01*
X133695238Y-68202380D01*
X133457142Y-68202380D01*
X133361904Y-68154761D01*
X133314285Y-68107142D01*
X76773380Y-75087333D02*
X77487666Y-75087333D01*
X77630523Y-75134952D01*
X77725761Y-75230190D01*
X77773380Y-75373047D01*
X77773380Y-75468285D01*
X76773380Y-74706380D02*
X76773380Y-74087333D01*
X77154333Y-74420666D01*
X77154333Y-74277809D01*
X77201952Y-74182571D01*
X77249571Y-74134952D01*
X77344809Y-74087333D01*
X77582904Y-74087333D01*
X77678142Y-74134952D01*
X77725761Y-74182571D01*
X77773380Y-74277809D01*
X77773380Y-74563523D01*
X77725761Y-74658761D01*
X77678142Y-74706380D01*
X162885380Y-67495666D02*
X162409190Y-67829000D01*
X162885380Y-68067095D02*
X161885380Y-68067095D01*
X161885380Y-67686142D01*
X161933000Y-67590904D01*
X161980619Y-67543285D01*
X162075857Y-67495666D01*
X162218714Y-67495666D01*
X162313952Y-67543285D01*
X162361571Y-67590904D01*
X162409190Y-67686142D01*
X162409190Y-68067095D01*
X161885380Y-66638523D02*
X161885380Y-66829000D01*
X161933000Y-66924238D01*
X161980619Y-66971857D01*
X162123476Y-67067095D01*
X162313952Y-67114714D01*
X162694904Y-67114714D01*
X162790142Y-67067095D01*
X162837761Y-67019476D01*
X162885380Y-66924238D01*
X162885380Y-66733761D01*
X162837761Y-66638523D01*
X162790142Y-66590904D01*
X162694904Y-66543285D01*
X162456809Y-66543285D01*
X162361571Y-66590904D01*
X162313952Y-66638523D01*
X162266333Y-66733761D01*
X162266333Y-66924238D01*
X162313952Y-67019476D01*
X162361571Y-67067095D01*
X162456809Y-67114714D01*
X132633333Y-66102380D02*
X132300000Y-65626190D01*
X132061904Y-66102380D02*
X132061904Y-65102380D01*
X132442857Y-65102380D01*
X132538095Y-65150000D01*
X132585714Y-65197619D01*
X132633333Y-65292857D01*
X132633333Y-65435714D01*
X132585714Y-65530952D01*
X132538095Y-65578571D01*
X132442857Y-65626190D01*
X132061904Y-65626190D01*
X133204761Y-65530952D02*
X133109523Y-65483333D01*
X133061904Y-65435714D01*
X133014285Y-65340476D01*
X133014285Y-65292857D01*
X133061904Y-65197619D01*
X133109523Y-65150000D01*
X133204761Y-65102380D01*
X133395238Y-65102380D01*
X133490476Y-65150000D01*
X133538095Y-65197619D01*
X133585714Y-65292857D01*
X133585714Y-65340476D01*
X133538095Y-65435714D01*
X133490476Y-65483333D01*
X133395238Y-65530952D01*
X133204761Y-65530952D01*
X133109523Y-65578571D01*
X133061904Y-65626190D01*
X133014285Y-65721428D01*
X133014285Y-65911904D01*
X133061904Y-66007142D01*
X133109523Y-66054761D01*
X133204761Y-66102380D01*
X133395238Y-66102380D01*
X133490476Y-66054761D01*
X133538095Y-66007142D01*
X133585714Y-65911904D01*
X133585714Y-65721428D01*
X133538095Y-65626190D01*
X133490476Y-65578571D01*
X133395238Y-65530952D01*
X139007142Y-53116666D02*
X139054761Y-53164285D01*
X139102380Y-53307142D01*
X139102380Y-53402380D01*
X139054761Y-53545238D01*
X138959523Y-53640476D01*
X138864285Y-53688095D01*
X138673809Y-53735714D01*
X138530952Y-53735714D01*
X138340476Y-53688095D01*
X138245238Y-53640476D01*
X138150000Y-53545238D01*
X138102380Y-53402380D01*
X138102380Y-53307142D01*
X138150000Y-53164285D01*
X138197619Y-53116666D01*
X138102380Y-52497619D02*
X138102380Y-52402380D01*
X138150000Y-52307142D01*
X138197619Y-52259523D01*
X138292857Y-52211904D01*
X138483333Y-52164285D01*
X138721428Y-52164285D01*
X138911904Y-52211904D01*
X139007142Y-52259523D01*
X139054761Y-52307142D01*
X139102380Y-52402380D01*
X139102380Y-52497619D01*
X139054761Y-52592857D01*
X139007142Y-52640476D01*
X138911904Y-52688095D01*
X138721428Y-52735714D01*
X138483333Y-52735714D01*
X138292857Y-52688095D01*
X138197619Y-52640476D01*
X138150000Y-52592857D01*
X138102380Y-52497619D01*
X106871095Y-55652380D02*
X106871095Y-56461904D01*
X106918714Y-56557142D01*
X106966333Y-56604761D01*
X107061571Y-56652380D01*
X107252047Y-56652380D01*
X107347285Y-56604761D01*
X107394904Y-56557142D01*
X107442523Y-56461904D01*
X107442523Y-55652380D01*
X108442523Y-56652380D02*
X107871095Y-56652380D01*
X108156809Y-56652380D02*
X108156809Y-55652380D01*
X108061571Y-55795238D01*
X107966333Y-55890476D01*
X107871095Y-55938095D01*
X160666435Y-93452001D02*
X160666435Y-94166782D01*
X160618783Y-94309738D01*
X160523479Y-94405042D01*
X160380523Y-94452694D01*
X160285219Y-94452694D01*
X161285912Y-93880869D02*
X161190608Y-93833217D01*
X161142956Y-93785565D01*
X161095304Y-93690261D01*
X161095304Y-93642609D01*
X161142956Y-93547305D01*
X161190608Y-93499653D01*
X161285912Y-93452001D01*
X161476520Y-93452001D01*
X161571824Y-93499653D01*
X161619476Y-93547305D01*
X161667128Y-93642609D01*
X161667128Y-93690261D01*
X161619476Y-93785565D01*
X161571824Y-93833217D01*
X161476520Y-93880869D01*
X161285912Y-93880869D01*
X161190608Y-93928521D01*
X161142956Y-93976173D01*
X161095304Y-94071478D01*
X161095304Y-94262086D01*
X161142956Y-94357390D01*
X161190608Y-94405042D01*
X161285912Y-94452694D01*
X161476520Y-94452694D01*
X161571824Y-94405042D01*
X161619476Y-94357390D01*
X161667128Y-94262086D01*
X161667128Y-94071478D01*
X161619476Y-93976173D01*
X161571824Y-93928521D01*
X161476520Y-93880869D01*
X130729166Y-75778571D02*
X130395833Y-75778571D01*
X130395833Y-76302380D02*
X130395833Y-75302380D01*
X130872023Y-75302380D01*
X131776785Y-76302380D02*
X131205357Y-76302380D01*
X131491071Y-76302380D02*
X131491071Y-75302380D01*
X131395833Y-75445238D01*
X131300595Y-75540476D01*
X131205357Y-75588095D01*
X121483380Y-86145666D02*
X121007190Y-86479000D01*
X121483380Y-86717095D02*
X120483380Y-86717095D01*
X120483380Y-86336142D01*
X120531000Y-86240904D01*
X120578619Y-86193285D01*
X120673857Y-86145666D01*
X120816714Y-86145666D01*
X120911952Y-86193285D01*
X120959571Y-86240904D01*
X121007190Y-86336142D01*
X121007190Y-86717095D01*
X120578619Y-85764714D02*
X120531000Y-85717095D01*
X120483380Y-85621857D01*
X120483380Y-85383761D01*
X120531000Y-85288523D01*
X120578619Y-85240904D01*
X120673857Y-85193285D01*
X120769095Y-85193285D01*
X120911952Y-85240904D01*
X121483380Y-85812333D01*
X121483380Y-85193285D01*
X175006095Y-43861380D02*
X175006095Y-42861380D01*
X175006095Y-43337571D02*
X175577523Y-43337571D01*
X175577523Y-43861380D02*
X175577523Y-42861380D01*
X175958476Y-42861380D02*
X176577523Y-42861380D01*
X176244190Y-43242333D01*
X176387047Y-43242333D01*
X176482285Y-43289952D01*
X176529904Y-43337571D01*
X176577523Y-43432809D01*
X176577523Y-43670904D01*
X176529904Y-43766142D01*
X176482285Y-43813761D01*
X176387047Y-43861380D01*
X176101333Y-43861380D01*
X176006095Y-43813761D01*
X175958476Y-43766142D01*
X123086904Y-70142380D02*
X123086904Y-69142380D01*
X123325000Y-69142380D01*
X123467857Y-69190000D01*
X123563095Y-69285238D01*
X123610714Y-69380476D01*
X123658333Y-69570952D01*
X123658333Y-69713809D01*
X123610714Y-69904285D01*
X123563095Y-69999523D01*
X123467857Y-70094761D01*
X123325000Y-70142380D01*
X123086904Y-70142380D01*
X123991666Y-69142380D02*
X124610714Y-69142380D01*
X124277380Y-69523333D01*
X124420238Y-69523333D01*
X124515476Y-69570952D01*
X124563095Y-69618571D01*
X124610714Y-69713809D01*
X124610714Y-69951904D01*
X124563095Y-70047142D01*
X124515476Y-70094761D01*
X124420238Y-70142380D01*
X124134523Y-70142380D01*
X124039285Y-70094761D01*
X123991666Y-70047142D01*
X84673380Y-65437333D02*
X85387666Y-65437333D01*
X85530523Y-65484952D01*
X85625761Y-65580190D01*
X85673380Y-65723047D01*
X85673380Y-65818285D01*
X84673380Y-64532571D02*
X84673380Y-64723047D01*
X84721000Y-64818285D01*
X84768619Y-64865904D01*
X84911476Y-64961142D01*
X85101952Y-65008761D01*
X85482904Y-65008761D01*
X85578142Y-64961142D01*
X85625761Y-64913523D01*
X85673380Y-64818285D01*
X85673380Y-64627809D01*
X85625761Y-64532571D01*
X85578142Y-64484952D01*
X85482904Y-64437333D01*
X85244809Y-64437333D01*
X85149571Y-64484952D01*
X85101952Y-64532571D01*
X85054333Y-64627809D01*
X85054333Y-64818285D01*
X85101952Y-64913523D01*
X85149571Y-64961142D01*
X85244809Y-65008761D01*
X76773380Y-84737333D02*
X77487666Y-84737333D01*
X77630523Y-84784952D01*
X77725761Y-84880190D01*
X77773380Y-85023047D01*
X77773380Y-85118285D01*
X76868619Y-84308761D02*
X76821000Y-84261142D01*
X76773380Y-84165904D01*
X76773380Y-83927809D01*
X76821000Y-83832571D01*
X76868619Y-83784952D01*
X76963857Y-83737333D01*
X77059095Y-83737333D01*
X77201952Y-83784952D01*
X77773380Y-84356380D01*
X77773380Y-83737333D01*
X174879095Y-92629380D02*
X174879095Y-91629380D01*
X174879095Y-92105571D02*
X175450523Y-92105571D01*
X175450523Y-92629380D02*
X175450523Y-91629380D01*
X176450523Y-92629380D02*
X175879095Y-92629380D01*
X176164809Y-92629380D02*
X176164809Y-91629380D01*
X176069571Y-91772238D01*
X175974333Y-91867476D01*
X175879095Y-91915095D01*
X132059095Y-94952380D02*
X132059095Y-95761904D01*
X132106714Y-95857142D01*
X132154333Y-95904761D01*
X132249571Y-95952380D01*
X132440047Y-95952380D01*
X132535285Y-95904761D01*
X132582904Y-95857142D01*
X132630523Y-95761904D01*
X132630523Y-94952380D01*
X133059095Y-95047619D02*
X133106714Y-95000000D01*
X133201952Y-94952380D01*
X133440047Y-94952380D01*
X133535285Y-95000000D01*
X133582904Y-95047619D01*
X133630523Y-95142857D01*
X133630523Y-95238095D01*
X133582904Y-95380952D01*
X133011476Y-95952380D01*
X133630523Y-95952380D01*
X177433333Y-85752380D02*
X177100000Y-85276190D01*
X176861904Y-85752380D02*
X176861904Y-84752380D01*
X177242857Y-84752380D01*
X177338095Y-84800000D01*
X177385714Y-84847619D01*
X177433333Y-84942857D01*
X177433333Y-85085714D01*
X177385714Y-85180952D01*
X177338095Y-85228571D01*
X177242857Y-85276190D01*
X176861904Y-85276190D01*
X178290476Y-85085714D02*
X178290476Y-85752380D01*
X178052380Y-84704761D02*
X177814285Y-85419047D01*
X178433333Y-85419047D01*
X76773380Y-65437333D02*
X77487666Y-65437333D01*
X77630523Y-65484952D01*
X77725761Y-65580190D01*
X77773380Y-65723047D01*
X77773380Y-65818285D01*
X77106714Y-64532571D02*
X77773380Y-64532571D01*
X76725761Y-64770666D02*
X77440047Y-65008761D01*
X77440047Y-64389714D01*
X142820333Y-85654380D02*
X142344142Y-85654380D01*
X142344142Y-84654380D01*
X143677476Y-85654380D02*
X143106047Y-85654380D01*
X143391761Y-85654380D02*
X143391761Y-84654380D01*
X143296523Y-84797238D01*
X143201285Y-84892476D01*
X143106047Y-84940095D01*
X78994095Y-92121380D02*
X78994095Y-91121380D01*
X78994095Y-91597571D02*
X79565523Y-91597571D01*
X79565523Y-92121380D02*
X79565523Y-91121380D01*
X80470285Y-91454714D02*
X80470285Y-92121380D01*
X80232190Y-91073761D02*
X79994095Y-91788047D01*
X80613142Y-91788047D01*
X158588656Y-52400142D02*
X158541037Y-52447761D01*
X158398180Y-52495380D01*
X158302942Y-52495380D01*
X158160084Y-52447761D01*
X158064846Y-52352523D01*
X158017227Y-52257285D01*
X157969608Y-52066809D01*
X157969608Y-51923952D01*
X158017227Y-51733476D01*
X158064846Y-51638238D01*
X158160084Y-51543000D01*
X158302942Y-51495380D01*
X158398180Y-51495380D01*
X158541037Y-51543000D01*
X158588656Y-51590619D01*
X159541037Y-52495380D02*
X158969608Y-52495380D01*
X159255323Y-52495380D02*
X159255323Y-51495380D01*
X159160084Y-51638238D01*
X159064846Y-51733476D01*
X158969608Y-51781095D01*
D13*
X139850000Y-76462500D02*
X139850000Y-71062500D01*
X136550000Y-76462500D02*
X139850000Y-76462500D01*
X136550000Y-76462500D02*
X136550000Y-71062500D01*
X92021000Y-78604000D02*
X85971000Y-78604000D01*
X85971000Y-78604000D02*
X85971000Y-70804000D01*
X90911000Y-72174000D02*
X91921000Y-72174000D01*
X91921000Y-77254000D02*
X90911000Y-77254000D01*
X92021000Y-70804000D02*
X92021000Y-78604000D01*
X90911000Y-77254000D02*
X90911000Y-72174000D01*
X85971000Y-70804000D02*
X92021000Y-70804000D01*
X171550000Y-84650000D02*
X174600000Y-84650000D01*
X171550000Y-88950000D02*
X174600000Y-88950000D01*
X171571766Y-84634475D02*
G75*
G03*
X171550000Y-88950000I1528233J-2165525D01*
G01*
X174644513Y-88918249D02*
G75*
G03*
X174600000Y-84650000I-1544512J2118249D01*
G01*
X128989000Y-83104000D02*
X125939000Y-83104000D01*
X128989000Y-87404000D02*
X125939000Y-87404000D01*
X128967234Y-87419525D02*
G75*
G03*
X128989000Y-83104000I-1528233J2165525D01*
G01*
X125894487Y-83135751D02*
G75*
G03*
X125939000Y-87404000I1544512J-2118249D01*
G01*
X91921000Y-86904000D02*
X90911000Y-86904000D01*
X92021000Y-88254000D02*
X85971000Y-88254000D01*
X90911000Y-81824000D02*
X91921000Y-81824000D01*
X90911000Y-86904000D02*
X90911000Y-81824000D01*
X92021000Y-80454000D02*
X92021000Y-88254000D01*
X85971000Y-88254000D02*
X85971000Y-80454000D01*
X85971000Y-80454000D02*
X92021000Y-80454000D01*
X127682258Y-71642500D02*
X127207742Y-71642500D01*
X127682258Y-70597500D02*
X127207742Y-70597500D01*
X154933500Y-70704000D02*
X160333500Y-70704000D01*
X154933500Y-74004000D02*
X160333500Y-74004000D01*
X154933500Y-70704000D02*
X154933500Y-74004000D01*
X161006000Y-79254000D02*
X161006000Y-79904000D01*
X157886000Y-79254000D02*
X157886000Y-78604000D01*
X161006000Y-79254000D02*
X161006000Y-77579000D01*
X157886000Y-79254000D02*
X157886000Y-79904000D01*
X176071000Y-75754000D02*
X177671000Y-75754000D01*
X177671000Y-75754000D02*
X177071000Y-76354000D01*
X177671000Y-75754000D02*
X177071000Y-75354000D01*
X179421000Y-80254000D02*
X164721000Y-80254000D01*
X164721000Y-80254000D02*
X164721000Y-71254000D01*
X164721000Y-71254000D02*
X179421000Y-71254000D01*
X179421000Y-71254000D02*
X179421000Y-80254000D01*
X136269580Y-63456000D02*
X135988420Y-63456000D01*
X136269580Y-62436000D02*
X135988420Y-62436000D01*
X135916742Y-67223500D02*
X136391258Y-67223500D01*
X135916742Y-68268500D02*
X136391258Y-68268500D01*
X84121000Y-78604000D02*
X78071000Y-78604000D01*
X84121000Y-70804000D02*
X84121000Y-78604000D01*
X84021000Y-77254000D02*
X83011000Y-77254000D01*
X83011000Y-72174000D02*
X84021000Y-72174000D01*
X78071000Y-78604000D02*
X78071000Y-70804000D01*
X78071000Y-70804000D02*
X84121000Y-70804000D01*
X83011000Y-77254000D02*
X83011000Y-72174000D01*
X160993500Y-67566258D02*
X160993500Y-67091742D01*
X159948500Y-67566258D02*
X159948500Y-67091742D01*
X136412258Y-65077500D02*
X135937742Y-65077500D01*
X136412258Y-66122500D02*
X135937742Y-66122500D01*
X134755000Y-45060509D02*
X133155000Y-45060509D01*
X136697000Y-56431000D02*
X130840000Y-56431000D01*
X132957000Y-60231000D02*
X125843000Y-60231000D01*
X127960000Y-56271000D02*
X122029000Y-56271000D01*
X133190000Y-60111000D02*
X125610000Y-60111000D01*
X127960000Y-56991000D02*
X122396000Y-56991000D01*
X127960000Y-56871000D02*
X122328000Y-56871000D01*
X137471000Y-53350000D02*
X121329000Y-53350000D01*
X137260000Y-54831000D02*
X121540000Y-54831000D01*
X135389000Y-58391000D02*
X123411000Y-58391000D01*
X127960000Y-55711000D02*
X121803000Y-55711000D01*
X134254000Y-59431000D02*
X124546000Y-59431000D01*
X136789000Y-56231000D02*
X130840000Y-56231000D01*
X127960000Y-57111000D02*
X122466000Y-57111000D01*
X127960000Y-55831000D02*
X121847000Y-55831000D01*
X134832000Y-58951000D02*
X123968000Y-58951000D01*
X127960000Y-57711000D02*
X122861000Y-57711000D01*
X137177000Y-55151000D02*
X121623000Y-55151000D01*
X134788000Y-58991000D02*
X124012000Y-58991000D01*
X127960000Y-57631000D02*
X122804000Y-57631000D01*
X130964000Y-60911000D02*
X127836000Y-60911000D01*
X137464000Y-53470000D02*
X121336000Y-53470000D01*
X136472000Y-56871000D02*
X130840000Y-56871000D01*
X127960000Y-57031000D02*
X122419000Y-57031000D01*
X134200000Y-59471000D02*
X124600000Y-59471000D01*
X127960000Y-56471000D02*
X122122000Y-56471000D01*
X127960000Y-57071000D02*
X122442000Y-57071000D01*
X127960000Y-57391000D02*
X122641000Y-57391000D01*
X137391000Y-54151000D02*
X121409000Y-54151000D01*
X137188000Y-55111000D02*
X121612000Y-55111000D01*
X137165000Y-55191000D02*
X121635000Y-55191000D01*
X137142000Y-55271000D02*
X130840000Y-55271000D01*
X133115000Y-60151000D02*
X125685000Y-60151000D01*
X134743000Y-59031000D02*
X124057000Y-59031000D01*
X131474000Y-60791000D02*
X127326000Y-60791000D01*
X136874000Y-56031000D02*
X130840000Y-56031000D01*
X137210000Y-55031000D02*
X121590000Y-55031000D01*
X135240000Y-58551000D02*
X123560000Y-58551000D01*
X137329000Y-54511000D02*
X121471000Y-54511000D01*
X134651000Y-59111000D02*
X124149000Y-59111000D01*
X127960000Y-56591000D02*
X122181000Y-56591000D01*
X133798000Y-59751000D02*
X125002000Y-59751000D01*
X137278000Y-54751000D02*
X121522000Y-54751000D01*
X133859000Y-59711000D02*
X124941000Y-59711000D01*
X135597000Y-58151000D02*
X123203000Y-58151000D01*
X136557000Y-56711000D02*
X130840000Y-56711000D01*
X136427000Y-56951000D02*
X130840000Y-56951000D01*
X135495000Y-58271000D02*
X123305000Y-58271000D01*
X137385000Y-54191000D02*
X121415000Y-54191000D01*
X127960000Y-55871000D02*
X121863000Y-55871000D01*
X137240000Y-54911000D02*
X121560000Y-54911000D01*
X136052000Y-57551000D02*
X130840000Y-57551000D01*
X137379000Y-54231000D02*
X121421000Y-54231000D01*
X135563000Y-58191000D02*
X123237000Y-58191000D01*
X137437000Y-53791000D02*
X121363000Y-53791000D01*
X137452000Y-53630000D02*
X121348000Y-53630000D01*
X132520000Y-60431000D02*
X126280000Y-60431000D01*
X135043000Y-58751000D02*
X123757000Y-58751000D01*
X137352000Y-54391000D02*
X121448000Y-54391000D01*
X127960000Y-55591000D02*
X121761000Y-55591000D01*
X134034000Y-59591000D02*
X124766000Y-59591000D01*
X135939000Y-57711000D02*
X130840000Y-57711000D01*
X137366000Y-54311000D02*
X121434000Y-54311000D01*
X137445000Y-53711000D02*
X121355000Y-53711000D01*
X137372000Y-54271000D02*
X121428000Y-54271000D01*
X135425000Y-58351000D02*
X123375000Y-58351000D01*
X137479000Y-53110000D02*
X121321000Y-53110000D01*
X137337000Y-54471000D02*
X121463000Y-54471000D01*
X135968000Y-57671000D02*
X130840000Y-57671000D01*
X127960000Y-58111000D02*
X123170000Y-58111000D01*
X136599000Y-56631000D02*
X130840000Y-56631000D01*
X136753000Y-56311000D02*
X130840000Y-56311000D01*
X135316000Y-58471000D02*
X123484000Y-58471000D01*
X134459000Y-59271000D02*
X124341000Y-59271000D01*
X136840000Y-56111000D02*
X130840000Y-56111000D01*
X133264000Y-60071000D02*
X125536000Y-60071000D01*
X137313000Y-54591000D02*
X121487000Y-54591000D01*
X134556000Y-59191000D02*
X124244000Y-59191000D01*
X136185000Y-57351000D02*
X130840000Y-57351000D01*
X136159000Y-57391000D02*
X130840000Y-57391000D01*
X137449000Y-53671000D02*
X121351000Y-53671000D01*
X135820000Y-57871000D02*
X130840000Y-57871000D01*
X137344000Y-54431000D02*
X121456000Y-54431000D01*
X136906000Y-55951000D02*
X130840000Y-55951000D01*
X137461000Y-53510000D02*
X121339000Y-53510000D01*
X127960000Y-56351000D02*
X122066000Y-56351000D01*
X133977000Y-59631000D02*
X124823000Y-59631000D01*
X127960000Y-56951000D02*
X122373000Y-56951000D01*
X137305000Y-54631000D02*
X121495000Y-54631000D01*
X137105000Y-55391000D02*
X130840000Y-55391000D01*
X127960000Y-55751000D02*
X121818000Y-55751000D01*
X137154000Y-55231000D02*
X121646000Y-55231000D01*
X137480000Y-53070000D02*
X121320000Y-53070000D01*
X136211000Y-57311000D02*
X130840000Y-57311000D01*
X131618000Y-60751000D02*
X127182000Y-60751000D01*
X127960000Y-56151000D02*
X121977000Y-56151000D01*
X136922000Y-55911000D02*
X130840000Y-55911000D01*
X135460000Y-58311000D02*
X123340000Y-58311000D01*
X127960000Y-55391000D02*
X121695000Y-55391000D01*
X127960000Y-55951000D02*
X121894000Y-55951000D01*
X137403000Y-54071000D02*
X121397000Y-54071000D01*
X127960000Y-56671000D02*
X122222000Y-56671000D01*
X127960000Y-57951000D02*
X123042000Y-57951000D01*
X135202000Y-58591000D02*
X123598000Y-58591000D01*
X136806000Y-56191000D02*
X130840000Y-56191000D01*
X127960000Y-57231000D02*
X122539000Y-57231000D01*
X127960000Y-57831000D02*
X122950000Y-57831000D01*
X137480000Y-52990000D02*
X121320000Y-52990000D01*
X127960000Y-56111000D02*
X121960000Y-56111000D01*
X135790000Y-57911000D02*
X130840000Y-57911000D01*
X132424000Y-60471000D02*
X126376000Y-60471000D01*
X137080000Y-55471000D02*
X130840000Y-55471000D01*
X127960000Y-57791000D02*
X122920000Y-57791000D01*
X127960000Y-56311000D02*
X122047000Y-56311000D01*
X132703000Y-60351000D02*
X126097000Y-60351000D01*
X131878000Y-60671000D02*
X126922000Y-60671000D01*
X127960000Y-56631000D02*
X122201000Y-56631000D01*
X127960000Y-56191000D02*
X121994000Y-56191000D01*
X136578000Y-56671000D02*
X130840000Y-56671000D01*
X136890000Y-55991000D02*
X130840000Y-55991000D01*
X127960000Y-57551000D02*
X122748000Y-57551000D01*
X127960000Y-56231000D02*
X122011000Y-56231000D01*
X135996000Y-57631000D02*
X130840000Y-57631000D01*
X136310000Y-57151000D02*
X130840000Y-57151000D01*
X136286000Y-57191000D02*
X130840000Y-57191000D01*
X127960000Y-57871000D02*
X122980000Y-57871000D01*
X134409000Y-59311000D02*
X124391000Y-59311000D01*
X134960000Y-58831000D02*
X123840000Y-58831000D01*
X127960000Y-55671000D02*
X121789000Y-55671000D01*
X131320000Y-60831000D02*
X127480000Y-60831000D01*
X135695000Y-58031000D02*
X130840000Y-58031000D01*
X137481000Y-52950000D02*
X121319000Y-52950000D01*
X134918000Y-58871000D02*
X123882000Y-58871000D01*
X127960000Y-57311000D02*
X122589000Y-57311000D01*
X127960000Y-57751000D02*
X122890000Y-57751000D01*
X137455000Y-53590000D02*
X121345000Y-53590000D01*
X136678000Y-56471000D02*
X130840000Y-56471000D01*
X127960000Y-56711000D02*
X122243000Y-56711000D01*
X135084000Y-58711000D02*
X123716000Y-58711000D01*
X127960000Y-56071000D02*
X121943000Y-56071000D01*
X127960000Y-56511000D02*
X122142000Y-56511000D01*
X137408000Y-54031000D02*
X121392000Y-54031000D01*
X137428000Y-53871000D02*
X121372000Y-53871000D01*
X136494000Y-56831000D02*
X130840000Y-56831000D01*
X127960000Y-57911000D02*
X123010000Y-57911000D01*
X136857000Y-56071000D02*
X130840000Y-56071000D01*
X136515000Y-56791000D02*
X130840000Y-56791000D01*
X130165000Y-61031000D02*
X128635000Y-61031000D01*
X130751000Y-60951000D02*
X128049000Y-60951000D01*
X136358000Y-57071000D02*
X130840000Y-57071000D01*
X137250000Y-54871000D02*
X121550000Y-54871000D01*
X137441000Y-53751000D02*
X121359000Y-53751000D01*
X136106000Y-57471000D02*
X130840000Y-57471000D01*
X127960000Y-55311000D02*
X121670000Y-55311000D01*
X127960000Y-55551000D02*
X121747000Y-55551000D01*
X137053000Y-55551000D02*
X130840000Y-55551000D01*
X133336000Y-60031000D02*
X125464000Y-60031000D01*
X137466000Y-53430000D02*
X121334000Y-53430000D01*
X127960000Y-55351000D02*
X121682000Y-55351000D01*
X127960000Y-55511000D02*
X121734000Y-55511000D01*
X135910000Y-57751000D02*
X130840000Y-57751000D01*
X137093000Y-55431000D02*
X130840000Y-55431000D01*
X127960000Y-56751000D02*
X122264000Y-56751000D01*
X137066000Y-55511000D02*
X130840000Y-55511000D01*
X137469000Y-53390000D02*
X121331000Y-53390000D01*
X137321000Y-54551000D02*
X121479000Y-54551000D01*
X127960000Y-55911000D02*
X121878000Y-55911000D01*
X132324000Y-60511000D02*
X126476000Y-60511000D01*
X135002000Y-58791000D02*
X123798000Y-58791000D01*
X133673000Y-59831000D02*
X125127000Y-59831000D01*
X137477000Y-53190000D02*
X121323000Y-53190000D01*
X127960000Y-56391000D02*
X122084000Y-56391000D01*
X127960000Y-57351000D02*
X122615000Y-57351000D01*
X136381000Y-57031000D02*
X130840000Y-57031000D01*
X134146000Y-59511000D02*
X124654000Y-59511000D01*
X133407000Y-59991000D02*
X125393000Y-59991000D01*
X137397000Y-54111000D02*
X121403000Y-54111000D01*
X136968000Y-55791000D02*
X130840000Y-55791000D01*
X136024000Y-57591000D02*
X130840000Y-57591000D01*
X127960000Y-57991000D02*
X123073000Y-57991000D01*
X127960000Y-58031000D02*
X123105000Y-58031000D01*
X133609000Y-59871000D02*
X125191000Y-59871000D01*
X137359000Y-54351000D02*
X121441000Y-54351000D01*
X127960000Y-55271000D02*
X121658000Y-55271000D01*
X133955000Y-44260509D02*
X133955000Y-45860509D01*
X137011000Y-55671000D02*
X130840000Y-55671000D01*
X127960000Y-55991000D02*
X121910000Y-55991000D01*
X137414000Y-53991000D02*
X121386000Y-53991000D01*
X134697000Y-59071000D02*
X124103000Y-59071000D01*
X136236000Y-57271000D02*
X130840000Y-57271000D01*
X136133000Y-57431000D02*
X130840000Y-57431000D01*
X136953000Y-55831000D02*
X130840000Y-55831000D01*
X136619000Y-56591000D02*
X130840000Y-56591000D01*
X136404000Y-56991000D02*
X130840000Y-56991000D01*
X136771000Y-56271000D02*
X130840000Y-56271000D01*
X136449000Y-56911000D02*
X130840000Y-56911000D01*
X127960000Y-56031000D02*
X121926000Y-56031000D01*
X127960000Y-55431000D02*
X121707000Y-55431000D01*
X133736000Y-59791000D02*
X125064000Y-59791000D01*
X137199000Y-55071000D02*
X121601000Y-55071000D01*
X136734000Y-56351000D02*
X130840000Y-56351000D01*
X132790000Y-60311000D02*
X126010000Y-60311000D01*
X137287000Y-54711000D02*
X121513000Y-54711000D01*
X127960000Y-55791000D02*
X121832000Y-55791000D01*
X127960000Y-57591000D02*
X122776000Y-57591000D01*
X137039000Y-55591000D02*
X130840000Y-55591000D01*
X135163000Y-58631000D02*
X123637000Y-58631000D01*
X137458000Y-53550000D02*
X121342000Y-53550000D01*
X134875000Y-58911000D02*
X123925000Y-58911000D01*
X134306000Y-59391000D02*
X124494000Y-59391000D01*
X137230000Y-54951000D02*
X121570000Y-54951000D01*
X137269000Y-54791000D02*
X121531000Y-54791000D01*
X136639000Y-56551000D02*
X130840000Y-56551000D01*
X127960000Y-58071000D02*
X123137000Y-58071000D01*
X134508000Y-59231000D02*
X124292000Y-59231000D01*
X133919000Y-59671000D02*
X124881000Y-59671000D01*
X132613000Y-60391000D02*
X126187000Y-60391000D01*
X127960000Y-55631000D02*
X121775000Y-55631000D01*
X131997000Y-60631000D02*
X126803000Y-60631000D01*
X135850000Y-57831000D02*
X130840000Y-57831000D01*
X135529000Y-58231000D02*
X123271000Y-58231000D01*
X133037000Y-60191000D02*
X125763000Y-60191000D01*
X127960000Y-56551000D02*
X122161000Y-56551000D01*
X136536000Y-56751000D02*
X130840000Y-56751000D01*
X127960000Y-57511000D02*
X122721000Y-57511000D01*
X127960000Y-55471000D02*
X121720000Y-55471000D01*
X137480000Y-53030000D02*
X121320000Y-53030000D01*
X135758000Y-57951000D02*
X130840000Y-57951000D01*
X127960000Y-57471000D02*
X122694000Y-57471000D01*
X136334000Y-57111000D02*
X130840000Y-57111000D01*
X136982000Y-55751000D02*
X130840000Y-55751000D01*
X127960000Y-56791000D02*
X122285000Y-56791000D01*
X134604000Y-59151000D02*
X124196000Y-59151000D01*
X137419000Y-53951000D02*
X121381000Y-53951000D01*
X127960000Y-57431000D02*
X122667000Y-57431000D01*
X134091000Y-59551000D02*
X124709000Y-59551000D01*
X127960000Y-56431000D02*
X122103000Y-56431000D01*
X127960000Y-57671000D02*
X122832000Y-57671000D01*
X134358000Y-59351000D02*
X124442000Y-59351000D01*
X137474000Y-53270000D02*
X121326000Y-53270000D01*
X136079000Y-57511000D02*
X130840000Y-57511000D01*
X135727000Y-57991000D02*
X130840000Y-57991000D01*
X137296000Y-54671000D02*
X121504000Y-54671000D01*
X136658000Y-56511000D02*
X130840000Y-56511000D01*
X137424000Y-53911000D02*
X121376000Y-53911000D01*
X136997000Y-55711000D02*
X130840000Y-55711000D01*
X137433000Y-53831000D02*
X121367000Y-53831000D01*
X137478000Y-53150000D02*
X121322000Y-53150000D01*
X127960000Y-57151000D02*
X122490000Y-57151000D01*
X135352000Y-58431000D02*
X123448000Y-58431000D01*
X132875000Y-60271000D02*
X125925000Y-60271000D01*
X137473000Y-53310000D02*
X121327000Y-53310000D01*
X137118000Y-55351000D02*
X130840000Y-55351000D01*
X136716000Y-56391000D02*
X130840000Y-56391000D01*
X137025000Y-55631000D02*
X130840000Y-55631000D01*
X127960000Y-57191000D02*
X122514000Y-57191000D01*
X137476000Y-53230000D02*
X121324000Y-53230000D01*
X127960000Y-56831000D02*
X122306000Y-56831000D01*
X136261000Y-57231000D02*
X130840000Y-57231000D01*
X135124000Y-58671000D02*
X123676000Y-58671000D01*
X131751000Y-60711000D02*
X127049000Y-60711000D01*
X130498000Y-60991000D02*
X128302000Y-60991000D01*
X135663000Y-58071000D02*
X130840000Y-58071000D01*
X135278000Y-58511000D02*
X123522000Y-58511000D01*
X127960000Y-57271000D02*
X122564000Y-57271000D01*
X132220000Y-60551000D02*
X126580000Y-60551000D01*
X127960000Y-56911000D02*
X122351000Y-56911000D01*
X135630000Y-58111000D02*
X130840000Y-58111000D01*
X135880000Y-57791000D02*
X130840000Y-57791000D01*
X133476000Y-59951000D02*
X125324000Y-59951000D01*
X136937000Y-55871000D02*
X130840000Y-55871000D01*
X131152000Y-60871000D02*
X127648000Y-60871000D01*
X132111000Y-60591000D02*
X126689000Y-60591000D01*
X137130000Y-55311000D02*
X130840000Y-55311000D01*
X133543000Y-59911000D02*
X125257000Y-59911000D01*
X137220000Y-54991000D02*
X121580000Y-54991000D01*
X136823000Y-56151000D02*
X130840000Y-56151000D01*
X137520000Y-52950000D02*
G75*
G03*
X137520000Y-52950000I-8120000J0D01*
G01*
D14*
X152871000Y-84804000D02*
X165371000Y-84804000D01*
X168371000Y-90254000D02*
X167351000Y-91154000D01*
X165371000Y-92904000D02*
X166501000Y-91904000D01*
X165371000Y-92904000D02*
X152871000Y-92904000D01*
X168371000Y-87454000D02*
X168371000Y-90254000D01*
X165371000Y-84804000D02*
X166501000Y-85804000D01*
X152871000Y-92904000D02*
X152871000Y-84804000D01*
X168371000Y-87454000D02*
X167351000Y-86554000D01*
D11*
X169171000Y-88754000D02*
G75*
G03*
X169171000Y-88754000I-150000J0D01*
G01*
D13*
X131321078Y-74910000D02*
X130803922Y-74910000D01*
X131321078Y-73490000D02*
X130803922Y-73490000D01*
X123343500Y-85791742D02*
X123343500Y-86266258D01*
X122298500Y-85791742D02*
X122298500Y-86266258D01*
X122340000Y-71855000D02*
X124625000Y-71855000D01*
X124625000Y-70385000D02*
X122340000Y-70385000D01*
X122340000Y-70385000D02*
X122340000Y-71855000D01*
X85971000Y-68954000D02*
X85971000Y-61154000D01*
X85971000Y-61154000D02*
X92021000Y-61154000D01*
X90911000Y-62524000D02*
X91921000Y-62524000D01*
X90911000Y-67604000D02*
X90911000Y-62524000D01*
X92021000Y-61154000D02*
X92021000Y-68954000D01*
X91921000Y-67604000D02*
X90911000Y-67604000D01*
X92021000Y-68954000D02*
X85971000Y-68954000D01*
X78071000Y-88254000D02*
X78071000Y-80454000D01*
X84121000Y-88254000D02*
X78071000Y-88254000D01*
X83011000Y-81824000D02*
X84021000Y-81824000D01*
X78071000Y-80454000D02*
X84121000Y-80454000D01*
X83011000Y-86904000D02*
X83011000Y-81824000D01*
X84021000Y-86904000D02*
X83011000Y-86904000D01*
X84121000Y-80454000D02*
X84121000Y-88254000D01*
X134151000Y-93734000D02*
X132821000Y-93734000D01*
X131491000Y-91134000D02*
X131491000Y-78374000D01*
X134151000Y-78374000D02*
X131491000Y-78374000D01*
X134151000Y-91134000D02*
X131491000Y-91134000D01*
X134151000Y-91134000D02*
X134151000Y-78374000D01*
X134151000Y-92404000D02*
X134151000Y-93734000D01*
X177077500Y-87387742D02*
X177077500Y-87862258D01*
X178122500Y-87387742D02*
X178122500Y-87862258D01*
X83011000Y-67604000D02*
X83011000Y-62524000D01*
X84021000Y-67604000D02*
X83011000Y-67604000D01*
X78071000Y-61154000D02*
X84121000Y-61154000D01*
X83011000Y-62524000D02*
X84021000Y-62524000D01*
X84121000Y-61154000D02*
X84121000Y-68954000D01*
X78071000Y-68954000D02*
X78071000Y-61154000D01*
X84121000Y-68954000D02*
X78071000Y-68954000D01*
X149437000Y-91152000D02*
X136937000Y-91152000D01*
X136937000Y-91152000D02*
X136937000Y-78652000D01*
X136937000Y-78652000D02*
X149437000Y-78652000D01*
X149437000Y-78652000D02*
X149437000Y-91152000D01*
X161076323Y-53768000D02*
X161076323Y-57052000D01*
X161916323Y-54304000D02*
X161916323Y-57052000D01*
X159556323Y-53275000D02*
X159556323Y-63311000D01*
X159836323Y-53328000D02*
X159836323Y-63258000D01*
X162196323Y-54540000D02*
X162196323Y-57052000D01*
X162436323Y-59534000D02*
X162436323Y-61813000D01*
X161156323Y-59534000D02*
X161156323Y-62776000D01*
X159636323Y-53289000D02*
X159636323Y-63297000D01*
X160916323Y-59534000D02*
X160916323Y-62896000D01*
X162756323Y-55137000D02*
X162756323Y-61449000D01*
X162236323Y-54577000D02*
X162236323Y-57052000D01*
X161316323Y-59534000D02*
X161316323Y-62688000D01*
X160956323Y-59534000D02*
X160956323Y-62877000D01*
X159716323Y-53303000D02*
X159716323Y-63283000D01*
X158755323Y-53213000D02*
X158755323Y-63373000D01*
X160836323Y-53654000D02*
X160836323Y-57052000D01*
X159155323Y-53228000D02*
X159155323Y-63358000D01*
X161076323Y-59534000D02*
X161076323Y-62818000D01*
X163516323Y-56447000D02*
X163516323Y-60139000D01*
X160196323Y-59534000D02*
X160196323Y-63167000D01*
X159596323Y-53282000D02*
X159596323Y-63304000D01*
X161476323Y-59534000D02*
X161476323Y-62591000D01*
X163676323Y-56915000D02*
X163676323Y-59671000D01*
X161996323Y-54368000D02*
X161996323Y-57052000D01*
X160996323Y-53729000D02*
X160996323Y-57052000D01*
X161876323Y-59534000D02*
X161876323Y-62313000D01*
X160116323Y-53396000D02*
X160116323Y-57052000D01*
X160676323Y-53586000D02*
X160676323Y-57052000D01*
X161116323Y-53789000D02*
X161116323Y-57052000D01*
X161956323Y-59534000D02*
X161956323Y-62250000D01*
X159916323Y-53346000D02*
X159916323Y-63240000D01*
X160636323Y-53570000D02*
X160636323Y-57052000D01*
X160596323Y-59534000D02*
X160596323Y-63031000D01*
X161516323Y-54020000D02*
X161516323Y-57052000D01*
X153775677Y-54918000D02*
X153775677Y-55918000D01*
X161836323Y-59534000D02*
X161836323Y-62343000D01*
X159075323Y-53223000D02*
X159075323Y-63363000D01*
X163796323Y-57431000D02*
X163796323Y-59155000D01*
X162996323Y-55463000D02*
X162996323Y-61123000D01*
X162596323Y-54946000D02*
X162596323Y-61640000D01*
X161876323Y-54273000D02*
X161876323Y-57052000D01*
X160196323Y-53419000D02*
X160196323Y-57052000D01*
X161796323Y-54213000D02*
X161796323Y-57052000D01*
X160916323Y-53690000D02*
X160916323Y-57052000D01*
X162636323Y-54992000D02*
X162636323Y-61594000D01*
X162396323Y-59534000D02*
X162396323Y-61854000D01*
X159315323Y-53243000D02*
X159315323Y-63343000D01*
X163036323Y-55523000D02*
X163036323Y-61063000D01*
X162116323Y-54469000D02*
X162116323Y-57052000D01*
X161236323Y-53853000D02*
X161236323Y-57052000D01*
X160276323Y-59534000D02*
X160276323Y-63143000D01*
X161196323Y-59534000D02*
X161196323Y-62755000D01*
X160716323Y-59534000D02*
X160716323Y-62983000D01*
X163156323Y-55714000D02*
X163156323Y-60872000D01*
X163436323Y-56256000D02*
X163436323Y-60330000D01*
X159516323Y-53269000D02*
X159516323Y-63317000D01*
X161796323Y-59534000D02*
X161796323Y-62373000D01*
X162516323Y-54857000D02*
X162516323Y-61729000D01*
X160756323Y-53619000D02*
X160756323Y-57052000D01*
X162316323Y-59534000D02*
X162316323Y-61933000D01*
X159796323Y-53319000D02*
X159796323Y-63267000D01*
X159195323Y-53231000D02*
X159195323Y-63355000D01*
X162076323Y-54435000D02*
X162076323Y-57052000D01*
X161716323Y-54155000D02*
X161716323Y-57052000D01*
X159275323Y-53239000D02*
X159275323Y-63347000D01*
X159476323Y-53263000D02*
X159476323Y-63323000D01*
X160236323Y-59534000D02*
X160236323Y-63155000D01*
X163196323Y-55783000D02*
X163196323Y-60803000D01*
X159395323Y-53253000D02*
X159395323Y-63333000D01*
X161956323Y-54336000D02*
X161956323Y-57052000D01*
X160716323Y-53603000D02*
X160716323Y-57052000D01*
X160396323Y-53482000D02*
X160396323Y-57052000D01*
X161596323Y-59534000D02*
X161596323Y-62514000D01*
X163716323Y-57063000D02*
X163716323Y-59523000D01*
X160036323Y-59534000D02*
X160036323Y-63211000D01*
X162156323Y-54504000D02*
X162156323Y-57052000D01*
X160876323Y-53672000D02*
X160876323Y-57052000D01*
X159956323Y-53355000D02*
X159956323Y-63231000D01*
X162916323Y-55348000D02*
X162916323Y-61238000D01*
X161276323Y-53876000D02*
X161276323Y-57052000D01*
X160116323Y-59534000D02*
X160116323Y-63190000D01*
X160476323Y-53510000D02*
X160476323Y-57052000D01*
X161356323Y-53922000D02*
X161356323Y-57052000D01*
X159355323Y-53248000D02*
X159355323Y-63338000D01*
X160756323Y-59534000D02*
X160756323Y-62967000D01*
X161476323Y-53995000D02*
X161476323Y-57052000D01*
X162356323Y-54692000D02*
X162356323Y-57052000D01*
X162796323Y-55187000D02*
X162796323Y-61399000D01*
X160436323Y-59534000D02*
X160436323Y-63090000D01*
X162716323Y-55087000D02*
X162716323Y-61499000D01*
X161996323Y-59534000D02*
X161996323Y-62218000D01*
X161836323Y-54243000D02*
X161836323Y-57052000D01*
X160676323Y-59534000D02*
X160676323Y-63000000D01*
X162276323Y-54614000D02*
X162276323Y-57052000D01*
X160516323Y-53525000D02*
X160516323Y-57052000D01*
X161676323Y-54127000D02*
X161676323Y-57052000D01*
X161116323Y-59534000D02*
X161116323Y-62797000D01*
X162836323Y-55239000D02*
X162836323Y-61347000D01*
X162956323Y-55404000D02*
X162956323Y-61182000D01*
X160036323Y-53375000D02*
X160036323Y-57052000D01*
X158835323Y-53213000D02*
X158835323Y-63373000D01*
X162276323Y-59534000D02*
X162276323Y-61972000D01*
X162076323Y-59534000D02*
X162076323Y-62151000D01*
X160076323Y-53386000D02*
X160076323Y-57052000D01*
X160636323Y-59534000D02*
X160636323Y-63016000D01*
X158915323Y-53215000D02*
X158915323Y-63371000D01*
X163836323Y-57694000D02*
X163836323Y-58892000D01*
X163756323Y-57231000D02*
X163756323Y-59355000D01*
X158795323Y-53213000D02*
X158795323Y-63373000D01*
X160476323Y-59534000D02*
X160476323Y-63076000D01*
X160396323Y-59534000D02*
X160396323Y-63104000D01*
X160796323Y-53636000D02*
X160796323Y-57052000D01*
X159676323Y-53296000D02*
X159676323Y-63290000D01*
X160836323Y-59534000D02*
X160836323Y-62932000D01*
X161236323Y-59534000D02*
X161236323Y-62733000D01*
X161356323Y-59534000D02*
X161356323Y-62664000D01*
X162036323Y-59534000D02*
X162036323Y-62185000D01*
X161036323Y-53748000D02*
X161036323Y-57052000D01*
X153275677Y-55418000D02*
X154275677Y-55418000D01*
X159756323Y-53311000D02*
X159756323Y-63275000D01*
X162876323Y-55293000D02*
X162876323Y-61293000D01*
X161316323Y-53898000D02*
X161316323Y-57052000D01*
X159996323Y-53365000D02*
X159996323Y-63221000D01*
X162356323Y-59534000D02*
X162356323Y-61894000D01*
X161396323Y-59534000D02*
X161396323Y-62640000D01*
X161756323Y-54183000D02*
X161756323Y-57052000D01*
X161556323Y-54046000D02*
X161556323Y-57052000D01*
X160516323Y-59534000D02*
X160516323Y-63061000D01*
X160876323Y-59534000D02*
X160876323Y-62914000D01*
X162316323Y-54653000D02*
X162316323Y-57052000D01*
X161636323Y-59534000D02*
X161636323Y-62487000D01*
X161596323Y-54072000D02*
X161596323Y-57052000D01*
X161396323Y-53946000D02*
X161396323Y-57052000D01*
X162436323Y-54773000D02*
X162436323Y-57052000D01*
X161276323Y-59534000D02*
X161276323Y-62710000D01*
X161716323Y-59534000D02*
X161716323Y-62431000D01*
X161436323Y-53970000D02*
X161436323Y-57052000D01*
X160076323Y-59534000D02*
X160076323Y-63200000D01*
X163116323Y-55648000D02*
X163116323Y-60938000D01*
X160556323Y-53539000D02*
X160556323Y-57052000D01*
X160356323Y-59534000D02*
X160356323Y-63117000D01*
X159115323Y-53225000D02*
X159115323Y-63361000D01*
X159435323Y-53258000D02*
X159435323Y-63328000D01*
X160236323Y-53431000D02*
X160236323Y-57052000D01*
X161636323Y-54099000D02*
X161636323Y-57052000D01*
X161756323Y-59534000D02*
X161756323Y-62403000D01*
X161196323Y-53831000D02*
X161196323Y-57052000D01*
X162236323Y-59534000D02*
X162236323Y-62009000D01*
X163076323Y-55584000D02*
X163076323Y-61002000D01*
X158875323Y-53214000D02*
X158875323Y-63372000D01*
X160316323Y-53456000D02*
X160316323Y-57052000D01*
X160276323Y-53443000D02*
X160276323Y-57052000D01*
X163556323Y-56551000D02*
X163556323Y-60035000D01*
X162036323Y-54401000D02*
X162036323Y-57052000D01*
X163276323Y-55928000D02*
X163276323Y-60658000D01*
X163236323Y-55854000D02*
X163236323Y-60732000D01*
X158955323Y-53216000D02*
X158955323Y-63370000D01*
X162116323Y-59534000D02*
X162116323Y-62117000D01*
X162156323Y-59534000D02*
X162156323Y-62082000D01*
X160316323Y-59534000D02*
X160316323Y-63130000D01*
X161436323Y-59534000D02*
X161436323Y-62616000D01*
X162556323Y-54901000D02*
X162556323Y-61685000D01*
X160956323Y-53709000D02*
X160956323Y-57052000D01*
X162676323Y-55039000D02*
X162676323Y-61547000D01*
X159235323Y-53235000D02*
X159235323Y-63351000D01*
X161676323Y-59534000D02*
X161676323Y-62459000D01*
X162196323Y-59534000D02*
X162196323Y-62046000D01*
X159876323Y-53337000D02*
X159876323Y-63249000D01*
X160356323Y-53469000D02*
X160356323Y-57052000D01*
X158995323Y-53218000D02*
X158995323Y-63368000D01*
X160996323Y-59534000D02*
X160996323Y-62857000D01*
X161916323Y-59534000D02*
X161916323Y-62282000D01*
X159035323Y-53220000D02*
X159035323Y-63366000D01*
X163356323Y-56084000D02*
X163356323Y-60502000D01*
X161156323Y-53810000D02*
X161156323Y-57052000D01*
X163636323Y-56783000D02*
X163636323Y-59803000D01*
X162476323Y-54815000D02*
X162476323Y-57052000D01*
X160596323Y-53555000D02*
X160596323Y-57052000D01*
X163596323Y-56663000D02*
X163596323Y-59923000D01*
X161036323Y-59534000D02*
X161036323Y-62838000D01*
X163316323Y-56004000D02*
X163316323Y-60582000D01*
X160556323Y-59534000D02*
X160556323Y-63047000D01*
X163396323Y-56168000D02*
X163396323Y-60418000D01*
X160156323Y-53408000D02*
X160156323Y-57052000D01*
X160436323Y-53496000D02*
X160436323Y-57052000D01*
X163476323Y-56349000D02*
X163476323Y-60237000D01*
X161516323Y-59534000D02*
X161516323Y-62566000D01*
X162476323Y-59534000D02*
X162476323Y-61771000D01*
X161556323Y-59534000D02*
X161556323Y-62540000D01*
X160796323Y-59534000D02*
X160796323Y-62950000D01*
X160156323Y-59534000D02*
X160156323Y-63178000D01*
X162396323Y-54732000D02*
X162396323Y-57052000D01*
X163875323Y-58293000D02*
G75*
G03*
X163875323Y-58293000I-5120000J0D01*
G01*
%LPC*%
D15*
X79756000Y-46863000D03*
D16*
X138200000Y-75062500D03*
X138200000Y-71062500D03*
D17*
X88621000Y-77254000D03*
D18*
X88621000Y-74714000D03*
X88621000Y-72174000D03*
D19*
X171400000Y-86800000D03*
X174800000Y-86800000D03*
D20*
X142817000Y-71959000D03*
X144519000Y-71959000D03*
X146221000Y-71959000D03*
X147923000Y-71959000D03*
X149625000Y-71959000D03*
D21*
X146221000Y-61654000D03*
D19*
X129139000Y-85254000D03*
X125739000Y-85254000D03*
D17*
X88621000Y-86904000D03*
D18*
X88621000Y-84364000D03*
X88621000Y-81824000D03*
D22*
X128270000Y-71120000D03*
X126620000Y-71120000D03*
D23*
X156333500Y-72354000D03*
X160333500Y-72354000D03*
D24*
X160396000Y-78316500D03*
X158496000Y-78316500D03*
X159446000Y-80191500D03*
D25*
X169921000Y-75754000D03*
D26*
X174421000Y-75754000D03*
D27*
X174421000Y-81254000D03*
X168221000Y-81254000D03*
X174421000Y-70254000D03*
X168221000Y-70254000D03*
D28*
X136904000Y-62946000D03*
X135354000Y-62946000D03*
D29*
X135329000Y-67746000D03*
X136979000Y-67746000D03*
D17*
X80721000Y-77254000D03*
D18*
X80721000Y-74714000D03*
X80721000Y-72174000D03*
D30*
X160471000Y-68154000D03*
X160471000Y-66504000D03*
D22*
X137000000Y-65600000D03*
X135350000Y-65600000D03*
D31*
X129400000Y-49200000D03*
D32*
X129400000Y-56700000D03*
D33*
X96197000Y-75894000D03*
X96197000Y-78434000D03*
X96197000Y-80974000D03*
X96197000Y-83514000D03*
X96197000Y-86054000D03*
X96197000Y-88594000D03*
X96197000Y-91134000D03*
X96197000Y-93674000D03*
X119057000Y-75894000D03*
X119057000Y-78434000D03*
X119057000Y-80974000D03*
X119057000Y-83514000D03*
X119057000Y-86054000D03*
X119057000Y-88594000D03*
X119057000Y-91134000D03*
X119057000Y-93674000D03*
D34*
X164221000Y-88854000D03*
D35*
X157021000Y-88854000D03*
D36*
X132000000Y-74200000D03*
X130125000Y-74200000D03*
D37*
X122821000Y-85204000D03*
X122821000Y-86854000D03*
D15*
X175768000Y-46609000D03*
D38*
X123037500Y-71120000D03*
X124612500Y-71120000D03*
D17*
X88621000Y-67604000D03*
D18*
X88621000Y-65064000D03*
X88621000Y-62524000D03*
D17*
X80721000Y-86904000D03*
D18*
X80721000Y-84364000D03*
X80721000Y-81824000D03*
D15*
X175641000Y-95377000D03*
D39*
X132821000Y-92404000D03*
D33*
X132821000Y-89864000D03*
X132821000Y-87324000D03*
X132821000Y-84784000D03*
X132821000Y-82244000D03*
X132821000Y-79704000D03*
D37*
X177600000Y-86800000D03*
X177600000Y-88450000D03*
D17*
X80721000Y-67604000D03*
D18*
X80721000Y-65064000D03*
X80721000Y-62524000D03*
D40*
X148037000Y-84902000D03*
X138287000Y-84902000D03*
D15*
X79756000Y-94869000D03*
D41*
X156255323Y-58293000D03*
D42*
X161255323Y-58293000D03*
M02*
