M48
; DRILL file {KiCad (6.0.1)} date Sat Apr 16 00:13:52 2022
; FORMAT={-:-/ absolute / metric / decimal}
; #@! TF.CreationDate,2022-04-16T00:13:52-07:00
; #@! TF.GenerationSoftware,Kicad,Pcbnew,(6.0.1)
; #@! TF.FileFunction,Plated,1,2,PTH
FMAT,2
METRIC
; #@! TA.AperFunction,Plated,PTH,ViaDrill
T1C0.400
; #@! TA.AperFunction,Plated,PTH,ComponentDrill
T2C0.800
; #@! TA.AperFunction,Plated,PTH,ComponentDrill
T3C1.000
; #@! TA.AperFunction,Plated,PTH,ComponentDrill
T4C1.020
; #@! TA.AperFunction,Plated,PTH,ComponentDrill
T5C1.200
; #@! TA.AperFunction,Plated,PTH,ComponentDrill
T6C4.500
%
G90
G05
T1
X122.5Y-74.0
X122.5Y-75.4
X122.5Y-76.8
X123.75Y-74.0
X123.75Y-75.4
X123.75Y-76.8
X124.333Y-94.488
X125.0Y-74.0
X125.0Y-75.4
X125.0Y-76.8
X126.25Y-74.0
X126.25Y-75.4
X126.25Y-76.8
X127.5Y-74.0
X127.5Y-75.4
X127.5Y-76.8
X128.6Y-74.0
X128.6Y-75.4
X128.6Y-76.8
T2
X125.739Y-85.254
X129.139Y-85.254
X171.4Y-86.8
X174.8Y-86.8
T3
X96.197Y-75.894
X96.197Y-78.434
X96.197Y-80.974
X96.197Y-83.514
X96.197Y-86.054
X96.197Y-88.594
X96.197Y-91.134
X96.197Y-93.674
X119.057Y-75.894
X119.057Y-78.434
X119.057Y-80.974
X119.057Y-83.514
X119.057Y-86.054
X119.057Y-88.594
X119.057Y-91.134
X119.057Y-93.674
X132.821Y-79.704
X132.821Y-82.244
X132.821Y-84.784
X132.821Y-87.324
X132.821Y-89.864
X132.821Y-92.404
X156.255Y-58.293
X161.255Y-58.293
T4
X80.721Y-62.524
X80.721Y-65.064
X80.721Y-67.604
X80.721Y-72.174
X80.721Y-74.714
X80.721Y-77.254
X80.721Y-81.824
X80.721Y-84.364
X80.721Y-86.904
X88.621Y-62.524
X88.621Y-65.064
X88.621Y-67.604
X88.621Y-72.174
X88.621Y-74.714
X88.621Y-77.254
X88.621Y-81.824
X88.621Y-84.364
X88.621Y-86.904
T5
X129.4Y-49.2
X129.4Y-56.7
T6
X157.021Y-88.854
X164.221Y-88.854
T0
M30
