G04 #@! TF.GenerationSoftware,KiCad,Pcbnew,(6.0.1)*
G04 #@! TF.CreationDate,2022-04-16T00:13:44-07:00*
G04 #@! TF.ProjectId,AnimatronicEyes,416e696d-6174-4726-9f6e-696345796573,rev?*
G04 #@! TF.SameCoordinates,Original*
G04 #@! TF.FileFunction,Copper,L2,Bot*
G04 #@! TF.FilePolarity,Positive*
%FSLAX46Y46*%
G04 Gerber Fmt 4.6, Leading zero omitted, Abs format (unit mm)*
G04 Created by KiCad (PCBNEW (6.0.1)) date 2022-04-16 00:13:44*
%MOMM*%
%LPD*%
G01*
G04 APERTURE LIST*
G04 #@! TA.AperFunction,ComponentPad*
%ADD10R,2.030000X1.730000*%
G04 #@! TD*
G04 #@! TA.AperFunction,ComponentPad*
%ADD11O,2.030000X1.730000*%
G04 #@! TD*
G04 #@! TA.AperFunction,ComponentPad*
%ADD12C,1.500000*%
G04 #@! TD*
G04 #@! TA.AperFunction,ComponentPad*
%ADD13R,2.400000X2.400000*%
G04 #@! TD*
G04 #@! TA.AperFunction,ComponentPad*
%ADD14C,2.400000*%
G04 #@! TD*
G04 #@! TA.AperFunction,ComponentPad*
%ADD15O,1.700000X1.700000*%
G04 #@! TD*
G04 #@! TA.AperFunction,ComponentPad*
%ADD16R,5.516000X5.516000*%
G04 #@! TD*
G04 #@! TA.AperFunction,ComponentPad*
%ADD17C,5.516000*%
G04 #@! TD*
G04 #@! TA.AperFunction,ComponentPad*
%ADD18R,1.700000X1.700000*%
G04 #@! TD*
G04 #@! TA.AperFunction,ComponentPad*
%ADD19R,2.000000X2.000000*%
G04 #@! TD*
G04 #@! TA.AperFunction,ComponentPad*
%ADD20C,2.000000*%
G04 #@! TD*
G04 #@! TA.AperFunction,ViaPad*
%ADD21C,0.800000*%
G04 #@! TD*
G04 #@! TA.AperFunction,Conductor*
%ADD22C,0.250000*%
G04 #@! TD*
G04 APERTURE END LIST*
D10*
X88621000Y-77254000D03*
D11*
X88621000Y-74714000D03*
X88621000Y-72174000D03*
D12*
X171400000Y-86800000D03*
X174800000Y-86800000D03*
X129139000Y-85254000D03*
X125739000Y-85254000D03*
D10*
X88621000Y-86904000D03*
D11*
X88621000Y-84364000D03*
X88621000Y-81824000D03*
D10*
X80721000Y-77254000D03*
D11*
X80721000Y-74714000D03*
X80721000Y-72174000D03*
D13*
X129400000Y-49200000D03*
D14*
X129400000Y-56700000D03*
D15*
X96197000Y-75894000D03*
X96197000Y-78434000D03*
X96197000Y-80974000D03*
X96197000Y-83514000D03*
X96197000Y-86054000D03*
X96197000Y-88594000D03*
X96197000Y-91134000D03*
X96197000Y-93674000D03*
X119057000Y-75894000D03*
X119057000Y-78434000D03*
X119057000Y-80974000D03*
X119057000Y-83514000D03*
X119057000Y-86054000D03*
X119057000Y-88594000D03*
X119057000Y-91134000D03*
X119057000Y-93674000D03*
D16*
X164221000Y-88854000D03*
D17*
X157021000Y-88854000D03*
D10*
X88621000Y-67604000D03*
D11*
X88621000Y-65064000D03*
X88621000Y-62524000D03*
D10*
X80721000Y-86904000D03*
D11*
X80721000Y-84364000D03*
X80721000Y-81824000D03*
D18*
X132821000Y-92404000D03*
D15*
X132821000Y-89864000D03*
X132821000Y-87324000D03*
X132821000Y-84784000D03*
X132821000Y-82244000D03*
X132821000Y-79704000D03*
D10*
X80721000Y-67604000D03*
D11*
X80721000Y-65064000D03*
X80721000Y-62524000D03*
D19*
X156255323Y-58293000D03*
D20*
X161255323Y-58293000D03*
D21*
X122500000Y-74000000D03*
X127500000Y-75400000D03*
X128600000Y-76800000D03*
X122500000Y-76800000D03*
X122500000Y-75400000D03*
X123750000Y-75400000D03*
X127500000Y-76800000D03*
X125000000Y-74000000D03*
X123750000Y-74000000D03*
X128600000Y-74000000D03*
X125000000Y-75400000D03*
X126250000Y-76800000D03*
X123750000Y-76800000D03*
X125000000Y-76800000D03*
X126250000Y-74000000D03*
X128600000Y-75400000D03*
X126250000Y-75400000D03*
X127500000Y-74000000D03*
X124333000Y-94488000D03*
D22*
X124333000Y-94488000D02*
X120979000Y-91134000D01*
X120979000Y-91134000D02*
X119057000Y-91134000D01*
G04 #@! TA.AperFunction,Conductor*
G36*
X176570056Y-39109500D02*
G01*
X176571496Y-39109724D01*
X176584858Y-39111805D01*
X176584861Y-39111805D01*
X176593730Y-39113186D01*
X176602631Y-39112022D01*
X176602637Y-39112022D01*
X176616192Y-39110249D01*
X176636831Y-39109258D01*
X177134281Y-39126252D01*
X177142864Y-39126840D01*
X177523644Y-39165985D01*
X177670344Y-39181067D01*
X177678853Y-39182236D01*
X178189892Y-39270347D01*
X178201441Y-39272338D01*
X178209863Y-39274089D01*
X178432557Y-39328358D01*
X178725050Y-39399637D01*
X178733334Y-39401958D01*
X179238764Y-39562374D01*
X179246870Y-39565255D01*
X179740182Y-39759791D01*
X179748063Y-39763214D01*
X180219828Y-39987576D01*
X180226943Y-39990960D01*
X180234582Y-39994918D01*
X180696803Y-40254811D01*
X180704148Y-40259277D01*
X181147565Y-40550116D01*
X181154576Y-40555063D01*
X181577119Y-40875487D01*
X181583793Y-40880917D01*
X181983476Y-41229424D01*
X181989763Y-41235297D01*
X182364703Y-41610237D01*
X182370576Y-41616524D01*
X182719083Y-42016207D01*
X182724513Y-42022881D01*
X183044930Y-42445415D01*
X183049884Y-42452435D01*
X183340719Y-42895846D01*
X183345189Y-42903197D01*
X183605082Y-43365418D01*
X183609040Y-43373057D01*
X183836781Y-43851926D01*
X183840209Y-43859818D01*
X184034745Y-44353130D01*
X184037626Y-44361236D01*
X184198042Y-44866666D01*
X184200363Y-44874950D01*
X184322993Y-45378159D01*
X184325911Y-45390135D01*
X184327662Y-45398559D01*
X184411233Y-45883261D01*
X184417763Y-45921137D01*
X184418933Y-45929656D01*
X184422746Y-45966739D01*
X184473160Y-46457136D01*
X184473748Y-46465719D01*
X184490484Y-46955636D01*
X184489057Y-46979320D01*
X184488705Y-46981584D01*
X184486814Y-46993730D01*
X184487978Y-47002632D01*
X184487978Y-47002635D01*
X184490936Y-47025251D01*
X184492000Y-47041589D01*
X184492000Y-94950672D01*
X184490500Y-94970056D01*
X184486814Y-94993730D01*
X184487978Y-95002631D01*
X184487978Y-95002637D01*
X184489751Y-95016192D01*
X184490742Y-95036831D01*
X184473748Y-95534281D01*
X184473160Y-95542864D01*
X184418934Y-96070339D01*
X184417764Y-96078853D01*
X184357687Y-96427298D01*
X184327662Y-96601441D01*
X184325911Y-96609865D01*
X184200363Y-97125050D01*
X184198042Y-97133334D01*
X184037626Y-97638764D01*
X184034745Y-97646870D01*
X183840209Y-98140182D01*
X183836781Y-98148074D01*
X183609040Y-98626943D01*
X183605082Y-98634582D01*
X183345189Y-99096803D01*
X183340723Y-99104148D01*
X183109690Y-99456386D01*
X183049891Y-99547556D01*
X183044930Y-99554585D01*
X182724513Y-99977119D01*
X182719083Y-99983793D01*
X182370576Y-100383476D01*
X182364703Y-100389763D01*
X181989763Y-100764703D01*
X181983476Y-100770576D01*
X181583793Y-101119083D01*
X181577123Y-101124510D01*
X181154576Y-101444937D01*
X181147565Y-101449884D01*
X180764745Y-101700977D01*
X180704154Y-101740719D01*
X180696803Y-101745189D01*
X180234582Y-102005082D01*
X180226943Y-102009040D01*
X179748063Y-102236786D01*
X179740182Y-102240209D01*
X179246870Y-102434745D01*
X179238764Y-102437626D01*
X178733334Y-102598042D01*
X178725050Y-102600363D01*
X178239509Y-102718687D01*
X178209865Y-102725911D01*
X178201441Y-102727662D01*
X177678853Y-102817764D01*
X177670344Y-102818933D01*
X177523644Y-102834015D01*
X177142864Y-102873160D01*
X177134281Y-102873748D01*
X176644364Y-102890484D01*
X176620680Y-102889057D01*
X176615146Y-102888196D01*
X176606270Y-102886814D01*
X176597368Y-102887978D01*
X176597365Y-102887978D01*
X176574749Y-102890936D01*
X176558411Y-102892000D01*
X80049328Y-102892000D01*
X80029943Y-102890500D01*
X80029841Y-102890484D01*
X80025133Y-102889751D01*
X80015142Y-102888195D01*
X80015139Y-102888195D01*
X80006270Y-102886814D01*
X79997369Y-102887978D01*
X79997363Y-102887978D01*
X79983808Y-102889751D01*
X79963169Y-102890742D01*
X79465719Y-102873748D01*
X79457136Y-102873160D01*
X79076356Y-102834015D01*
X78929656Y-102818933D01*
X78921147Y-102817764D01*
X78398559Y-102727662D01*
X78390135Y-102725911D01*
X78360492Y-102718687D01*
X77874950Y-102600363D01*
X77866666Y-102598042D01*
X77361236Y-102437626D01*
X77353130Y-102434745D01*
X76859818Y-102240209D01*
X76851937Y-102236786D01*
X76373057Y-102009040D01*
X76365418Y-102005082D01*
X75903197Y-101745189D01*
X75895846Y-101740719D01*
X75835255Y-101700977D01*
X75452435Y-101449884D01*
X75445424Y-101444937D01*
X75022877Y-101124510D01*
X75016207Y-101119083D01*
X74616524Y-100770576D01*
X74610237Y-100764703D01*
X74235297Y-100389763D01*
X74229424Y-100383476D01*
X73880917Y-99983793D01*
X73875487Y-99977119D01*
X73555070Y-99554585D01*
X73550109Y-99547556D01*
X73490311Y-99456386D01*
X73259277Y-99104148D01*
X73254811Y-99096803D01*
X72994918Y-98634582D01*
X72990960Y-98626943D01*
X72763219Y-98148074D01*
X72759791Y-98140182D01*
X72565255Y-97646870D01*
X72562374Y-97638764D01*
X72401958Y-97133334D01*
X72399637Y-97125050D01*
X72274089Y-96609865D01*
X72272338Y-96601441D01*
X72242313Y-96427298D01*
X72182236Y-96078853D01*
X72181066Y-96070339D01*
X72126840Y-95542864D01*
X72126252Y-95534281D01*
X72114015Y-95176079D01*
X72109645Y-95048159D01*
X72111319Y-95022953D01*
X72112264Y-95017337D01*
X72112264Y-95017334D01*
X72113071Y-95012539D01*
X72113224Y-95000000D01*
X72109273Y-94972412D01*
X72108000Y-94954549D01*
X72108000Y-94923568D01*
X78193382Y-94923568D01*
X78193963Y-94928588D01*
X78193963Y-94928592D01*
X78202226Y-95000000D01*
X78222208Y-95172699D01*
X78223587Y-95177573D01*
X78223588Y-95177577D01*
X78274690Y-95358166D01*
X78290494Y-95414017D01*
X78292628Y-95418592D01*
X78292630Y-95418599D01*
X78369256Y-95582923D01*
X78396484Y-95641313D01*
X78399326Y-95645494D01*
X78399326Y-95645495D01*
X78534605Y-95844552D01*
X78534608Y-95844556D01*
X78537451Y-95848739D01*
X78540928Y-95852416D01*
X78540929Y-95852417D01*
X78641238Y-95958491D01*
X78709767Y-96030959D01*
X78713793Y-96034037D01*
X78713794Y-96034038D01*
X78904981Y-96180212D01*
X78904985Y-96180215D01*
X78909001Y-96183285D01*
X79130026Y-96301797D01*
X79134807Y-96303443D01*
X79134811Y-96303445D01*
X79360538Y-96381169D01*
X79367156Y-96383448D01*
X79470689Y-96401331D01*
X79610380Y-96425460D01*
X79610386Y-96425461D01*
X79614290Y-96426135D01*
X79618251Y-96426315D01*
X79618252Y-96426315D01*
X79642931Y-96427436D01*
X79642950Y-96427436D01*
X79644350Y-96427500D01*
X79819015Y-96427500D01*
X79821523Y-96427298D01*
X79821528Y-96427298D01*
X80000944Y-96412863D01*
X80000949Y-96412862D01*
X80005985Y-96412457D01*
X80010893Y-96411252D01*
X80010896Y-96411251D01*
X80244625Y-96353841D01*
X80249539Y-96352634D01*
X80254191Y-96350659D01*
X80254195Y-96350658D01*
X80475741Y-96256617D01*
X80475742Y-96256617D01*
X80480396Y-96254641D01*
X80692615Y-96121000D01*
X80880738Y-95955147D01*
X81039924Y-95761351D01*
X81166078Y-95544596D01*
X81209466Y-95431568D01*
X174078382Y-95431568D01*
X174078963Y-95436588D01*
X174078963Y-95436592D01*
X174090763Y-95538569D01*
X174107208Y-95680699D01*
X174108587Y-95685573D01*
X174108588Y-95685577D01*
X174154758Y-95848739D01*
X174175494Y-95922017D01*
X174177628Y-95926592D01*
X174177630Y-95926599D01*
X174279347Y-96144731D01*
X174281484Y-96149313D01*
X174284326Y-96153494D01*
X174284326Y-96153495D01*
X174419605Y-96352552D01*
X174419608Y-96352556D01*
X174422451Y-96356739D01*
X174425928Y-96360416D01*
X174425929Y-96360417D01*
X174526238Y-96466491D01*
X174594767Y-96538959D01*
X174598793Y-96542037D01*
X174598794Y-96542038D01*
X174789981Y-96688212D01*
X174789985Y-96688215D01*
X174794001Y-96691285D01*
X175015026Y-96809797D01*
X175019807Y-96811443D01*
X175019811Y-96811445D01*
X175245538Y-96889169D01*
X175252156Y-96891448D01*
X175355689Y-96909331D01*
X175495380Y-96933460D01*
X175495386Y-96933461D01*
X175499290Y-96934135D01*
X175503251Y-96934315D01*
X175503252Y-96934315D01*
X175527931Y-96935436D01*
X175527950Y-96935436D01*
X175529350Y-96935500D01*
X175704015Y-96935500D01*
X175706523Y-96935298D01*
X175706528Y-96935298D01*
X175885944Y-96920863D01*
X175885949Y-96920862D01*
X175890985Y-96920457D01*
X175895893Y-96919252D01*
X175895896Y-96919251D01*
X176129625Y-96861841D01*
X176134539Y-96860634D01*
X176139191Y-96858659D01*
X176139195Y-96858658D01*
X176360741Y-96764617D01*
X176360742Y-96764617D01*
X176365396Y-96762641D01*
X176577615Y-96629000D01*
X176765738Y-96463147D01*
X176924924Y-96269351D01*
X177051078Y-96052596D01*
X177060797Y-96027279D01*
X177139143Y-95823181D01*
X177140955Y-95818461D01*
X177153800Y-95756979D01*
X177191206Y-95577921D01*
X177192241Y-95572967D01*
X177193530Y-95544596D01*
X177198662Y-95431568D01*
X177203618Y-95322432D01*
X177198607Y-95279118D01*
X177175374Y-95078334D01*
X177174792Y-95073301D01*
X177171004Y-95059912D01*
X177107884Y-94836852D01*
X177107883Y-94836850D01*
X177106506Y-94831983D01*
X177104372Y-94827408D01*
X177104370Y-94827401D01*
X177002653Y-94609269D01*
X177002651Y-94609265D01*
X177000516Y-94604687D01*
X176973749Y-94565301D01*
X176862395Y-94401448D01*
X176862392Y-94401444D01*
X176859549Y-94397261D01*
X176758925Y-94290853D01*
X176690713Y-94218721D01*
X176687233Y-94215041D01*
X176641994Y-94180453D01*
X176492019Y-94065788D01*
X176492015Y-94065785D01*
X176487999Y-94062715D01*
X176266974Y-93944203D01*
X176262193Y-93942557D01*
X176262189Y-93942555D01*
X176034633Y-93864201D01*
X176029844Y-93862552D01*
X175926311Y-93844669D01*
X175786620Y-93820540D01*
X175786614Y-93820539D01*
X175782710Y-93819865D01*
X175778749Y-93819685D01*
X175778748Y-93819685D01*
X175754069Y-93818564D01*
X175754050Y-93818564D01*
X175752650Y-93818500D01*
X175577985Y-93818500D01*
X175575477Y-93818702D01*
X175575472Y-93818702D01*
X175396056Y-93833137D01*
X175396051Y-93833138D01*
X175391015Y-93833543D01*
X175386107Y-93834748D01*
X175386104Y-93834749D01*
X175179147Y-93885583D01*
X175147461Y-93893366D01*
X175142809Y-93895341D01*
X175142805Y-93895342D01*
X174940959Y-93981021D01*
X174916604Y-93991359D01*
X174704385Y-94125000D01*
X174516262Y-94290853D01*
X174357076Y-94484649D01*
X174230922Y-94701404D01*
X174229109Y-94706127D01*
X174229108Y-94706129D01*
X174197939Y-94787327D01*
X174141045Y-94935539D01*
X174140012Y-94940485D01*
X174140010Y-94940491D01*
X174123865Y-95017775D01*
X174089759Y-95181033D01*
X174078382Y-95431568D01*
X81209466Y-95431568D01*
X81255955Y-95310461D01*
X81285954Y-95166866D01*
X81300510Y-95097186D01*
X81307241Y-95064967D01*
X81308577Y-95035564D01*
X81313662Y-94923568D01*
X81318618Y-94814432D01*
X81306712Y-94711529D01*
X81299736Y-94651240D01*
X81289792Y-94565301D01*
X81287582Y-94557489D01*
X81222884Y-94328852D01*
X81222883Y-94328850D01*
X81221506Y-94323983D01*
X81219372Y-94319408D01*
X81219370Y-94319401D01*
X81117653Y-94101269D01*
X81117651Y-94101265D01*
X81115516Y-94096687D01*
X81042592Y-93989383D01*
X80977395Y-93893448D01*
X80977392Y-93893444D01*
X80974549Y-93889261D01*
X80950392Y-93863715D01*
X80805713Y-93710721D01*
X80802233Y-93707041D01*
X80794022Y-93700763D01*
X80715457Y-93640695D01*
X94834251Y-93640695D01*
X94834548Y-93645848D01*
X94834548Y-93645851D01*
X94840934Y-93756598D01*
X94847110Y-93863715D01*
X94848247Y-93868761D01*
X94848248Y-93868767D01*
X94865249Y-93944203D01*
X94896222Y-94081639D01*
X94980266Y-94288616D01*
X94999131Y-94319401D01*
X95046844Y-94397261D01*
X95096987Y-94479088D01*
X95243250Y-94647938D01*
X95415126Y-94790632D01*
X95608000Y-94903338D01*
X95816692Y-94983030D01*
X95821760Y-94984061D01*
X95821763Y-94984062D01*
X95913063Y-95002637D01*
X96035597Y-95027567D01*
X96040772Y-95027757D01*
X96040774Y-95027757D01*
X96253673Y-95035564D01*
X96253677Y-95035564D01*
X96258837Y-95035753D01*
X96263957Y-95035097D01*
X96263959Y-95035097D01*
X96475288Y-95008025D01*
X96475289Y-95008025D01*
X96480416Y-95007368D01*
X96521024Y-94995185D01*
X96689429Y-94944661D01*
X96689434Y-94944659D01*
X96694384Y-94943174D01*
X96894994Y-94844896D01*
X97076860Y-94715173D01*
X97107936Y-94684206D01*
X97222206Y-94570334D01*
X97235096Y-94557489D01*
X97294594Y-94474689D01*
X97362435Y-94380277D01*
X97365453Y-94376077D01*
X97391200Y-94323983D01*
X97462136Y-94180453D01*
X97462137Y-94180451D01*
X97464430Y-94175811D01*
X97529370Y-93962069D01*
X97558529Y-93740590D01*
X97560156Y-93674000D01*
X97557418Y-93640695D01*
X117694251Y-93640695D01*
X117694548Y-93645848D01*
X117694548Y-93645851D01*
X117700934Y-93756598D01*
X117707110Y-93863715D01*
X117708247Y-93868761D01*
X117708248Y-93868767D01*
X117725249Y-93944203D01*
X117756222Y-94081639D01*
X117840266Y-94288616D01*
X117859131Y-94319401D01*
X117906844Y-94397261D01*
X117956987Y-94479088D01*
X118103250Y-94647938D01*
X118275126Y-94790632D01*
X118468000Y-94903338D01*
X118676692Y-94983030D01*
X118681760Y-94984061D01*
X118681763Y-94984062D01*
X118773063Y-95002637D01*
X118895597Y-95027567D01*
X118900772Y-95027757D01*
X118900774Y-95027757D01*
X119113673Y-95035564D01*
X119113677Y-95035564D01*
X119118837Y-95035753D01*
X119123957Y-95035097D01*
X119123959Y-95035097D01*
X119335288Y-95008025D01*
X119335289Y-95008025D01*
X119340416Y-95007368D01*
X119381024Y-94995185D01*
X119549429Y-94944661D01*
X119549434Y-94944659D01*
X119554384Y-94943174D01*
X119754994Y-94844896D01*
X119936860Y-94715173D01*
X119967936Y-94684206D01*
X120082206Y-94570334D01*
X120095096Y-94557489D01*
X120154594Y-94474689D01*
X120222435Y-94380277D01*
X120225453Y-94376077D01*
X120251200Y-94323983D01*
X120322136Y-94180453D01*
X120322137Y-94180451D01*
X120324430Y-94175811D01*
X120389370Y-93962069D01*
X120418529Y-93740590D01*
X120420156Y-93674000D01*
X120401852Y-93451361D01*
X120347431Y-93234702D01*
X120258354Y-93029840D01*
X120137014Y-92842277D01*
X119986670Y-92677051D01*
X119982619Y-92673852D01*
X119982615Y-92673848D01*
X119815414Y-92541800D01*
X119815410Y-92541798D01*
X119811359Y-92538598D01*
X119770053Y-92515796D01*
X119720084Y-92465364D01*
X119705312Y-92395921D01*
X119730428Y-92329516D01*
X119757780Y-92302909D01*
X119801603Y-92271650D01*
X119936860Y-92175173D01*
X119991180Y-92121043D01*
X120091435Y-92021137D01*
X120095096Y-92017489D01*
X120154594Y-91934689D01*
X120222435Y-91840277D01*
X120225453Y-91836077D01*
X120227746Y-91831437D01*
X120229446Y-91828608D01*
X120281674Y-91780518D01*
X120337451Y-91767500D01*
X120664406Y-91767500D01*
X120732527Y-91787502D01*
X120753501Y-91804405D01*
X123385878Y-94436782D01*
X123419904Y-94499094D01*
X123422092Y-94512703D01*
X123439458Y-94677928D01*
X123498473Y-94859556D01*
X123593960Y-95024944D01*
X123598378Y-95029851D01*
X123598379Y-95029852D01*
X123717325Y-95161955D01*
X123721747Y-95166866D01*
X123876248Y-95279118D01*
X123882276Y-95281802D01*
X123882278Y-95281803D01*
X124044681Y-95354109D01*
X124050712Y-95356794D01*
X124144113Y-95376647D01*
X124231056Y-95395128D01*
X124231061Y-95395128D01*
X124237513Y-95396500D01*
X124428487Y-95396500D01*
X124434939Y-95395128D01*
X124434944Y-95395128D01*
X124521887Y-95376647D01*
X124615288Y-95356794D01*
X124621319Y-95354109D01*
X124783722Y-95281803D01*
X124783724Y-95281802D01*
X124789752Y-95279118D01*
X124944253Y-95166866D01*
X124948675Y-95161955D01*
X125067621Y-95029852D01*
X125067622Y-95029851D01*
X125072040Y-95024944D01*
X125167527Y-94859556D01*
X125226542Y-94677928D01*
X125234680Y-94600505D01*
X125245814Y-94494565D01*
X125246504Y-94488000D01*
X125236967Y-94397261D01*
X125227232Y-94304635D01*
X125227232Y-94304633D01*
X125226542Y-94298072D01*
X125167527Y-94116444D01*
X125150196Y-94086425D01*
X125086816Y-93976649D01*
X125072040Y-93951056D01*
X124993836Y-93864201D01*
X124948675Y-93814045D01*
X124948674Y-93814044D01*
X124944253Y-93809134D01*
X124789752Y-93696882D01*
X124783724Y-93694198D01*
X124783722Y-93694197D01*
X124621319Y-93621891D01*
X124621318Y-93621891D01*
X124615288Y-93619206D01*
X124521887Y-93599353D01*
X124434944Y-93580872D01*
X124434939Y-93580872D01*
X124428487Y-93579500D01*
X124372595Y-93579500D01*
X124304474Y-93559498D01*
X124283500Y-93542595D01*
X121482652Y-90741747D01*
X121475112Y-90733461D01*
X121471000Y-90726982D01*
X121421348Y-90680356D01*
X121418507Y-90677602D01*
X121398770Y-90657865D01*
X121395573Y-90655385D01*
X121386551Y-90647680D01*
X121360100Y-90622841D01*
X121354321Y-90617414D01*
X121347375Y-90613595D01*
X121347372Y-90613593D01*
X121336566Y-90607652D01*
X121320047Y-90596801D01*
X121319583Y-90596441D01*
X121304041Y-90584386D01*
X121296772Y-90581241D01*
X121296768Y-90581238D01*
X121263463Y-90566826D01*
X121252813Y-90561609D01*
X121214060Y-90540305D01*
X121194437Y-90535267D01*
X121175734Y-90528863D01*
X121164420Y-90523967D01*
X121164419Y-90523967D01*
X121157145Y-90520819D01*
X121149322Y-90519580D01*
X121149312Y-90519577D01*
X121113476Y-90513901D01*
X121101856Y-90511495D01*
X121066711Y-90502472D01*
X121066710Y-90502472D01*
X121059030Y-90500500D01*
X121038776Y-90500500D01*
X121019065Y-90498949D01*
X121006886Y-90497020D01*
X120999057Y-90495780D01*
X120991165Y-90496526D01*
X120955039Y-90499941D01*
X120943181Y-90500500D01*
X120333805Y-90500500D01*
X120265684Y-90480498D01*
X120228013Y-90442940D01*
X120139822Y-90306617D01*
X120139820Y-90306614D01*
X120137014Y-90302277D01*
X119986670Y-90137051D01*
X119982619Y-90133852D01*
X119982615Y-90133848D01*
X119815414Y-90001800D01*
X119815410Y-90001798D01*
X119811359Y-89998598D01*
X119770053Y-89975796D01*
X119720084Y-89925364D01*
X119705312Y-89855921D01*
X119714853Y-89830695D01*
X131458251Y-89830695D01*
X131458548Y-89835848D01*
X131458548Y-89835851D01*
X131464011Y-89930590D01*
X131471110Y-90053715D01*
X131472247Y-90058761D01*
X131472248Y-90058767D01*
X131492119Y-90146939D01*
X131520222Y-90271639D01*
X131604266Y-90478616D01*
X131638982Y-90535267D01*
X131714110Y-90657865D01*
X131720987Y-90669088D01*
X131867250Y-90837938D01*
X131871230Y-90841242D01*
X131875981Y-90845187D01*
X131915616Y-90904090D01*
X131917113Y-90975071D01*
X131879997Y-91035593D01*
X131839724Y-91060112D01*
X131724295Y-91103385D01*
X131607739Y-91190739D01*
X131520385Y-91307295D01*
X131469255Y-91443684D01*
X131462500Y-91505866D01*
X131462500Y-93302134D01*
X131469255Y-93364316D01*
X131520385Y-93500705D01*
X131607739Y-93617261D01*
X131724295Y-93704615D01*
X131860684Y-93755745D01*
X131922866Y-93762500D01*
X133719134Y-93762500D01*
X133781316Y-93755745D01*
X133917705Y-93704615D01*
X134034261Y-93617261D01*
X134121615Y-93500705D01*
X134172745Y-93364316D01*
X134179500Y-93302134D01*
X134179500Y-91505866D01*
X134172745Y-91443684D01*
X134121615Y-91307295D01*
X134034261Y-91190739D01*
X133917705Y-91103385D01*
X133883983Y-91090743D01*
X133799203Y-91058960D01*
X133742439Y-91016318D01*
X133717739Y-90949756D01*
X133732947Y-90880408D01*
X133754493Y-90851727D01*
X133772251Y-90834031D01*
X133859096Y-90747489D01*
X133867710Y-90735502D01*
X133986435Y-90570277D01*
X133989453Y-90566077D01*
X134000305Y-90544121D01*
X134086136Y-90370453D01*
X134086137Y-90370451D01*
X134088430Y-90365811D01*
X134153370Y-90152069D01*
X134182529Y-89930590D01*
X134182657Y-89925364D01*
X134184074Y-89867365D01*
X134184074Y-89867361D01*
X134184156Y-89864000D01*
X134165852Y-89641361D01*
X134111431Y-89424702D01*
X134022354Y-89219840D01*
X133901014Y-89032277D01*
X133750670Y-88867051D01*
X133746619Y-88863852D01*
X133746615Y-88863848D01*
X133719686Y-88842581D01*
X153749722Y-88842581D01*
X153767623Y-89195944D01*
X153768160Y-89199299D01*
X153768161Y-89199305D01*
X153770358Y-89213020D01*
X153823581Y-89545306D01*
X153916944Y-89886582D01*
X154046618Y-90215779D01*
X154048201Y-90218794D01*
X154209502Y-90526029D01*
X154209507Y-90526037D01*
X154211086Y-90529045D01*
X154408425Y-90822716D01*
X154636326Y-91093358D01*
X154892124Y-91337803D01*
X155172825Y-91553192D01*
X155175738Y-91554963D01*
X155472231Y-91735234D01*
X155472236Y-91735237D01*
X155475146Y-91737006D01*
X155499931Y-91748616D01*
X155792466Y-91885651D01*
X155792476Y-91885655D01*
X155795550Y-91887095D01*
X155798768Y-91888197D01*
X155798771Y-91888198D01*
X156127067Y-92000599D01*
X156127075Y-92000601D01*
X156130290Y-92001702D01*
X156475450Y-92079487D01*
X156524039Y-92085023D01*
X156823608Y-92119155D01*
X156823616Y-92119155D01*
X156826991Y-92119540D01*
X156830395Y-92119558D01*
X156830398Y-92119558D01*
X157023234Y-92120568D01*
X157180802Y-92121393D01*
X157184188Y-92121043D01*
X157184190Y-92121043D01*
X157529352Y-92085374D01*
X157529360Y-92085373D01*
X157532744Y-92085023D01*
X157536077Y-92084308D01*
X157536080Y-92084308D01*
X157706380Y-92047799D01*
X157878699Y-92010857D01*
X158214621Y-91899761D01*
X158536579Y-91753036D01*
X158693045Y-91660134D01*
X160954500Y-91660134D01*
X160961255Y-91722316D01*
X161012385Y-91858705D01*
X161099739Y-91975261D01*
X161216295Y-92062615D01*
X161352684Y-92113745D01*
X161414866Y-92120500D01*
X167027134Y-92120500D01*
X167089316Y-92113745D01*
X167225705Y-92062615D01*
X167342261Y-91975261D01*
X167429615Y-91858705D01*
X167480745Y-91722316D01*
X167487500Y-91660134D01*
X167487500Y-87850161D01*
X170714393Y-87850161D01*
X170723687Y-87862175D01*
X170764088Y-87890464D01*
X170773584Y-87895947D01*
X170963113Y-87984326D01*
X170973405Y-87988072D01*
X171175401Y-88042196D01*
X171186196Y-88044099D01*
X171394525Y-88062326D01*
X171405475Y-88062326D01*
X171613804Y-88044099D01*
X171624599Y-88042196D01*
X171826595Y-87988072D01*
X171836887Y-87984326D01*
X172026416Y-87895947D01*
X172035912Y-87890464D01*
X172077148Y-87861590D01*
X172085523Y-87851112D01*
X172078457Y-87837668D01*
X171412811Y-87172021D01*
X171398868Y-87164408D01*
X171397034Y-87164539D01*
X171390420Y-87168790D01*
X170720820Y-87838391D01*
X170714393Y-87850161D01*
X167487500Y-87850161D01*
X167487500Y-86805475D01*
X170137674Y-86805475D01*
X170155901Y-87013804D01*
X170157804Y-87024599D01*
X170211928Y-87226595D01*
X170215674Y-87236887D01*
X170304054Y-87426417D01*
X170309534Y-87435907D01*
X170338411Y-87477149D01*
X170348887Y-87485523D01*
X170362334Y-87478455D01*
X171027979Y-86812811D01*
X171034356Y-86801132D01*
X171764408Y-86801132D01*
X171764539Y-86802966D01*
X171768790Y-86809580D01*
X172438391Y-87479180D01*
X172450161Y-87485607D01*
X172462176Y-87476311D01*
X172490466Y-87435907D01*
X172495946Y-87426417D01*
X172584326Y-87236887D01*
X172588072Y-87226595D01*
X172642196Y-87024599D01*
X172644099Y-87013804D01*
X172662326Y-86805475D01*
X172662326Y-86800000D01*
X173536693Y-86800000D01*
X173555885Y-87019371D01*
X173612880Y-87232076D01*
X173642619Y-87295851D01*
X173703618Y-87426666D01*
X173703621Y-87426671D01*
X173705944Y-87431653D01*
X173709100Y-87436160D01*
X173709101Y-87436162D01*
X173828681Y-87606939D01*
X173832251Y-87612038D01*
X173987962Y-87767749D01*
X174168346Y-87894056D01*
X174367924Y-87987120D01*
X174580629Y-88044115D01*
X174800000Y-88063307D01*
X175019371Y-88044115D01*
X175232076Y-87987120D01*
X175431654Y-87894056D01*
X175612038Y-87767749D01*
X175767749Y-87612038D01*
X175771320Y-87606939D01*
X175890899Y-87436162D01*
X175890900Y-87436160D01*
X175894056Y-87431653D01*
X175896379Y-87426671D01*
X175896382Y-87426666D01*
X175957381Y-87295851D01*
X175987120Y-87232076D01*
X176044115Y-87019371D01*
X176063307Y-86800000D01*
X176044115Y-86580629D01*
X175987120Y-86367924D01*
X175918958Y-86221749D01*
X175896382Y-86173334D01*
X175896379Y-86173329D01*
X175894056Y-86168347D01*
X175880070Y-86148373D01*
X175770908Y-85992473D01*
X175770906Y-85992470D01*
X175767749Y-85987962D01*
X175612038Y-85832251D01*
X175606212Y-85828171D01*
X175494342Y-85749839D01*
X175431654Y-85705944D01*
X175232076Y-85612880D01*
X175019371Y-85555885D01*
X174800000Y-85536693D01*
X174580629Y-85555885D01*
X174367924Y-85612880D01*
X174304976Y-85642233D01*
X174173334Y-85703618D01*
X174173329Y-85703621D01*
X174168347Y-85705944D01*
X174163840Y-85709100D01*
X174163838Y-85709101D01*
X173992473Y-85829092D01*
X173992470Y-85829094D01*
X173987962Y-85832251D01*
X173832251Y-85987962D01*
X173829094Y-85992470D01*
X173829092Y-85992473D01*
X173719930Y-86148373D01*
X173705944Y-86168347D01*
X173703621Y-86173329D01*
X173703618Y-86173334D01*
X173681042Y-86221749D01*
X173612880Y-86367924D01*
X173555885Y-86580629D01*
X173536693Y-86800000D01*
X172662326Y-86800000D01*
X172662326Y-86794525D01*
X172644099Y-86586196D01*
X172642196Y-86575401D01*
X172588072Y-86373405D01*
X172584326Y-86363113D01*
X172495946Y-86173583D01*
X172490466Y-86164093D01*
X172461589Y-86122851D01*
X172451113Y-86114477D01*
X172437666Y-86121545D01*
X171772021Y-86787189D01*
X171764408Y-86801132D01*
X171034356Y-86801132D01*
X171035592Y-86798868D01*
X171035461Y-86797034D01*
X171031210Y-86790420D01*
X170361609Y-86120820D01*
X170349839Y-86114393D01*
X170337824Y-86123689D01*
X170309534Y-86164093D01*
X170304054Y-86173583D01*
X170215674Y-86363113D01*
X170211928Y-86373405D01*
X170157804Y-86575401D01*
X170155901Y-86586196D01*
X170137674Y-86794525D01*
X170137674Y-86805475D01*
X167487500Y-86805475D01*
X167487500Y-86047866D01*
X167480745Y-85985684D01*
X167429615Y-85849295D01*
X167354363Y-85748887D01*
X170714477Y-85748887D01*
X170721545Y-85762334D01*
X171387189Y-86427979D01*
X171401132Y-86435592D01*
X171402966Y-86435461D01*
X171409580Y-86431210D01*
X172079180Y-85761609D01*
X172085607Y-85749839D01*
X172076313Y-85737825D01*
X172035912Y-85709536D01*
X172026416Y-85704053D01*
X171836887Y-85615674D01*
X171826595Y-85611928D01*
X171624599Y-85557804D01*
X171613804Y-85555901D01*
X171405475Y-85537674D01*
X171394525Y-85537674D01*
X171186196Y-85555901D01*
X171175401Y-85557804D01*
X170973405Y-85611928D01*
X170963113Y-85615674D01*
X170773583Y-85704054D01*
X170764093Y-85709534D01*
X170722851Y-85738411D01*
X170714477Y-85748887D01*
X167354363Y-85748887D01*
X167342261Y-85732739D01*
X167225705Y-85645385D01*
X167089316Y-85594255D01*
X167027134Y-85587500D01*
X161414866Y-85587500D01*
X161352684Y-85594255D01*
X161216295Y-85645385D01*
X161099739Y-85732739D01*
X161012385Y-85849295D01*
X160961255Y-85985684D01*
X160954500Y-86047866D01*
X160954500Y-91660134D01*
X158693045Y-91660134D01*
X158742353Y-91630857D01*
X158837864Y-91574147D01*
X158837869Y-91574144D01*
X158840809Y-91572398D01*
X158864031Y-91554963D01*
X159121013Y-91362015D01*
X159123750Y-91359960D01*
X159126253Y-91357618D01*
X159379596Y-91120544D01*
X159379599Y-91120541D01*
X159382093Y-91118207D01*
X159401438Y-91095717D01*
X159505209Y-90975071D01*
X159612816Y-90849967D01*
X159621083Y-90837938D01*
X159811289Y-90561187D01*
X159811293Y-90561180D01*
X159813219Y-90558378D01*
X159814831Y-90555384D01*
X159814836Y-90555376D01*
X159965035Y-90276425D01*
X159980959Y-90246851D01*
X160114073Y-89919030D01*
X160211004Y-89578751D01*
X160270618Y-89229994D01*
X160271240Y-89219840D01*
X160292108Y-88878635D01*
X160292218Y-88876838D01*
X160292298Y-88854000D01*
X160273164Y-88500702D01*
X160215986Y-88151537D01*
X160121433Y-87810589D01*
X160118433Y-87803048D01*
X159991870Y-87485011D01*
X159990611Y-87481847D01*
X159867598Y-87249516D01*
X159826645Y-87172169D01*
X159826643Y-87172166D01*
X159825050Y-87169157D01*
X159823145Y-87166343D01*
X159628593Y-86878990D01*
X159628586Y-86878981D01*
X159626687Y-86876176D01*
X159624491Y-86873586D01*
X159624486Y-86873580D01*
X159400042Y-86608926D01*
X159400041Y-86608925D01*
X159397842Y-86606332D01*
X159141193Y-86362781D01*
X159138486Y-86360719D01*
X159138478Y-86360712D01*
X158909271Y-86186104D01*
X158859742Y-86148373D01*
X158605682Y-85995114D01*
X158559702Y-85967377D01*
X158559701Y-85967377D01*
X158556781Y-85965615D01*
X158529409Y-85952909D01*
X158409667Y-85897327D01*
X158235855Y-85816646D01*
X158232633Y-85815555D01*
X158232627Y-85815553D01*
X157903952Y-85704303D01*
X157900717Y-85703208D01*
X157891845Y-85701241D01*
X157558626Y-85627368D01*
X157555288Y-85626628D01*
X157492715Y-85619720D01*
X157206991Y-85588176D01*
X157206984Y-85588176D01*
X157203609Y-85587803D01*
X157200210Y-85587797D01*
X157200209Y-85587797D01*
X157033809Y-85587506D01*
X156849793Y-85587185D01*
X156757681Y-85597029D01*
X156501365Y-85624421D01*
X156501359Y-85624422D01*
X156497981Y-85624783D01*
X156152287Y-85700157D01*
X155816755Y-85812424D01*
X155813662Y-85813847D01*
X155813661Y-85813847D01*
X155718311Y-85857703D01*
X155495310Y-85960272D01*
X155492376Y-85962028D01*
X155492374Y-85962029D01*
X155227054Y-86120820D01*
X155191713Y-86141971D01*
X155188987Y-86144033D01*
X155188985Y-86144034D01*
X154923395Y-86344899D01*
X154909516Y-86355396D01*
X154907036Y-86357733D01*
X154664692Y-86586106D01*
X154652018Y-86598049D01*
X154649801Y-86600645D01*
X154649796Y-86600650D01*
X154474860Y-86805475D01*
X154422233Y-86867093D01*
X154222849Y-87159379D01*
X154152733Y-87290695D01*
X154063081Y-87458598D01*
X154056197Y-87471490D01*
X154054920Y-87474667D01*
X153935832Y-87770908D01*
X153924228Y-87799773D01*
X153923309Y-87803041D01*
X153923307Y-87803048D01*
X153831661Y-88129088D01*
X153828485Y-88140388D01*
X153827924Y-88143741D01*
X153827923Y-88143745D01*
X153789834Y-88371361D01*
X153770089Y-88489352D01*
X153749722Y-88842581D01*
X133719686Y-88842581D01*
X133579414Y-88731800D01*
X133579410Y-88731798D01*
X133575359Y-88728598D01*
X133534053Y-88705796D01*
X133484084Y-88655364D01*
X133469312Y-88585921D01*
X133494428Y-88519516D01*
X133521780Y-88492909D01*
X133565603Y-88461650D01*
X133700860Y-88365173D01*
X133859096Y-88207489D01*
X133904901Y-88143745D01*
X133986435Y-88030277D01*
X133989453Y-88026077D01*
X134008004Y-87988543D01*
X134086136Y-87830453D01*
X134086137Y-87830451D01*
X134088430Y-87825811D01*
X134153370Y-87612069D01*
X134182529Y-87390590D01*
X134184156Y-87324000D01*
X134165852Y-87101361D01*
X134111431Y-86884702D01*
X134022354Y-86679840D01*
X133961715Y-86586106D01*
X133903822Y-86496617D01*
X133903820Y-86496614D01*
X133901014Y-86492277D01*
X133750670Y-86327051D01*
X133746619Y-86323852D01*
X133746615Y-86323848D01*
X133579414Y-86191800D01*
X133579410Y-86191798D01*
X133575359Y-86188598D01*
X133534053Y-86165796D01*
X133484084Y-86115364D01*
X133469312Y-86045921D01*
X133494428Y-85979516D01*
X133521780Y-85952909D01*
X133566115Y-85921285D01*
X133700860Y-85825173D01*
X133714738Y-85811344D01*
X133822404Y-85704053D01*
X133859096Y-85667489D01*
X133888458Y-85626628D01*
X133986435Y-85490277D01*
X133989453Y-85486077D01*
X133993109Y-85478681D01*
X134086136Y-85290453D01*
X134086137Y-85290451D01*
X134088430Y-85285811D01*
X134153370Y-85072069D01*
X134182529Y-84850590D01*
X134182657Y-84845364D01*
X134184074Y-84787365D01*
X134184074Y-84787361D01*
X134184156Y-84784000D01*
X134165852Y-84561361D01*
X134111431Y-84344702D01*
X134022354Y-84139840D01*
X133938282Y-84009885D01*
X133903822Y-83956617D01*
X133903820Y-83956614D01*
X133901014Y-83952277D01*
X133750670Y-83787051D01*
X133746619Y-83783852D01*
X133746615Y-83783848D01*
X133579414Y-83651800D01*
X133579410Y-83651798D01*
X133575359Y-83648598D01*
X133534053Y-83625796D01*
X133484084Y-83575364D01*
X133469312Y-83505921D01*
X133494428Y-83439516D01*
X133521780Y-83412909D01*
X133578102Y-83372735D01*
X133700860Y-83285173D01*
X133859096Y-83127489D01*
X133918594Y-83044689D01*
X133986435Y-82950277D01*
X133989453Y-82946077D01*
X134011598Y-82901271D01*
X134086136Y-82750453D01*
X134086137Y-82750451D01*
X134088430Y-82745811D01*
X134153370Y-82532069D01*
X134182529Y-82310590D01*
X134184156Y-82244000D01*
X134165852Y-82021361D01*
X134111431Y-81804702D01*
X134022354Y-81599840D01*
X133938911Y-81470857D01*
X133903822Y-81416617D01*
X133903820Y-81416614D01*
X133901014Y-81412277D01*
X133750670Y-81247051D01*
X133746619Y-81243852D01*
X133746615Y-81243848D01*
X133579414Y-81111800D01*
X133579410Y-81111798D01*
X133575359Y-81108598D01*
X133534053Y-81085796D01*
X133484084Y-81035364D01*
X133469312Y-80965921D01*
X133494428Y-80899516D01*
X133521780Y-80872909D01*
X133578605Y-80832376D01*
X133700860Y-80745173D01*
X133760913Y-80685330D01*
X133855435Y-80591137D01*
X133859096Y-80587489D01*
X133867853Y-80575303D01*
X133986435Y-80410277D01*
X133989453Y-80406077D01*
X134027132Y-80329840D01*
X134086136Y-80210453D01*
X134086137Y-80210451D01*
X134088430Y-80205811D01*
X134153370Y-79992069D01*
X134182529Y-79770590D01*
X134184156Y-79704000D01*
X134165852Y-79481361D01*
X134111431Y-79264702D01*
X134022354Y-79059840D01*
X133901014Y-78872277D01*
X133750670Y-78707051D01*
X133746619Y-78703852D01*
X133746615Y-78703848D01*
X133579414Y-78571800D01*
X133579410Y-78571798D01*
X133575359Y-78568598D01*
X133379789Y-78460638D01*
X133374920Y-78458914D01*
X133374916Y-78458912D01*
X133174087Y-78387795D01*
X133174083Y-78387794D01*
X133169212Y-78386069D01*
X133164119Y-78385162D01*
X133164116Y-78385161D01*
X132954373Y-78347800D01*
X132954367Y-78347799D01*
X132949284Y-78346894D01*
X132875452Y-78345992D01*
X132731081Y-78344228D01*
X132731079Y-78344228D01*
X132725911Y-78344165D01*
X132505091Y-78377955D01*
X132292756Y-78447357D01*
X132262443Y-78463137D01*
X132190497Y-78500590D01*
X132094607Y-78550507D01*
X132090474Y-78553610D01*
X132090471Y-78553612D01*
X131990374Y-78628767D01*
X131915965Y-78684635D01*
X131912393Y-78688373D01*
X131770748Y-78836596D01*
X131761629Y-78846138D01*
X131635743Y-79030680D01*
X131541688Y-79233305D01*
X131481989Y-79448570D01*
X131458251Y-79670695D01*
X131458548Y-79675848D01*
X131458548Y-79675851D01*
X131464011Y-79770590D01*
X131471110Y-79893715D01*
X131472247Y-79898761D01*
X131472248Y-79898767D01*
X131492119Y-79986939D01*
X131520222Y-80111639D01*
X131604266Y-80318616D01*
X131606965Y-80323020D01*
X131712323Y-80494949D01*
X131720987Y-80509088D01*
X131867250Y-80677938D01*
X132039126Y-80820632D01*
X132109595Y-80861811D01*
X132112445Y-80863476D01*
X132161169Y-80915114D01*
X132174240Y-80984897D01*
X132147509Y-81050669D01*
X132107055Y-81084027D01*
X132094607Y-81090507D01*
X132090474Y-81093610D01*
X132090471Y-81093612D01*
X131927403Y-81216047D01*
X131915965Y-81224635D01*
X131912393Y-81228373D01*
X131770748Y-81376596D01*
X131761629Y-81386138D01*
X131635743Y-81570680D01*
X131620003Y-81604590D01*
X131550751Y-81753781D01*
X131541688Y-81773305D01*
X131481989Y-81988570D01*
X131458251Y-82210695D01*
X131458548Y-82215848D01*
X131458548Y-82215851D01*
X131464011Y-82310590D01*
X131471110Y-82433715D01*
X131472247Y-82438761D01*
X131472248Y-82438767D01*
X131492119Y-82526939D01*
X131520222Y-82651639D01*
X131604266Y-82858616D01*
X131606965Y-82863020D01*
X131701069Y-83016584D01*
X131720987Y-83049088D01*
X131867250Y-83217938D01*
X132039126Y-83360632D01*
X132059838Y-83372735D01*
X132112445Y-83403476D01*
X132161169Y-83455114D01*
X132174240Y-83524897D01*
X132147509Y-83590669D01*
X132107055Y-83624027D01*
X132094607Y-83630507D01*
X132090474Y-83633610D01*
X132090471Y-83633612D01*
X131927095Y-83756278D01*
X131915965Y-83764635D01*
X131912393Y-83768373D01*
X131770748Y-83916596D01*
X131761629Y-83926138D01*
X131758715Y-83930410D01*
X131758714Y-83930411D01*
X131717266Y-83991172D01*
X131635743Y-84110680D01*
X131541688Y-84313305D01*
X131481989Y-84528570D01*
X131458251Y-84750695D01*
X131458548Y-84755848D01*
X131458548Y-84755851D01*
X131466515Y-84894027D01*
X131471110Y-84973715D01*
X131472247Y-84978761D01*
X131472248Y-84978767D01*
X131492119Y-85066939D01*
X131520222Y-85191639D01*
X131604266Y-85398616D01*
X131650076Y-85473371D01*
X131696804Y-85549624D01*
X131720987Y-85589088D01*
X131867250Y-85757938D01*
X132039126Y-85900632D01*
X132100575Y-85936540D01*
X132112445Y-85943476D01*
X132161169Y-85995114D01*
X132174240Y-86064897D01*
X132147509Y-86130669D01*
X132107055Y-86164027D01*
X132094607Y-86170507D01*
X132090474Y-86173610D01*
X132090471Y-86173612D01*
X131920100Y-86301530D01*
X131915965Y-86304635D01*
X131877488Y-86344899D01*
X131770748Y-86456596D01*
X131761629Y-86466138D01*
X131635743Y-86650680D01*
X131620003Y-86684590D01*
X131560485Y-86812811D01*
X131541688Y-86853305D01*
X131481989Y-87068570D01*
X131458251Y-87290695D01*
X131458548Y-87295848D01*
X131458548Y-87295851D01*
X131469455Y-87485011D01*
X131471110Y-87513715D01*
X131472247Y-87518761D01*
X131472248Y-87518767D01*
X131492119Y-87606939D01*
X131520222Y-87731639D01*
X131604266Y-87938616D01*
X131720987Y-88129088D01*
X131867250Y-88297938D01*
X132039126Y-88440632D01*
X132109595Y-88481811D01*
X132112445Y-88483476D01*
X132161169Y-88535114D01*
X132174240Y-88604897D01*
X132147509Y-88670669D01*
X132107055Y-88704027D01*
X132094607Y-88710507D01*
X132090474Y-88713610D01*
X132090471Y-88713612D01*
X131920100Y-88841530D01*
X131915965Y-88844635D01*
X131907016Y-88854000D01*
X131770748Y-88996596D01*
X131761629Y-89006138D01*
X131635743Y-89190680D01*
X131541688Y-89393305D01*
X131481989Y-89608570D01*
X131458251Y-89830695D01*
X119714853Y-89830695D01*
X119730428Y-89789516D01*
X119757780Y-89762909D01*
X119801603Y-89731650D01*
X119936860Y-89635173D01*
X120095096Y-89477489D01*
X120154594Y-89394689D01*
X120222435Y-89300277D01*
X120225453Y-89296077D01*
X120263132Y-89219840D01*
X120322136Y-89100453D01*
X120322137Y-89100451D01*
X120324430Y-89095811D01*
X120389370Y-88882069D01*
X120418529Y-88660590D01*
X120420156Y-88594000D01*
X120401852Y-88371361D01*
X120347431Y-88154702D01*
X120258354Y-87949840D01*
X120201641Y-87862175D01*
X120139822Y-87766617D01*
X120139820Y-87766614D01*
X120137014Y-87762277D01*
X119986670Y-87597051D01*
X119982619Y-87593852D01*
X119982615Y-87593848D01*
X119815414Y-87461800D01*
X119815410Y-87461798D01*
X119811359Y-87458598D01*
X119770053Y-87435796D01*
X119720084Y-87385364D01*
X119705312Y-87315921D01*
X119730428Y-87249516D01*
X119757780Y-87222909D01*
X119801603Y-87191650D01*
X119936860Y-87095173D01*
X120095096Y-86937489D01*
X120154594Y-86854689D01*
X120222435Y-86760277D01*
X120225453Y-86756077D01*
X120263132Y-86679840D01*
X120322136Y-86560453D01*
X120322137Y-86560451D01*
X120324430Y-86555811D01*
X120386845Y-86350381D01*
X120387865Y-86347023D01*
X120387865Y-86347021D01*
X120389370Y-86342069D01*
X120418529Y-86120590D01*
X120418657Y-86115364D01*
X120420074Y-86057365D01*
X120420074Y-86057361D01*
X120420156Y-86054000D01*
X120401852Y-85831361D01*
X120347431Y-85614702D01*
X120258354Y-85409840D01*
X120169692Y-85272789D01*
X120157537Y-85254000D01*
X124475693Y-85254000D01*
X124494885Y-85473371D01*
X124551880Y-85686076D01*
X124587102Y-85761609D01*
X124642618Y-85880666D01*
X124642621Y-85880671D01*
X124644944Y-85885653D01*
X124648100Y-85890160D01*
X124648101Y-85890162D01*
X124762244Y-86053174D01*
X124771251Y-86066038D01*
X124926962Y-86221749D01*
X124931471Y-86224906D01*
X124931473Y-86224908D01*
X124965547Y-86248767D01*
X125107346Y-86348056D01*
X125306924Y-86441120D01*
X125519629Y-86498115D01*
X125739000Y-86517307D01*
X125958371Y-86498115D01*
X126171076Y-86441120D01*
X126370654Y-86348056D01*
X126433342Y-86304161D01*
X128453393Y-86304161D01*
X128462687Y-86316175D01*
X128503088Y-86344464D01*
X128512584Y-86349947D01*
X128702113Y-86438326D01*
X128712405Y-86442072D01*
X128914401Y-86496196D01*
X128925196Y-86498099D01*
X129133525Y-86516326D01*
X129144475Y-86516326D01*
X129352804Y-86498099D01*
X129363599Y-86496196D01*
X129565595Y-86442072D01*
X129575887Y-86438326D01*
X129765416Y-86349947D01*
X129774912Y-86344464D01*
X129816148Y-86315590D01*
X129824523Y-86305112D01*
X129817457Y-86291668D01*
X129151811Y-85626021D01*
X129137868Y-85618408D01*
X129136034Y-85618539D01*
X129129420Y-85622790D01*
X128459820Y-86292391D01*
X128453393Y-86304161D01*
X126433342Y-86304161D01*
X126512453Y-86248767D01*
X126546527Y-86224908D01*
X126546529Y-86224906D01*
X126551038Y-86221749D01*
X126706749Y-86066038D01*
X126715757Y-86053174D01*
X126829899Y-85890162D01*
X126829900Y-85890160D01*
X126833056Y-85885653D01*
X126835379Y-85880671D01*
X126835382Y-85880666D01*
X126890898Y-85761609D01*
X126926120Y-85686076D01*
X126983115Y-85473371D01*
X127001828Y-85259475D01*
X127876674Y-85259475D01*
X127894901Y-85467804D01*
X127896804Y-85478599D01*
X127950928Y-85680595D01*
X127954674Y-85690887D01*
X128043054Y-85880417D01*
X128048534Y-85889907D01*
X128077411Y-85931149D01*
X128087887Y-85939523D01*
X128101334Y-85932455D01*
X128766979Y-85266811D01*
X128773356Y-85255132D01*
X129503408Y-85255132D01*
X129503539Y-85256966D01*
X129507790Y-85263580D01*
X130177391Y-85933180D01*
X130189161Y-85939607D01*
X130201176Y-85930311D01*
X130229466Y-85889907D01*
X130234946Y-85880417D01*
X130323326Y-85690887D01*
X130327072Y-85680595D01*
X130381196Y-85478599D01*
X130383099Y-85467804D01*
X130401326Y-85259475D01*
X130401326Y-85248525D01*
X130383099Y-85040196D01*
X130381196Y-85029401D01*
X130327072Y-84827405D01*
X130323326Y-84817113D01*
X130234946Y-84627583D01*
X130229466Y-84618093D01*
X130200589Y-84576851D01*
X130190113Y-84568477D01*
X130176666Y-84575545D01*
X129511021Y-85241189D01*
X129503408Y-85255132D01*
X128773356Y-85255132D01*
X128774592Y-85252868D01*
X128774461Y-85251034D01*
X128770210Y-85244420D01*
X128100609Y-84574820D01*
X128088839Y-84568393D01*
X128076824Y-84577689D01*
X128048534Y-84618093D01*
X128043054Y-84627583D01*
X127954674Y-84817113D01*
X127950928Y-84827405D01*
X127896804Y-85029401D01*
X127894901Y-85040196D01*
X127876674Y-85248525D01*
X127876674Y-85259475D01*
X127001828Y-85259475D01*
X127002307Y-85254000D01*
X126983115Y-85034629D01*
X126926120Y-84821924D01*
X126880977Y-84725114D01*
X126835382Y-84627334D01*
X126835378Y-84627327D01*
X126833056Y-84622347D01*
X126801786Y-84577689D01*
X126709908Y-84446473D01*
X126709906Y-84446470D01*
X126706749Y-84441962D01*
X126551038Y-84286251D01*
X126431983Y-84202887D01*
X128453477Y-84202887D01*
X128460545Y-84216334D01*
X129126189Y-84881979D01*
X129140132Y-84889592D01*
X129141966Y-84889461D01*
X129148580Y-84885210D01*
X129818180Y-84215609D01*
X129824607Y-84203839D01*
X129815313Y-84191825D01*
X129774912Y-84163536D01*
X129765416Y-84158053D01*
X129575887Y-84069674D01*
X129565595Y-84065928D01*
X129363599Y-84011804D01*
X129352804Y-84009901D01*
X129144475Y-83991674D01*
X129133525Y-83991674D01*
X128925196Y-84009901D01*
X128914401Y-84011804D01*
X128712405Y-84065928D01*
X128702113Y-84069674D01*
X128512583Y-84158054D01*
X128503093Y-84163534D01*
X128461851Y-84192411D01*
X128453477Y-84202887D01*
X126431983Y-84202887D01*
X126370654Y-84159944D01*
X126171076Y-84066880D01*
X125958371Y-84009885D01*
X125739000Y-83990693D01*
X125519629Y-84009885D01*
X125306924Y-84066880D01*
X125252966Y-84092041D01*
X125112334Y-84157618D01*
X125112329Y-84157621D01*
X125107347Y-84159944D01*
X125102840Y-84163100D01*
X125102838Y-84163101D01*
X124931473Y-84283092D01*
X124931470Y-84283094D01*
X124926962Y-84286251D01*
X124771251Y-84441962D01*
X124768094Y-84446470D01*
X124768092Y-84446473D01*
X124676214Y-84577689D01*
X124644944Y-84622347D01*
X124642622Y-84627327D01*
X124642618Y-84627334D01*
X124597023Y-84725114D01*
X124551880Y-84821924D01*
X124494885Y-85034629D01*
X124475693Y-85254000D01*
X120157537Y-85254000D01*
X120139822Y-85226617D01*
X120139820Y-85226614D01*
X120137014Y-85222277D01*
X119986670Y-85057051D01*
X119982619Y-85053852D01*
X119982615Y-85053848D01*
X119815414Y-84921800D01*
X119815410Y-84921798D01*
X119811359Y-84918598D01*
X119770053Y-84895796D01*
X119720084Y-84845364D01*
X119705312Y-84775921D01*
X119730428Y-84709516D01*
X119757780Y-84682909D01*
X119801603Y-84651650D01*
X119936860Y-84555173D01*
X120095096Y-84397489D01*
X120154594Y-84314689D01*
X120222435Y-84220277D01*
X120225453Y-84216077D01*
X120231502Y-84203839D01*
X120322136Y-84020453D01*
X120322137Y-84020451D01*
X120324430Y-84015811D01*
X120389370Y-83802069D01*
X120418529Y-83580590D01*
X120418657Y-83575364D01*
X120420074Y-83517365D01*
X120420074Y-83517361D01*
X120420156Y-83514000D01*
X120401852Y-83291361D01*
X120347431Y-83074702D01*
X120258354Y-82869840D01*
X120172674Y-82737399D01*
X120139822Y-82686617D01*
X120139820Y-82686614D01*
X120137014Y-82682277D01*
X119986670Y-82517051D01*
X119982619Y-82513852D01*
X119982615Y-82513848D01*
X119815414Y-82381800D01*
X119815410Y-82381798D01*
X119811359Y-82378598D01*
X119770053Y-82355796D01*
X119720084Y-82305364D01*
X119705312Y-82235921D01*
X119730428Y-82169516D01*
X119757780Y-82142909D01*
X119801603Y-82111650D01*
X119936860Y-82015173D01*
X120095096Y-81857489D01*
X120154594Y-81774689D01*
X120222435Y-81680277D01*
X120225453Y-81676077D01*
X120232738Y-81661338D01*
X120322136Y-81480453D01*
X120322137Y-81480451D01*
X120324430Y-81475811D01*
X120389370Y-81262069D01*
X120418529Y-81040590D01*
X120420156Y-80974000D01*
X120401852Y-80751361D01*
X120347431Y-80534702D01*
X120258354Y-80329840D01*
X120137014Y-80142277D01*
X119986670Y-79977051D01*
X119982619Y-79973852D01*
X119982615Y-79973848D01*
X119815414Y-79841800D01*
X119815410Y-79841798D01*
X119811359Y-79838598D01*
X119770053Y-79815796D01*
X119720084Y-79765364D01*
X119705312Y-79695921D01*
X119730428Y-79629516D01*
X119757780Y-79602909D01*
X119801603Y-79571650D01*
X119936860Y-79475173D01*
X120095096Y-79317489D01*
X120154594Y-79234689D01*
X120222435Y-79140277D01*
X120225453Y-79136077D01*
X120263132Y-79059840D01*
X120322136Y-78940453D01*
X120322137Y-78940451D01*
X120324430Y-78935811D01*
X120389370Y-78722069D01*
X120418529Y-78500590D01*
X120418611Y-78497240D01*
X120420074Y-78437365D01*
X120420074Y-78437361D01*
X120420156Y-78434000D01*
X120401852Y-78211361D01*
X120347431Y-77994702D01*
X120258354Y-77789840D01*
X120137014Y-77602277D01*
X119986670Y-77437051D01*
X119982619Y-77433852D01*
X119982615Y-77433848D01*
X119815414Y-77301800D01*
X119815410Y-77301798D01*
X119811359Y-77298598D01*
X119770053Y-77275796D01*
X119720084Y-77225364D01*
X119705312Y-77155921D01*
X119730428Y-77089516D01*
X119757780Y-77062909D01*
X119801603Y-77031650D01*
X119936860Y-76935173D01*
X119950462Y-76921619D01*
X120091435Y-76781137D01*
X120095096Y-76777489D01*
X120154594Y-76694689D01*
X120222435Y-76600277D01*
X120225453Y-76596077D01*
X120271365Y-76503182D01*
X120322136Y-76400453D01*
X120322137Y-76400451D01*
X120324430Y-76395811D01*
X120389370Y-76182069D01*
X120418529Y-75960590D01*
X120419240Y-75931492D01*
X120420074Y-75897365D01*
X120420074Y-75897361D01*
X120420156Y-75894000D01*
X120403172Y-75687411D01*
X168508977Y-75687411D01*
X168517945Y-75926274D01*
X168528506Y-75976607D01*
X168552040Y-76088767D01*
X168567030Y-76160211D01*
X168654829Y-76382533D01*
X168778832Y-76586883D01*
X168782329Y-76590913D01*
X168872090Y-76694353D01*
X168935493Y-76767419D01*
X168939619Y-76770802D01*
X168939623Y-76770806D01*
X168947774Y-76777489D01*
X169120333Y-76918978D01*
X169124969Y-76921617D01*
X169124972Y-76921619D01*
X169301387Y-77022040D01*
X169328066Y-77037227D01*
X169552753Y-77118784D01*
X169558002Y-77119733D01*
X169558005Y-77119734D01*
X169783885Y-77160580D01*
X169783893Y-77160581D01*
X169787969Y-77161318D01*
X169806359Y-77162185D01*
X169811544Y-77162430D01*
X169811551Y-77162430D01*
X169813032Y-77162500D01*
X169981012Y-77162500D01*
X170159175Y-77147383D01*
X170164339Y-77146043D01*
X170164343Y-77146042D01*
X170385375Y-77088673D01*
X170385380Y-77088671D01*
X170390540Y-77087332D01*
X170446193Y-77062262D01*
X170603619Y-76991347D01*
X170603622Y-76991346D01*
X170608480Y-76989157D01*
X170806762Y-76855666D01*
X170979718Y-76690674D01*
X171122402Y-76498900D01*
X171202751Y-76340866D01*
X171228314Y-76290586D01*
X171228314Y-76290585D01*
X171230733Y-76285828D01*
X171277533Y-76135109D01*
X171300032Y-76062651D01*
X171300033Y-76062645D01*
X171301616Y-76057548D01*
X171323738Y-75890646D01*
X171332323Y-75825873D01*
X171332323Y-75825869D01*
X171333023Y-75820589D01*
X171330523Y-75754000D01*
X173107502Y-75754000D01*
X173127457Y-75982087D01*
X173128881Y-75987400D01*
X173128881Y-75987402D01*
X173175186Y-76160211D01*
X173186716Y-76203243D01*
X173189039Y-76208224D01*
X173189039Y-76208225D01*
X173281151Y-76405762D01*
X173281154Y-76405767D01*
X173283477Y-76410749D01*
X173348653Y-76503829D01*
X173409630Y-76590913D01*
X173414802Y-76598300D01*
X173576700Y-76760198D01*
X173581208Y-76763355D01*
X173581211Y-76763357D01*
X173595400Y-76773292D01*
X173764251Y-76891523D01*
X173769233Y-76893846D01*
X173769238Y-76893849D01*
X173966775Y-76985961D01*
X173971757Y-76988284D01*
X173977065Y-76989706D01*
X173977067Y-76989707D01*
X174187598Y-77046119D01*
X174187600Y-77046119D01*
X174192913Y-77047543D01*
X174292480Y-77056254D01*
X174361149Y-77062262D01*
X174361156Y-77062262D01*
X174363873Y-77062500D01*
X174478127Y-77062500D01*
X174480844Y-77062262D01*
X174480851Y-77062262D01*
X174549520Y-77056254D01*
X174649087Y-77047543D01*
X174654400Y-77046119D01*
X174654402Y-77046119D01*
X174864933Y-76989707D01*
X174864935Y-76989706D01*
X174870243Y-76988284D01*
X174875225Y-76985961D01*
X175072762Y-76893849D01*
X175072767Y-76893846D01*
X175077749Y-76891523D01*
X175246600Y-76773292D01*
X175260789Y-76763357D01*
X175260792Y-76763355D01*
X175265300Y-76760198D01*
X175427198Y-76598300D01*
X175432371Y-76590913D01*
X175493347Y-76503829D01*
X175558523Y-76410749D01*
X175560846Y-76405767D01*
X175560849Y-76405762D01*
X175652961Y-76208225D01*
X175652961Y-76208224D01*
X175655284Y-76203243D01*
X175666815Y-76160211D01*
X175713119Y-75987402D01*
X175713119Y-75987400D01*
X175714543Y-75982087D01*
X175734498Y-75754000D01*
X175714543Y-75525913D01*
X175668215Y-75353016D01*
X175656707Y-75310067D01*
X175656706Y-75310065D01*
X175655284Y-75304757D01*
X175629676Y-75249840D01*
X175560849Y-75102238D01*
X175560846Y-75102233D01*
X175558523Y-75097251D01*
X175470802Y-74971973D01*
X175430357Y-74914211D01*
X175430355Y-74914208D01*
X175427198Y-74909700D01*
X175265300Y-74747802D01*
X175260792Y-74744645D01*
X175260789Y-74744643D01*
X175134215Y-74656015D01*
X175077749Y-74616477D01*
X175072767Y-74614154D01*
X175072762Y-74614151D01*
X174875225Y-74522039D01*
X174875224Y-74522039D01*
X174870243Y-74519716D01*
X174864935Y-74518294D01*
X174864933Y-74518293D01*
X174654402Y-74461881D01*
X174654400Y-74461881D01*
X174649087Y-74460457D01*
X174549520Y-74451746D01*
X174480851Y-74445738D01*
X174480844Y-74445738D01*
X174478127Y-74445500D01*
X174363873Y-74445500D01*
X174361156Y-74445738D01*
X174361149Y-74445738D01*
X174292480Y-74451746D01*
X174192913Y-74460457D01*
X174187600Y-74461881D01*
X174187598Y-74461881D01*
X173977067Y-74518293D01*
X173977065Y-74518294D01*
X173971757Y-74519716D01*
X173966776Y-74522039D01*
X173966775Y-74522039D01*
X173769238Y-74614151D01*
X173769233Y-74614154D01*
X173764251Y-74616477D01*
X173707785Y-74656015D01*
X173581211Y-74744643D01*
X173581208Y-74744645D01*
X173576700Y-74747802D01*
X173414802Y-74909700D01*
X173411645Y-74914208D01*
X173411643Y-74914211D01*
X173371198Y-74971973D01*
X173283477Y-75097251D01*
X173281154Y-75102233D01*
X173281151Y-75102238D01*
X173212324Y-75249840D01*
X173186716Y-75304757D01*
X173185294Y-75310065D01*
X173185293Y-75310067D01*
X173173785Y-75353016D01*
X173127457Y-75525913D01*
X173107502Y-75754000D01*
X171330523Y-75754000D01*
X171324055Y-75581726D01*
X171274970Y-75347789D01*
X171187171Y-75125467D01*
X171063168Y-74921117D01*
X170973103Y-74817326D01*
X170910007Y-74744614D01*
X170910005Y-74744612D01*
X170906507Y-74740581D01*
X170902381Y-74737198D01*
X170902377Y-74737194D01*
X170725795Y-74592407D01*
X170721667Y-74589022D01*
X170717031Y-74586383D01*
X170717028Y-74586381D01*
X170518577Y-74473416D01*
X170513934Y-74470773D01*
X170289247Y-74389216D01*
X170283998Y-74388267D01*
X170283995Y-74388266D01*
X170058115Y-74347420D01*
X170058107Y-74347419D01*
X170054031Y-74346682D01*
X170035641Y-74345815D01*
X170030456Y-74345570D01*
X170030449Y-74345570D01*
X170028968Y-74345500D01*
X169860988Y-74345500D01*
X169682825Y-74360617D01*
X169677661Y-74361957D01*
X169677657Y-74361958D01*
X169456625Y-74419327D01*
X169456620Y-74419329D01*
X169451460Y-74420668D01*
X169446594Y-74422860D01*
X169238381Y-74516653D01*
X169238378Y-74516654D01*
X169233520Y-74518843D01*
X169035238Y-74652334D01*
X168862282Y-74817326D01*
X168719598Y-75009100D01*
X168717182Y-75013851D01*
X168717180Y-75013855D01*
X168665785Y-75114942D01*
X168611267Y-75222172D01*
X168604026Y-75245492D01*
X168541968Y-75445349D01*
X168541967Y-75445355D01*
X168540384Y-75450452D01*
X168539683Y-75455744D01*
X168511770Y-75666342D01*
X168508977Y-75687411D01*
X120403172Y-75687411D01*
X120401852Y-75671361D01*
X120347431Y-75454702D01*
X120258354Y-75249840D01*
X120181108Y-75130436D01*
X120139822Y-75066617D01*
X120139820Y-75066614D01*
X120137014Y-75062277D01*
X119986670Y-74897051D01*
X119982619Y-74893852D01*
X119982615Y-74893848D01*
X119815414Y-74761800D01*
X119815410Y-74761798D01*
X119811359Y-74758598D01*
X119798862Y-74751699D01*
X119625529Y-74656015D01*
X119615789Y-74650638D01*
X119610920Y-74648914D01*
X119610916Y-74648912D01*
X119410087Y-74577795D01*
X119410083Y-74577794D01*
X119405212Y-74576069D01*
X119400119Y-74575162D01*
X119400116Y-74575161D01*
X119190373Y-74537800D01*
X119190367Y-74537799D01*
X119185284Y-74536894D01*
X119111452Y-74535992D01*
X118967081Y-74534228D01*
X118967079Y-74534228D01*
X118961911Y-74534165D01*
X118741091Y-74567955D01*
X118528756Y-74637357D01*
X118330607Y-74740507D01*
X118326474Y-74743610D01*
X118326471Y-74743612D01*
X118156100Y-74871530D01*
X118151965Y-74874635D01*
X118148393Y-74878373D01*
X118059120Y-74971792D01*
X117997629Y-75036138D01*
X117994715Y-75040410D01*
X117994714Y-75040411D01*
X117939806Y-75120904D01*
X117871743Y-75220680D01*
X117777688Y-75423305D01*
X117717989Y-75638570D01*
X117694251Y-75860695D01*
X117694548Y-75865848D01*
X117694548Y-75865851D01*
X117700011Y-75960590D01*
X117707110Y-76083715D01*
X117708247Y-76088761D01*
X117708248Y-76088767D01*
X117723171Y-76154984D01*
X117756222Y-76301639D01*
X117840266Y-76508616D01*
X117956987Y-76699088D01*
X118103250Y-76867938D01*
X118275126Y-77010632D01*
X118316115Y-77034584D01*
X118348445Y-77053476D01*
X118397169Y-77105114D01*
X118410240Y-77174897D01*
X118383509Y-77240669D01*
X118343055Y-77274027D01*
X118330607Y-77280507D01*
X118326474Y-77283610D01*
X118326471Y-77283612D01*
X118302247Y-77301800D01*
X118151965Y-77414635D01*
X117997629Y-77576138D01*
X117871743Y-77760680D01*
X117777688Y-77963305D01*
X117717989Y-78178570D01*
X117694251Y-78400695D01*
X117694548Y-78405848D01*
X117694548Y-78405851D01*
X117700011Y-78500590D01*
X117707110Y-78623715D01*
X117708247Y-78628761D01*
X117708248Y-78628767D01*
X117728119Y-78716939D01*
X117756222Y-78841639D01*
X117840266Y-79048616D01*
X117956987Y-79239088D01*
X118103250Y-79407938D01*
X118275126Y-79550632D01*
X118345595Y-79591811D01*
X118348445Y-79593476D01*
X118397169Y-79645114D01*
X118410240Y-79714897D01*
X118383509Y-79780669D01*
X118343055Y-79814027D01*
X118330607Y-79820507D01*
X118326474Y-79823610D01*
X118326471Y-79823612D01*
X118226374Y-79898767D01*
X118151965Y-79954635D01*
X118148393Y-79958373D01*
X118006748Y-80106596D01*
X117997629Y-80116138D01*
X117871743Y-80300680D01*
X117856003Y-80334590D01*
X117781567Y-80494949D01*
X117777688Y-80503305D01*
X117717989Y-80718570D01*
X117694251Y-80940695D01*
X117694548Y-80945848D01*
X117694548Y-80945851D01*
X117703068Y-81093612D01*
X117707110Y-81163715D01*
X117708247Y-81168761D01*
X117708248Y-81168767D01*
X117728119Y-81256939D01*
X117756222Y-81381639D01*
X117840266Y-81588616D01*
X117956987Y-81779088D01*
X118103250Y-81947938D01*
X118275126Y-82090632D01*
X118316341Y-82114716D01*
X118348445Y-82133476D01*
X118397169Y-82185114D01*
X118410240Y-82254897D01*
X118383509Y-82320669D01*
X118343055Y-82354027D01*
X118330607Y-82360507D01*
X118326474Y-82363610D01*
X118326471Y-82363612D01*
X118156100Y-82491530D01*
X118151965Y-82494635D01*
X118148393Y-82498373D01*
X118006748Y-82646596D01*
X117997629Y-82656138D01*
X117994715Y-82660410D01*
X117994714Y-82660411D01*
X117939838Y-82740857D01*
X117871743Y-82840680D01*
X117856003Y-82874590D01*
X117780938Y-83036304D01*
X117777688Y-83043305D01*
X117717989Y-83258570D01*
X117694251Y-83480695D01*
X117694548Y-83485848D01*
X117694548Y-83485851D01*
X117700011Y-83580590D01*
X117707110Y-83703715D01*
X117708247Y-83708761D01*
X117708248Y-83708767D01*
X117728119Y-83796939D01*
X117756222Y-83921639D01*
X117792633Y-84011308D01*
X117831094Y-84106027D01*
X117840266Y-84128616D01*
X117885779Y-84202887D01*
X117939253Y-84290148D01*
X117956987Y-84319088D01*
X118103250Y-84487938D01*
X118211356Y-84577689D01*
X118259716Y-84617838D01*
X118275126Y-84630632D01*
X118316153Y-84654606D01*
X118348445Y-84673476D01*
X118397169Y-84725114D01*
X118410240Y-84794897D01*
X118383509Y-84860669D01*
X118343055Y-84894027D01*
X118330607Y-84900507D01*
X118326474Y-84903610D01*
X118326471Y-84903612D01*
X118159045Y-85029319D01*
X118151965Y-85034635D01*
X118148393Y-85038373D01*
X118006748Y-85186596D01*
X117997629Y-85196138D01*
X117871743Y-85380680D01*
X117844012Y-85440421D01*
X117799064Y-85537255D01*
X117777688Y-85583305D01*
X117717989Y-85798570D01*
X117694251Y-86020695D01*
X117694548Y-86025848D01*
X117694548Y-86025851D01*
X117701511Y-86146614D01*
X117707110Y-86243715D01*
X117708247Y-86248761D01*
X117708248Y-86248767D01*
X117728119Y-86336939D01*
X117756222Y-86461639D01*
X117840266Y-86668616D01*
X117842965Y-86673020D01*
X117928629Y-86812811D01*
X117956987Y-86859088D01*
X117960367Y-86862990D01*
X117963921Y-86867093D01*
X118103250Y-87027938D01*
X118275126Y-87170632D01*
X118345595Y-87211811D01*
X118348445Y-87213476D01*
X118397169Y-87265114D01*
X118410240Y-87334897D01*
X118383509Y-87400669D01*
X118343055Y-87434027D01*
X118339444Y-87435907D01*
X118330607Y-87440507D01*
X118326474Y-87443610D01*
X118326471Y-87443612D01*
X118226374Y-87518767D01*
X118151965Y-87574635D01*
X118148393Y-87578373D01*
X118006748Y-87726596D01*
X117997629Y-87736138D01*
X117994715Y-87740410D01*
X117994714Y-87740411D01*
X117956376Y-87796613D01*
X117871743Y-87920680D01*
X117777688Y-88123305D01*
X117717989Y-88338570D01*
X117694251Y-88560695D01*
X117694548Y-88565848D01*
X117694548Y-88565851D01*
X117700011Y-88660590D01*
X117707110Y-88783715D01*
X117708247Y-88788761D01*
X117708248Y-88788767D01*
X117727690Y-88875033D01*
X117756222Y-89001639D01*
X117840266Y-89208616D01*
X117956987Y-89399088D01*
X118103250Y-89567938D01*
X118275126Y-89710632D01*
X118345595Y-89751811D01*
X118348445Y-89753476D01*
X118397169Y-89805114D01*
X118410240Y-89874897D01*
X118383509Y-89940669D01*
X118343055Y-89974027D01*
X118330607Y-89980507D01*
X118326474Y-89983610D01*
X118326471Y-89983612D01*
X118226374Y-90058767D01*
X118151965Y-90114635D01*
X118148393Y-90118373D01*
X118006748Y-90266596D01*
X117997629Y-90276138D01*
X117871743Y-90460680D01*
X117833011Y-90544121D01*
X117796471Y-90622841D01*
X117777688Y-90663305D01*
X117717989Y-90878570D01*
X117694251Y-91100695D01*
X117694548Y-91105848D01*
X117694548Y-91105851D01*
X117699857Y-91197919D01*
X117707110Y-91323715D01*
X117708247Y-91328761D01*
X117708248Y-91328767D01*
X117714750Y-91357618D01*
X117756222Y-91541639D01*
X117840266Y-91748616D01*
X117956987Y-91939088D01*
X118103250Y-92107938D01*
X118275126Y-92250632D01*
X118345595Y-92291811D01*
X118348445Y-92293476D01*
X118397169Y-92345114D01*
X118410240Y-92414897D01*
X118383509Y-92480669D01*
X118343055Y-92514027D01*
X118330607Y-92520507D01*
X118326474Y-92523610D01*
X118326471Y-92523612D01*
X118302247Y-92541800D01*
X118151965Y-92654635D01*
X117997629Y-92816138D01*
X117871743Y-93000680D01*
X117777688Y-93203305D01*
X117717989Y-93418570D01*
X117694251Y-93640695D01*
X97557418Y-93640695D01*
X97541852Y-93451361D01*
X97487431Y-93234702D01*
X97398354Y-93029840D01*
X97277014Y-92842277D01*
X97126670Y-92677051D01*
X97122619Y-92673852D01*
X97122615Y-92673848D01*
X96955414Y-92541800D01*
X96955410Y-92541798D01*
X96951359Y-92538598D01*
X96910053Y-92515796D01*
X96860084Y-92465364D01*
X96845312Y-92395921D01*
X96870428Y-92329516D01*
X96897780Y-92302909D01*
X96941603Y-92271650D01*
X97076860Y-92175173D01*
X97131180Y-92121043D01*
X97231435Y-92021137D01*
X97235096Y-92017489D01*
X97294594Y-91934689D01*
X97362435Y-91840277D01*
X97365453Y-91836077D01*
X97369145Y-91828608D01*
X97462136Y-91640453D01*
X97462137Y-91640451D01*
X97464430Y-91635811D01*
X97529370Y-91422069D01*
X97558529Y-91200590D01*
X97560156Y-91134000D01*
X97541852Y-90911361D01*
X97487431Y-90694702D01*
X97398354Y-90489840D01*
X97277014Y-90302277D01*
X97126670Y-90137051D01*
X97122619Y-90133852D01*
X97122615Y-90133848D01*
X96955414Y-90001800D01*
X96955410Y-90001798D01*
X96951359Y-89998598D01*
X96910053Y-89975796D01*
X96860084Y-89925364D01*
X96845312Y-89855921D01*
X96870428Y-89789516D01*
X96897780Y-89762909D01*
X96941603Y-89731650D01*
X97076860Y-89635173D01*
X97235096Y-89477489D01*
X97294594Y-89394689D01*
X97362435Y-89300277D01*
X97365453Y-89296077D01*
X97403132Y-89219840D01*
X97462136Y-89100453D01*
X97462137Y-89100451D01*
X97464430Y-89095811D01*
X97529370Y-88882069D01*
X97558529Y-88660590D01*
X97560156Y-88594000D01*
X97541852Y-88371361D01*
X97487431Y-88154702D01*
X97398354Y-87949840D01*
X97341641Y-87862175D01*
X97279822Y-87766617D01*
X97279820Y-87766614D01*
X97277014Y-87762277D01*
X97126670Y-87597051D01*
X97122619Y-87593852D01*
X97122615Y-87593848D01*
X96955414Y-87461800D01*
X96955410Y-87461798D01*
X96951359Y-87458598D01*
X96910053Y-87435796D01*
X96860084Y-87385364D01*
X96845312Y-87315921D01*
X96870428Y-87249516D01*
X96897780Y-87222909D01*
X96941603Y-87191650D01*
X97076860Y-87095173D01*
X97235096Y-86937489D01*
X97294594Y-86854689D01*
X97362435Y-86760277D01*
X97365453Y-86756077D01*
X97403132Y-86679840D01*
X97462136Y-86560453D01*
X97462137Y-86560451D01*
X97464430Y-86555811D01*
X97526845Y-86350381D01*
X97527865Y-86347023D01*
X97527865Y-86347021D01*
X97529370Y-86342069D01*
X97558529Y-86120590D01*
X97558657Y-86115364D01*
X97560074Y-86057365D01*
X97560074Y-86057361D01*
X97560156Y-86054000D01*
X97541852Y-85831361D01*
X97487431Y-85614702D01*
X97398354Y-85409840D01*
X97309692Y-85272789D01*
X97279822Y-85226617D01*
X97279820Y-85226614D01*
X97277014Y-85222277D01*
X97126670Y-85057051D01*
X97122619Y-85053852D01*
X97122615Y-85053848D01*
X96955414Y-84921800D01*
X96955410Y-84921798D01*
X96951359Y-84918598D01*
X96910053Y-84895796D01*
X96860084Y-84845364D01*
X96845312Y-84775921D01*
X96870428Y-84709516D01*
X96897780Y-84682909D01*
X96941603Y-84651650D01*
X97076860Y-84555173D01*
X97235096Y-84397489D01*
X97294594Y-84314689D01*
X97362435Y-84220277D01*
X97365453Y-84216077D01*
X97371502Y-84203839D01*
X97462136Y-84020453D01*
X97462137Y-84020451D01*
X97464430Y-84015811D01*
X97529370Y-83802069D01*
X97558529Y-83580590D01*
X97558657Y-83575364D01*
X97560074Y-83517365D01*
X97560074Y-83517361D01*
X97560156Y-83514000D01*
X97541852Y-83291361D01*
X97487431Y-83074702D01*
X97398354Y-82869840D01*
X97312674Y-82737399D01*
X97279822Y-82686617D01*
X97279820Y-82686614D01*
X97277014Y-82682277D01*
X97126670Y-82517051D01*
X97122619Y-82513852D01*
X97122615Y-82513848D01*
X96955414Y-82381800D01*
X96955410Y-82381798D01*
X96951359Y-82378598D01*
X96910053Y-82355796D01*
X96860084Y-82305364D01*
X96845312Y-82235921D01*
X96870428Y-82169516D01*
X96897780Y-82142909D01*
X96941603Y-82111650D01*
X97076860Y-82015173D01*
X97235096Y-81857489D01*
X97294594Y-81774689D01*
X97362435Y-81680277D01*
X97365453Y-81676077D01*
X97372738Y-81661338D01*
X97462136Y-81480453D01*
X97462137Y-81480451D01*
X97464430Y-81475811D01*
X97529370Y-81262069D01*
X97558529Y-81040590D01*
X97560156Y-80974000D01*
X97541852Y-80751361D01*
X97487431Y-80534702D01*
X97398354Y-80329840D01*
X97277014Y-80142277D01*
X97126670Y-79977051D01*
X97122619Y-79973852D01*
X97122615Y-79973848D01*
X96955414Y-79841800D01*
X96955410Y-79841798D01*
X96951359Y-79838598D01*
X96910053Y-79815796D01*
X96860084Y-79765364D01*
X96845312Y-79695921D01*
X96870428Y-79629516D01*
X96897780Y-79602909D01*
X96941603Y-79571650D01*
X97076860Y-79475173D01*
X97235096Y-79317489D01*
X97294594Y-79234689D01*
X97362435Y-79140277D01*
X97365453Y-79136077D01*
X97403132Y-79059840D01*
X97462136Y-78940453D01*
X97462137Y-78940451D01*
X97464430Y-78935811D01*
X97529370Y-78722069D01*
X97558529Y-78500590D01*
X97558611Y-78497240D01*
X97560074Y-78437365D01*
X97560074Y-78437361D01*
X97560156Y-78434000D01*
X97541852Y-78211361D01*
X97487431Y-77994702D01*
X97398354Y-77789840D01*
X97277014Y-77602277D01*
X97126670Y-77437051D01*
X97122619Y-77433852D01*
X97122615Y-77433848D01*
X96955414Y-77301800D01*
X96955410Y-77301798D01*
X96951359Y-77298598D01*
X96910053Y-77275796D01*
X96860084Y-77225364D01*
X96845312Y-77155921D01*
X96870428Y-77089516D01*
X96897780Y-77062909D01*
X96941603Y-77031650D01*
X97076860Y-76935173D01*
X97090462Y-76921619D01*
X97231435Y-76781137D01*
X97235096Y-76777489D01*
X97294594Y-76694689D01*
X97362435Y-76600277D01*
X97365453Y-76596077D01*
X97411365Y-76503182D01*
X97462136Y-76400453D01*
X97462137Y-76400451D01*
X97464430Y-76395811D01*
X97529370Y-76182069D01*
X97558529Y-75960590D01*
X97559240Y-75931492D01*
X97560074Y-75897365D01*
X97560074Y-75897361D01*
X97560156Y-75894000D01*
X97541852Y-75671361D01*
X97487431Y-75454702D01*
X97398354Y-75249840D01*
X97321108Y-75130436D01*
X97279822Y-75066617D01*
X97279820Y-75066614D01*
X97277014Y-75062277D01*
X97126670Y-74897051D01*
X97122619Y-74893852D01*
X97122615Y-74893848D01*
X96955414Y-74761800D01*
X96955410Y-74761798D01*
X96951359Y-74758598D01*
X96938862Y-74751699D01*
X96765529Y-74656015D01*
X96755789Y-74650638D01*
X96750920Y-74648914D01*
X96750916Y-74648912D01*
X96550087Y-74577795D01*
X96550083Y-74577794D01*
X96545212Y-74576069D01*
X96540119Y-74575162D01*
X96540116Y-74575161D01*
X96330373Y-74537800D01*
X96330367Y-74537799D01*
X96325284Y-74536894D01*
X96251452Y-74535992D01*
X96107081Y-74534228D01*
X96107079Y-74534228D01*
X96101911Y-74534165D01*
X95881091Y-74567955D01*
X95668756Y-74637357D01*
X95470607Y-74740507D01*
X95466474Y-74743610D01*
X95466471Y-74743612D01*
X95296100Y-74871530D01*
X95291965Y-74874635D01*
X95288393Y-74878373D01*
X95199120Y-74971792D01*
X95137629Y-75036138D01*
X95134715Y-75040410D01*
X95134714Y-75040411D01*
X95079806Y-75120904D01*
X95011743Y-75220680D01*
X94917688Y-75423305D01*
X94857989Y-75638570D01*
X94834251Y-75860695D01*
X94834548Y-75865848D01*
X94834548Y-75865851D01*
X94840011Y-75960590D01*
X94847110Y-76083715D01*
X94848247Y-76088761D01*
X94848248Y-76088767D01*
X94863171Y-76154984D01*
X94896222Y-76301639D01*
X94980266Y-76508616D01*
X95096987Y-76699088D01*
X95243250Y-76867938D01*
X95415126Y-77010632D01*
X95456115Y-77034584D01*
X95488445Y-77053476D01*
X95537169Y-77105114D01*
X95550240Y-77174897D01*
X95523509Y-77240669D01*
X95483055Y-77274027D01*
X95470607Y-77280507D01*
X95466474Y-77283610D01*
X95466471Y-77283612D01*
X95442247Y-77301800D01*
X95291965Y-77414635D01*
X95137629Y-77576138D01*
X95011743Y-77760680D01*
X94917688Y-77963305D01*
X94857989Y-78178570D01*
X94834251Y-78400695D01*
X94834548Y-78405848D01*
X94834548Y-78405851D01*
X94840011Y-78500590D01*
X94847110Y-78623715D01*
X94848247Y-78628761D01*
X94848248Y-78628767D01*
X94868119Y-78716939D01*
X94896222Y-78841639D01*
X94980266Y-79048616D01*
X95096987Y-79239088D01*
X95243250Y-79407938D01*
X95415126Y-79550632D01*
X95485595Y-79591811D01*
X95488445Y-79593476D01*
X95537169Y-79645114D01*
X95550240Y-79714897D01*
X95523509Y-79780669D01*
X95483055Y-79814027D01*
X95470607Y-79820507D01*
X95466474Y-79823610D01*
X95466471Y-79823612D01*
X95366374Y-79898767D01*
X95291965Y-79954635D01*
X95288393Y-79958373D01*
X95146748Y-80106596D01*
X95137629Y-80116138D01*
X95011743Y-80300680D01*
X94996003Y-80334590D01*
X94921567Y-80494949D01*
X94917688Y-80503305D01*
X94857989Y-80718570D01*
X94834251Y-80940695D01*
X94834548Y-80945848D01*
X94834548Y-80945851D01*
X94843068Y-81093612D01*
X94847110Y-81163715D01*
X94848247Y-81168761D01*
X94848248Y-81168767D01*
X94868119Y-81256939D01*
X94896222Y-81381639D01*
X94980266Y-81588616D01*
X95096987Y-81779088D01*
X95243250Y-81947938D01*
X95415126Y-82090632D01*
X95456341Y-82114716D01*
X95488445Y-82133476D01*
X95537169Y-82185114D01*
X95550240Y-82254897D01*
X95523509Y-82320669D01*
X95483055Y-82354027D01*
X95470607Y-82360507D01*
X95466474Y-82363610D01*
X95466471Y-82363612D01*
X95296100Y-82491530D01*
X95291965Y-82494635D01*
X95288393Y-82498373D01*
X95146748Y-82646596D01*
X95137629Y-82656138D01*
X95134715Y-82660410D01*
X95134714Y-82660411D01*
X95079838Y-82740857D01*
X95011743Y-82840680D01*
X94996003Y-82874590D01*
X94920938Y-83036304D01*
X94917688Y-83043305D01*
X94857989Y-83258570D01*
X94834251Y-83480695D01*
X94834548Y-83485848D01*
X94834548Y-83485851D01*
X94840011Y-83580590D01*
X94847110Y-83703715D01*
X94848247Y-83708761D01*
X94848248Y-83708767D01*
X94868119Y-83796939D01*
X94896222Y-83921639D01*
X94932633Y-84011308D01*
X94971094Y-84106027D01*
X94980266Y-84128616D01*
X95025779Y-84202887D01*
X95079253Y-84290148D01*
X95096987Y-84319088D01*
X95243250Y-84487938D01*
X95351356Y-84577689D01*
X95399716Y-84617838D01*
X95415126Y-84630632D01*
X95456153Y-84654606D01*
X95488445Y-84673476D01*
X95537169Y-84725114D01*
X95550240Y-84794897D01*
X95523509Y-84860669D01*
X95483055Y-84894027D01*
X95470607Y-84900507D01*
X95466474Y-84903610D01*
X95466471Y-84903612D01*
X95299045Y-85029319D01*
X95291965Y-85034635D01*
X95288393Y-85038373D01*
X95146748Y-85186596D01*
X95137629Y-85196138D01*
X95011743Y-85380680D01*
X94984012Y-85440421D01*
X94939064Y-85537255D01*
X94917688Y-85583305D01*
X94857989Y-85798570D01*
X94834251Y-86020695D01*
X94834548Y-86025848D01*
X94834548Y-86025851D01*
X94841511Y-86146614D01*
X94847110Y-86243715D01*
X94848247Y-86248761D01*
X94848248Y-86248767D01*
X94868119Y-86336939D01*
X94896222Y-86461639D01*
X94980266Y-86668616D01*
X94982965Y-86673020D01*
X95068629Y-86812811D01*
X95096987Y-86859088D01*
X95100367Y-86862990D01*
X95103921Y-86867093D01*
X95243250Y-87027938D01*
X95415126Y-87170632D01*
X95485595Y-87211811D01*
X95488445Y-87213476D01*
X95537169Y-87265114D01*
X95550240Y-87334897D01*
X95523509Y-87400669D01*
X95483055Y-87434027D01*
X95479444Y-87435907D01*
X95470607Y-87440507D01*
X95466474Y-87443610D01*
X95466471Y-87443612D01*
X95366374Y-87518767D01*
X95291965Y-87574635D01*
X95288393Y-87578373D01*
X95146748Y-87726596D01*
X95137629Y-87736138D01*
X95134715Y-87740410D01*
X95134714Y-87740411D01*
X95096376Y-87796613D01*
X95011743Y-87920680D01*
X94917688Y-88123305D01*
X94857989Y-88338570D01*
X94834251Y-88560695D01*
X94834548Y-88565848D01*
X94834548Y-88565851D01*
X94840011Y-88660590D01*
X94847110Y-88783715D01*
X94848247Y-88788761D01*
X94848248Y-88788767D01*
X94867690Y-88875033D01*
X94896222Y-89001639D01*
X94980266Y-89208616D01*
X95096987Y-89399088D01*
X95243250Y-89567938D01*
X95415126Y-89710632D01*
X95485595Y-89751811D01*
X95488445Y-89753476D01*
X95537169Y-89805114D01*
X95550240Y-89874897D01*
X95523509Y-89940669D01*
X95483055Y-89974027D01*
X95470607Y-89980507D01*
X95466474Y-89983610D01*
X95466471Y-89983612D01*
X95366374Y-90058767D01*
X95291965Y-90114635D01*
X95288393Y-90118373D01*
X95146748Y-90266596D01*
X95137629Y-90276138D01*
X95011743Y-90460680D01*
X94973011Y-90544121D01*
X94936471Y-90622841D01*
X94917688Y-90663305D01*
X94857989Y-90878570D01*
X94834251Y-91100695D01*
X94834548Y-91105848D01*
X94834548Y-91105851D01*
X94839857Y-91197919D01*
X94847110Y-91323715D01*
X94848247Y-91328761D01*
X94848248Y-91328767D01*
X94854750Y-91357618D01*
X94896222Y-91541639D01*
X94980266Y-91748616D01*
X95096987Y-91939088D01*
X95243250Y-92107938D01*
X95415126Y-92250632D01*
X95485595Y-92291811D01*
X95488445Y-92293476D01*
X95537169Y-92345114D01*
X95550240Y-92414897D01*
X95523509Y-92480669D01*
X95483055Y-92514027D01*
X95470607Y-92520507D01*
X95466474Y-92523610D01*
X95466471Y-92523612D01*
X95442247Y-92541800D01*
X95291965Y-92654635D01*
X95137629Y-92816138D01*
X95011743Y-93000680D01*
X94917688Y-93203305D01*
X94857989Y-93418570D01*
X94834251Y-93640695D01*
X80715457Y-93640695D01*
X80607019Y-93557788D01*
X80607015Y-93557785D01*
X80602999Y-93554715D01*
X80381974Y-93436203D01*
X80377193Y-93434557D01*
X80377189Y-93434555D01*
X80149633Y-93356201D01*
X80144844Y-93354552D01*
X80041311Y-93336669D01*
X79901620Y-93312540D01*
X79901614Y-93312539D01*
X79897710Y-93311865D01*
X79893749Y-93311685D01*
X79893748Y-93311685D01*
X79869069Y-93310564D01*
X79869050Y-93310564D01*
X79867650Y-93310500D01*
X79692985Y-93310500D01*
X79690477Y-93310702D01*
X79690472Y-93310702D01*
X79511056Y-93325137D01*
X79511051Y-93325138D01*
X79506015Y-93325543D01*
X79501107Y-93326748D01*
X79501104Y-93326749D01*
X79269326Y-93383680D01*
X79262461Y-93385366D01*
X79257809Y-93387341D01*
X79257805Y-93387342D01*
X79094828Y-93456522D01*
X79031604Y-93483359D01*
X78819385Y-93617000D01*
X78631262Y-93782853D01*
X78472076Y-93976649D01*
X78345922Y-94193404D01*
X78344109Y-94198127D01*
X78344108Y-94198129D01*
X78311211Y-94283829D01*
X78256045Y-94427539D01*
X78255012Y-94432485D01*
X78255010Y-94432491D01*
X78229774Y-94553292D01*
X78204759Y-94673033D01*
X78204530Y-94678082D01*
X78204529Y-94678088D01*
X78203256Y-94706129D01*
X78193382Y-94923568D01*
X72108000Y-94923568D01*
X72108000Y-87817134D01*
X79197500Y-87817134D01*
X79204255Y-87879316D01*
X79255385Y-88015705D01*
X79342739Y-88132261D01*
X79459295Y-88219615D01*
X79595684Y-88270745D01*
X79657866Y-88277500D01*
X81784134Y-88277500D01*
X81846316Y-88270745D01*
X81982705Y-88219615D01*
X82099261Y-88132261D01*
X82186615Y-88015705D01*
X82237745Y-87879316D01*
X82244500Y-87817134D01*
X87097500Y-87817134D01*
X87104255Y-87879316D01*
X87155385Y-88015705D01*
X87242739Y-88132261D01*
X87359295Y-88219615D01*
X87495684Y-88270745D01*
X87557866Y-88277500D01*
X89684134Y-88277500D01*
X89746316Y-88270745D01*
X89882705Y-88219615D01*
X89999261Y-88132261D01*
X90086615Y-88015705D01*
X90137745Y-87879316D01*
X90144500Y-87817134D01*
X90144500Y-85990866D01*
X90137745Y-85928684D01*
X90086615Y-85792295D01*
X89999261Y-85675739D01*
X89882705Y-85588385D01*
X89874296Y-85585233D01*
X89874295Y-85585232D01*
X89779311Y-85549624D01*
X89722546Y-85506983D01*
X89697846Y-85440421D01*
X89713053Y-85371072D01*
X89736569Y-85340472D01*
X89799172Y-85280752D01*
X89806217Y-85272789D01*
X89938934Y-85094410D01*
X89944542Y-85085366D01*
X90045303Y-84887182D01*
X90049307Y-84877321D01*
X90115235Y-84665001D01*
X90117520Y-84654606D01*
X90119992Y-84635959D01*
X90117795Y-84621792D01*
X90104611Y-84618000D01*
X87139481Y-84618000D01*
X87125950Y-84621973D01*
X87124425Y-84632580D01*
X87150058Y-84754745D01*
X87153118Y-84764942D01*
X87234779Y-84971722D01*
X87239510Y-84981254D01*
X87354851Y-85171330D01*
X87361115Y-85179919D01*
X87509297Y-85350683D01*
X87538837Y-85415243D01*
X87528783Y-85485524D01*
X87482329Y-85539213D01*
X87458362Y-85551246D01*
X87385370Y-85578610D01*
X87359295Y-85588385D01*
X87242739Y-85675739D01*
X87155385Y-85792295D01*
X87104255Y-85928684D01*
X87097500Y-85990866D01*
X87097500Y-87817134D01*
X82244500Y-87817134D01*
X82244500Y-85990866D01*
X82237745Y-85928684D01*
X82186615Y-85792295D01*
X82099261Y-85675739D01*
X81982705Y-85588385D01*
X81974296Y-85585233D01*
X81974295Y-85585232D01*
X81879311Y-85549624D01*
X81822546Y-85506983D01*
X81797846Y-85440421D01*
X81813053Y-85371072D01*
X81836569Y-85340472D01*
X81899172Y-85280752D01*
X81906217Y-85272789D01*
X82038934Y-85094410D01*
X82044542Y-85085366D01*
X82145303Y-84887182D01*
X82149307Y-84877321D01*
X82215235Y-84665001D01*
X82217520Y-84654606D01*
X82219992Y-84635959D01*
X82217795Y-84621792D01*
X82204611Y-84618000D01*
X79239481Y-84618000D01*
X79225950Y-84621973D01*
X79224425Y-84632580D01*
X79250058Y-84754745D01*
X79253118Y-84764942D01*
X79334779Y-84971722D01*
X79339510Y-84981254D01*
X79454851Y-85171330D01*
X79461115Y-85179919D01*
X79609297Y-85350683D01*
X79638837Y-85415243D01*
X79628783Y-85485524D01*
X79582329Y-85539213D01*
X79558362Y-85551246D01*
X79485370Y-85578610D01*
X79459295Y-85588385D01*
X79342739Y-85675739D01*
X79255385Y-85792295D01*
X79204255Y-85928684D01*
X79197500Y-85990866D01*
X79197500Y-87817134D01*
X72108000Y-87817134D01*
X72108000Y-81759065D01*
X79194064Y-81759065D01*
X79194264Y-81764394D01*
X79194264Y-81764395D01*
X79194786Y-81778297D01*
X79202809Y-81991993D01*
X79250674Y-82220117D01*
X79252632Y-82225076D01*
X79252633Y-82225078D01*
X79261435Y-82247365D01*
X79336292Y-82436914D01*
X79457213Y-82636187D01*
X79460708Y-82640215D01*
X79460709Y-82640216D01*
X79545041Y-82737399D01*
X79609982Y-82812237D01*
X79614113Y-82815624D01*
X79786100Y-82956646D01*
X79786106Y-82956650D01*
X79790228Y-82960030D01*
X79794864Y-82962669D01*
X79794867Y-82962671D01*
X79834482Y-82985221D01*
X79883789Y-83036304D01*
X79897650Y-83105934D01*
X79871666Y-83172005D01*
X79842517Y-83199243D01*
X79711990Y-83287120D01*
X79703704Y-83293781D01*
X79542823Y-83447254D01*
X79535783Y-83455211D01*
X79403066Y-83633590D01*
X79397458Y-83642634D01*
X79296697Y-83840818D01*
X79292693Y-83850679D01*
X79226765Y-84062999D01*
X79224480Y-84073394D01*
X79222008Y-84092041D01*
X79224205Y-84106208D01*
X79237389Y-84110000D01*
X82202519Y-84110000D01*
X82216050Y-84106027D01*
X82217575Y-84095420D01*
X82191942Y-83973255D01*
X82188882Y-83963058D01*
X82107221Y-83756278D01*
X82102490Y-83746746D01*
X81987149Y-83556670D01*
X81980880Y-83548075D01*
X81835172Y-83380161D01*
X81827536Y-83372735D01*
X81655614Y-83231768D01*
X81646847Y-83225742D01*
X81607539Y-83203367D01*
X81558233Y-83152285D01*
X81544371Y-83082655D01*
X81570354Y-83016584D01*
X81599504Y-82989345D01*
X81605630Y-82985221D01*
X81734752Y-82898291D01*
X81771726Y-82863020D01*
X81899553Y-82741078D01*
X81903410Y-82737399D01*
X82042548Y-82550391D01*
X82051864Y-82532069D01*
X82099300Y-82438767D01*
X82148188Y-82342612D01*
X82217310Y-82120005D01*
X82230807Y-82018171D01*
X82247236Y-81894219D01*
X82247236Y-81894215D01*
X82247936Y-81888935D01*
X82243060Y-81759065D01*
X87094064Y-81759065D01*
X87094264Y-81764394D01*
X87094264Y-81764395D01*
X87094786Y-81778297D01*
X87102809Y-81991993D01*
X87150674Y-82220117D01*
X87152632Y-82225076D01*
X87152633Y-82225078D01*
X87161435Y-82247365D01*
X87236292Y-82436914D01*
X87357213Y-82636187D01*
X87360708Y-82640215D01*
X87360709Y-82640216D01*
X87445041Y-82737399D01*
X87509982Y-82812237D01*
X87514113Y-82815624D01*
X87686100Y-82956646D01*
X87686106Y-82956650D01*
X87690228Y-82960030D01*
X87694864Y-82962669D01*
X87694867Y-82962671D01*
X87734482Y-82985221D01*
X87783789Y-83036304D01*
X87797650Y-83105934D01*
X87771666Y-83172005D01*
X87742517Y-83199243D01*
X87611990Y-83287120D01*
X87603704Y-83293781D01*
X87442823Y-83447254D01*
X87435783Y-83455211D01*
X87303066Y-83633590D01*
X87297458Y-83642634D01*
X87196697Y-83840818D01*
X87192693Y-83850679D01*
X87126765Y-84062999D01*
X87124480Y-84073394D01*
X87122008Y-84092041D01*
X87124205Y-84106208D01*
X87137389Y-84110000D01*
X90102519Y-84110000D01*
X90116050Y-84106027D01*
X90117575Y-84095420D01*
X90091942Y-83973255D01*
X90088882Y-83963058D01*
X90007221Y-83756278D01*
X90002490Y-83746746D01*
X89887149Y-83556670D01*
X89880880Y-83548075D01*
X89735172Y-83380161D01*
X89727536Y-83372735D01*
X89555614Y-83231768D01*
X89546847Y-83225742D01*
X89507539Y-83203367D01*
X89458233Y-83152285D01*
X89444371Y-83082655D01*
X89470354Y-83016584D01*
X89499504Y-82989345D01*
X89505630Y-82985221D01*
X89634752Y-82898291D01*
X89671726Y-82863020D01*
X89799553Y-82741078D01*
X89803410Y-82737399D01*
X89942548Y-82550391D01*
X89951864Y-82532069D01*
X89999300Y-82438767D01*
X90048188Y-82342612D01*
X90117310Y-82120005D01*
X90130807Y-82018171D01*
X90147236Y-81894219D01*
X90147236Y-81894215D01*
X90147936Y-81888935D01*
X90139191Y-81656007D01*
X90091326Y-81427883D01*
X90076528Y-81390411D01*
X90023816Y-81256939D01*
X90005708Y-81211086D01*
X89902249Y-81040590D01*
X89887555Y-81016374D01*
X89887553Y-81016371D01*
X89884787Y-81011813D01*
X89863565Y-80987357D01*
X89735518Y-80839796D01*
X89735516Y-80839794D01*
X89732018Y-80835763D01*
X89635377Y-80756522D01*
X89555900Y-80691354D01*
X89555894Y-80691350D01*
X89551772Y-80687970D01*
X89349200Y-80572660D01*
X89344184Y-80570839D01*
X89344179Y-80570837D01*
X89135112Y-80494949D01*
X89135108Y-80494948D01*
X89130097Y-80493129D01*
X89124848Y-80492180D01*
X89124845Y-80492179D01*
X88904809Y-80452390D01*
X88904802Y-80452389D01*
X88900725Y-80451652D01*
X88882801Y-80450807D01*
X88877786Y-80450570D01*
X88877779Y-80450570D01*
X88876298Y-80450500D01*
X88412473Y-80450500D01*
X88238743Y-80465241D01*
X88233579Y-80466581D01*
X88233575Y-80466582D01*
X88018292Y-80522459D01*
X88018288Y-80522461D01*
X88013127Y-80523800D01*
X88008261Y-80525992D01*
X87805464Y-80617345D01*
X87805461Y-80617346D01*
X87800603Y-80619535D01*
X87607248Y-80749709D01*
X87438590Y-80910601D01*
X87299452Y-81097609D01*
X87297036Y-81102360D01*
X87297034Y-81102364D01*
X87246632Y-81201498D01*
X87193812Y-81305388D01*
X87124690Y-81527995D01*
X87123989Y-81533284D01*
X87104507Y-81680277D01*
X87094064Y-81759065D01*
X82243060Y-81759065D01*
X82239191Y-81656007D01*
X82191326Y-81427883D01*
X82176528Y-81390411D01*
X82123816Y-81256939D01*
X82105708Y-81211086D01*
X82002249Y-81040590D01*
X81987555Y-81016374D01*
X81987553Y-81016371D01*
X81984787Y-81011813D01*
X81963565Y-80987357D01*
X81835518Y-80839796D01*
X81835516Y-80839794D01*
X81832018Y-80835763D01*
X81735377Y-80756522D01*
X81655900Y-80691354D01*
X81655894Y-80691350D01*
X81651772Y-80687970D01*
X81449200Y-80572660D01*
X81444184Y-80570839D01*
X81444179Y-80570837D01*
X81235112Y-80494949D01*
X81235108Y-80494948D01*
X81230097Y-80493129D01*
X81224848Y-80492180D01*
X81224845Y-80492179D01*
X81004809Y-80452390D01*
X81004802Y-80452389D01*
X81000725Y-80451652D01*
X80982801Y-80450807D01*
X80977786Y-80450570D01*
X80977779Y-80450570D01*
X80976298Y-80450500D01*
X80512473Y-80450500D01*
X80338743Y-80465241D01*
X80333579Y-80466581D01*
X80333575Y-80466582D01*
X80118292Y-80522459D01*
X80118288Y-80522461D01*
X80113127Y-80523800D01*
X80108261Y-80525992D01*
X79905464Y-80617345D01*
X79905461Y-80617346D01*
X79900603Y-80619535D01*
X79707248Y-80749709D01*
X79538590Y-80910601D01*
X79399452Y-81097609D01*
X79397036Y-81102360D01*
X79397034Y-81102364D01*
X79346632Y-81201498D01*
X79293812Y-81305388D01*
X79224690Y-81527995D01*
X79223989Y-81533284D01*
X79204507Y-81680277D01*
X79194064Y-81759065D01*
X72108000Y-81759065D01*
X72108000Y-78167134D01*
X79197500Y-78167134D01*
X79204255Y-78229316D01*
X79255385Y-78365705D01*
X79342739Y-78482261D01*
X79459295Y-78569615D01*
X79595684Y-78620745D01*
X79657866Y-78627500D01*
X81784134Y-78627500D01*
X81846316Y-78620745D01*
X81982705Y-78569615D01*
X82099261Y-78482261D01*
X82186615Y-78365705D01*
X82237745Y-78229316D01*
X82244500Y-78167134D01*
X87097500Y-78167134D01*
X87104255Y-78229316D01*
X87155385Y-78365705D01*
X87242739Y-78482261D01*
X87359295Y-78569615D01*
X87495684Y-78620745D01*
X87557866Y-78627500D01*
X89684134Y-78627500D01*
X89746316Y-78620745D01*
X89882705Y-78569615D01*
X89999261Y-78482261D01*
X90086615Y-78365705D01*
X90137745Y-78229316D01*
X90144500Y-78167134D01*
X90144500Y-76340866D01*
X90137745Y-76278684D01*
X90086615Y-76142295D01*
X89999261Y-76025739D01*
X89882705Y-75938385D01*
X89874296Y-75935233D01*
X89874295Y-75935232D01*
X89779311Y-75899624D01*
X89722546Y-75856983D01*
X89697846Y-75790421D01*
X89713053Y-75721072D01*
X89736569Y-75690472D01*
X89799172Y-75630752D01*
X89806217Y-75622789D01*
X89938934Y-75444410D01*
X89944542Y-75435366D01*
X90045303Y-75237182D01*
X90049307Y-75227321D01*
X90115235Y-75015001D01*
X90117520Y-75004606D01*
X90119992Y-74985959D01*
X90117795Y-74971792D01*
X90104611Y-74968000D01*
X87139481Y-74968000D01*
X87125950Y-74971973D01*
X87124425Y-74982580D01*
X87150058Y-75104745D01*
X87153118Y-75114942D01*
X87234779Y-75321722D01*
X87239510Y-75331254D01*
X87354851Y-75521330D01*
X87361115Y-75529919D01*
X87509297Y-75700683D01*
X87538837Y-75765243D01*
X87528783Y-75835524D01*
X87482329Y-75889213D01*
X87458362Y-75901246D01*
X87405821Y-75920943D01*
X87359295Y-75938385D01*
X87242739Y-76025739D01*
X87155385Y-76142295D01*
X87104255Y-76278684D01*
X87097500Y-76340866D01*
X87097500Y-78167134D01*
X82244500Y-78167134D01*
X82244500Y-76340866D01*
X82237745Y-76278684D01*
X82186615Y-76142295D01*
X82099261Y-76025739D01*
X81982705Y-75938385D01*
X81974296Y-75935233D01*
X81974295Y-75935232D01*
X81879311Y-75899624D01*
X81822546Y-75856983D01*
X81797846Y-75790421D01*
X81813053Y-75721072D01*
X81836569Y-75690472D01*
X81899172Y-75630752D01*
X81906217Y-75622789D01*
X82038934Y-75444410D01*
X82044542Y-75435366D01*
X82145303Y-75237182D01*
X82149307Y-75227321D01*
X82215235Y-75015001D01*
X82217520Y-75004606D01*
X82219992Y-74985959D01*
X82217795Y-74971792D01*
X82204611Y-74968000D01*
X79239481Y-74968000D01*
X79225950Y-74971973D01*
X79224425Y-74982580D01*
X79250058Y-75104745D01*
X79253118Y-75114942D01*
X79334779Y-75321722D01*
X79339510Y-75331254D01*
X79454851Y-75521330D01*
X79461115Y-75529919D01*
X79609297Y-75700683D01*
X79638837Y-75765243D01*
X79628783Y-75835524D01*
X79582329Y-75889213D01*
X79558362Y-75901246D01*
X79505821Y-75920943D01*
X79459295Y-75938385D01*
X79342739Y-76025739D01*
X79255385Y-76142295D01*
X79204255Y-76278684D01*
X79197500Y-76340866D01*
X79197500Y-78167134D01*
X72108000Y-78167134D01*
X72108000Y-72109065D01*
X79194064Y-72109065D01*
X79202809Y-72341993D01*
X79250674Y-72570117D01*
X79336292Y-72786914D01*
X79457213Y-72986187D01*
X79460708Y-72990215D01*
X79460709Y-72990216D01*
X79545041Y-73087399D01*
X79609982Y-73162237D01*
X79614113Y-73165624D01*
X79786100Y-73306646D01*
X79786106Y-73306650D01*
X79790228Y-73310030D01*
X79794864Y-73312669D01*
X79794867Y-73312671D01*
X79834482Y-73335221D01*
X79883789Y-73386304D01*
X79897650Y-73455934D01*
X79871666Y-73522005D01*
X79842517Y-73549243D01*
X79711990Y-73637120D01*
X79703704Y-73643781D01*
X79542823Y-73797254D01*
X79535783Y-73805211D01*
X79403066Y-73983590D01*
X79397458Y-73992634D01*
X79296697Y-74190818D01*
X79292693Y-74200679D01*
X79226765Y-74412999D01*
X79224480Y-74423394D01*
X79222008Y-74442041D01*
X79224205Y-74456208D01*
X79237389Y-74460000D01*
X82202519Y-74460000D01*
X82216050Y-74456027D01*
X82217575Y-74445420D01*
X82191942Y-74323255D01*
X82188882Y-74313058D01*
X82107221Y-74106278D01*
X82102490Y-74096746D01*
X81987149Y-73906670D01*
X81980880Y-73898075D01*
X81835172Y-73730161D01*
X81827536Y-73722735D01*
X81655614Y-73581768D01*
X81646847Y-73575742D01*
X81607539Y-73553367D01*
X81558233Y-73502285D01*
X81544371Y-73432655D01*
X81570354Y-73366584D01*
X81599504Y-73339345D01*
X81605630Y-73335221D01*
X81734752Y-73248291D01*
X81903410Y-73087399D01*
X82042548Y-72900391D01*
X82148188Y-72692612D01*
X82217310Y-72470005D01*
X82247936Y-72238935D01*
X82243060Y-72109065D01*
X87094064Y-72109065D01*
X87102809Y-72341993D01*
X87150674Y-72570117D01*
X87236292Y-72786914D01*
X87357213Y-72986187D01*
X87360708Y-72990215D01*
X87360709Y-72990216D01*
X87445041Y-73087399D01*
X87509982Y-73162237D01*
X87514113Y-73165624D01*
X87686100Y-73306646D01*
X87686106Y-73306650D01*
X87690228Y-73310030D01*
X87694864Y-73312669D01*
X87694867Y-73312671D01*
X87734482Y-73335221D01*
X87783789Y-73386304D01*
X87797650Y-73455934D01*
X87771666Y-73522005D01*
X87742517Y-73549243D01*
X87611990Y-73637120D01*
X87603704Y-73643781D01*
X87442823Y-73797254D01*
X87435783Y-73805211D01*
X87303066Y-73983590D01*
X87297458Y-73992634D01*
X87196697Y-74190818D01*
X87192693Y-74200679D01*
X87126765Y-74412999D01*
X87124480Y-74423394D01*
X87122008Y-74442041D01*
X87124205Y-74456208D01*
X87137389Y-74460000D01*
X90102519Y-74460000D01*
X90116050Y-74456027D01*
X90117575Y-74445420D01*
X90091942Y-74323255D01*
X90088882Y-74313058D01*
X90007221Y-74106278D01*
X90002490Y-74096746D01*
X89887149Y-73906670D01*
X89880880Y-73898075D01*
X89735172Y-73730161D01*
X89727536Y-73722735D01*
X89555614Y-73581768D01*
X89546847Y-73575742D01*
X89507539Y-73553367D01*
X89458233Y-73502285D01*
X89444371Y-73432655D01*
X89470354Y-73366584D01*
X89499504Y-73339345D01*
X89505630Y-73335221D01*
X89634752Y-73248291D01*
X89803410Y-73087399D01*
X89942548Y-72900391D01*
X90048188Y-72692612D01*
X90117310Y-72470005D01*
X90147936Y-72238935D01*
X90139191Y-72006007D01*
X90091326Y-71777883D01*
X90005708Y-71561086D01*
X89884787Y-71361813D01*
X89800672Y-71264879D01*
X89735518Y-71189796D01*
X89735516Y-71189794D01*
X89732018Y-71185763D01*
X89689269Y-71150711D01*
X89555900Y-71041354D01*
X89555894Y-71041350D01*
X89551772Y-71037970D01*
X89349200Y-70922660D01*
X89344184Y-70920839D01*
X89344179Y-70920837D01*
X89135112Y-70844949D01*
X89135108Y-70844948D01*
X89130097Y-70843129D01*
X89124848Y-70842180D01*
X89124845Y-70842179D01*
X88904809Y-70802390D01*
X88904802Y-70802389D01*
X88900725Y-70801652D01*
X88882801Y-70800807D01*
X88877786Y-70800570D01*
X88877779Y-70800570D01*
X88876298Y-70800500D01*
X88412473Y-70800500D01*
X88238743Y-70815241D01*
X88233579Y-70816581D01*
X88233575Y-70816582D01*
X88018292Y-70872459D01*
X88018288Y-70872461D01*
X88013127Y-70873800D01*
X88008261Y-70875992D01*
X87805464Y-70967345D01*
X87805461Y-70967346D01*
X87800603Y-70969535D01*
X87607248Y-71099709D01*
X87438590Y-71260601D01*
X87299452Y-71447609D01*
X87193812Y-71655388D01*
X87124690Y-71877995D01*
X87094064Y-72109065D01*
X82243060Y-72109065D01*
X82239191Y-72006007D01*
X82191326Y-71777883D01*
X82105708Y-71561086D01*
X81984787Y-71361813D01*
X81900672Y-71264879D01*
X81835518Y-71189796D01*
X81835516Y-71189794D01*
X81832018Y-71185763D01*
X81789269Y-71150711D01*
X81655900Y-71041354D01*
X81655894Y-71041350D01*
X81651772Y-71037970D01*
X81449200Y-70922660D01*
X81444184Y-70920839D01*
X81444179Y-70920837D01*
X81235112Y-70844949D01*
X81235108Y-70844948D01*
X81230097Y-70843129D01*
X81224848Y-70842180D01*
X81224845Y-70842179D01*
X81004809Y-70802390D01*
X81004802Y-70802389D01*
X81000725Y-70801652D01*
X80982801Y-70800807D01*
X80977786Y-70800570D01*
X80977779Y-70800570D01*
X80976298Y-70800500D01*
X80512473Y-70800500D01*
X80338743Y-70815241D01*
X80333579Y-70816581D01*
X80333575Y-70816582D01*
X80118292Y-70872459D01*
X80118288Y-70872461D01*
X80113127Y-70873800D01*
X80108261Y-70875992D01*
X79905464Y-70967345D01*
X79905461Y-70967346D01*
X79900603Y-70969535D01*
X79707248Y-71099709D01*
X79538590Y-71260601D01*
X79399452Y-71447609D01*
X79293812Y-71655388D01*
X79224690Y-71877995D01*
X79194064Y-72109065D01*
X72108000Y-72109065D01*
X72108000Y-68517134D01*
X79197500Y-68517134D01*
X79204255Y-68579316D01*
X79255385Y-68715705D01*
X79342739Y-68832261D01*
X79459295Y-68919615D01*
X79595684Y-68970745D01*
X79657866Y-68977500D01*
X81784134Y-68977500D01*
X81846316Y-68970745D01*
X81982705Y-68919615D01*
X82099261Y-68832261D01*
X82186615Y-68715705D01*
X82237745Y-68579316D01*
X82244500Y-68517134D01*
X87097500Y-68517134D01*
X87104255Y-68579316D01*
X87155385Y-68715705D01*
X87242739Y-68832261D01*
X87359295Y-68919615D01*
X87495684Y-68970745D01*
X87557866Y-68977500D01*
X89684134Y-68977500D01*
X89746316Y-68970745D01*
X89882705Y-68919615D01*
X89999261Y-68832261D01*
X90086615Y-68715705D01*
X90137745Y-68579316D01*
X90144500Y-68517134D01*
X90144500Y-66690866D01*
X90137745Y-66628684D01*
X90086615Y-66492295D01*
X89999261Y-66375739D01*
X89882705Y-66288385D01*
X89874296Y-66285233D01*
X89874295Y-66285232D01*
X89779311Y-66249624D01*
X89722546Y-66206983D01*
X89697846Y-66140421D01*
X89713053Y-66071072D01*
X89736569Y-66040472D01*
X89799172Y-65980752D01*
X89806217Y-65972789D01*
X89938934Y-65794410D01*
X89944542Y-65785366D01*
X90045303Y-65587182D01*
X90049307Y-65577321D01*
X90115235Y-65365001D01*
X90117520Y-65354606D01*
X90119992Y-65335959D01*
X90117795Y-65321792D01*
X90104611Y-65318000D01*
X87139481Y-65318000D01*
X87125950Y-65321973D01*
X87124425Y-65332580D01*
X87150058Y-65454745D01*
X87153118Y-65464942D01*
X87234779Y-65671722D01*
X87239510Y-65681254D01*
X87354851Y-65871330D01*
X87361115Y-65879919D01*
X87509297Y-66050683D01*
X87538837Y-66115243D01*
X87528783Y-66185524D01*
X87482329Y-66239213D01*
X87458362Y-66251246D01*
X87372233Y-66283535D01*
X87359295Y-66288385D01*
X87242739Y-66375739D01*
X87155385Y-66492295D01*
X87104255Y-66628684D01*
X87097500Y-66690866D01*
X87097500Y-68517134D01*
X82244500Y-68517134D01*
X82244500Y-66690866D01*
X82237745Y-66628684D01*
X82186615Y-66492295D01*
X82099261Y-66375739D01*
X81982705Y-66288385D01*
X81974296Y-66285233D01*
X81974295Y-66285232D01*
X81879311Y-66249624D01*
X81822546Y-66206983D01*
X81797846Y-66140421D01*
X81813053Y-66071072D01*
X81836569Y-66040472D01*
X81899172Y-65980752D01*
X81906217Y-65972789D01*
X82038934Y-65794410D01*
X82044542Y-65785366D01*
X82145303Y-65587182D01*
X82149307Y-65577321D01*
X82215235Y-65365001D01*
X82217520Y-65354606D01*
X82219992Y-65335959D01*
X82217795Y-65321792D01*
X82204611Y-65318000D01*
X79239481Y-65318000D01*
X79225950Y-65321973D01*
X79224425Y-65332580D01*
X79250058Y-65454745D01*
X79253118Y-65464942D01*
X79334779Y-65671722D01*
X79339510Y-65681254D01*
X79454851Y-65871330D01*
X79461115Y-65879919D01*
X79609297Y-66050683D01*
X79638837Y-66115243D01*
X79628783Y-66185524D01*
X79582329Y-66239213D01*
X79558362Y-66251246D01*
X79472233Y-66283535D01*
X79459295Y-66288385D01*
X79342739Y-66375739D01*
X79255385Y-66492295D01*
X79204255Y-66628684D01*
X79197500Y-66690866D01*
X79197500Y-68517134D01*
X72108000Y-68517134D01*
X72108000Y-62459065D01*
X79194064Y-62459065D01*
X79202809Y-62691993D01*
X79250674Y-62920117D01*
X79336292Y-63136914D01*
X79457213Y-63336187D01*
X79460708Y-63340215D01*
X79460709Y-63340216D01*
X79545041Y-63437399D01*
X79609982Y-63512237D01*
X79614113Y-63515624D01*
X79786100Y-63656646D01*
X79786106Y-63656650D01*
X79790228Y-63660030D01*
X79794864Y-63662669D01*
X79794867Y-63662671D01*
X79834482Y-63685221D01*
X79883789Y-63736304D01*
X79897650Y-63805934D01*
X79871666Y-63872005D01*
X79842517Y-63899243D01*
X79711990Y-63987120D01*
X79703704Y-63993781D01*
X79542823Y-64147254D01*
X79535783Y-64155211D01*
X79403066Y-64333590D01*
X79397458Y-64342634D01*
X79296697Y-64540818D01*
X79292693Y-64550679D01*
X79226765Y-64762999D01*
X79224480Y-64773394D01*
X79222008Y-64792041D01*
X79224205Y-64806208D01*
X79237389Y-64810000D01*
X82202519Y-64810000D01*
X82216050Y-64806027D01*
X82217575Y-64795420D01*
X82191942Y-64673255D01*
X82188882Y-64663058D01*
X82107221Y-64456278D01*
X82102490Y-64446746D01*
X81987149Y-64256670D01*
X81980880Y-64248075D01*
X81835172Y-64080161D01*
X81827536Y-64072735D01*
X81655614Y-63931768D01*
X81646847Y-63925742D01*
X81607539Y-63903367D01*
X81558233Y-63852285D01*
X81544371Y-63782655D01*
X81570354Y-63716584D01*
X81599504Y-63689345D01*
X81605630Y-63685221D01*
X81734752Y-63598291D01*
X81903410Y-63437399D01*
X82042548Y-63250391D01*
X82148188Y-63042612D01*
X82217310Y-62820005D01*
X82247936Y-62588935D01*
X82243060Y-62459065D01*
X87094064Y-62459065D01*
X87102809Y-62691993D01*
X87150674Y-62920117D01*
X87236292Y-63136914D01*
X87357213Y-63336187D01*
X87360708Y-63340215D01*
X87360709Y-63340216D01*
X87445041Y-63437399D01*
X87509982Y-63512237D01*
X87514113Y-63515624D01*
X87686100Y-63656646D01*
X87686106Y-63656650D01*
X87690228Y-63660030D01*
X87694864Y-63662669D01*
X87694867Y-63662671D01*
X87734482Y-63685221D01*
X87783789Y-63736304D01*
X87797650Y-63805934D01*
X87771666Y-63872005D01*
X87742517Y-63899243D01*
X87611990Y-63987120D01*
X87603704Y-63993781D01*
X87442823Y-64147254D01*
X87435783Y-64155211D01*
X87303066Y-64333590D01*
X87297458Y-64342634D01*
X87196697Y-64540818D01*
X87192693Y-64550679D01*
X87126765Y-64762999D01*
X87124480Y-64773394D01*
X87122008Y-64792041D01*
X87124205Y-64806208D01*
X87137389Y-64810000D01*
X90102519Y-64810000D01*
X90116050Y-64806027D01*
X90117575Y-64795420D01*
X90091942Y-64673255D01*
X90088882Y-64663058D01*
X90007221Y-64456278D01*
X90002490Y-64446746D01*
X89887149Y-64256670D01*
X89880880Y-64248075D01*
X89735172Y-64080161D01*
X89727536Y-64072735D01*
X89555614Y-63931768D01*
X89546847Y-63925742D01*
X89507539Y-63903367D01*
X89458233Y-63852285D01*
X89444371Y-63782655D01*
X89470354Y-63716584D01*
X89499504Y-63689345D01*
X89505630Y-63685221D01*
X89634752Y-63598291D01*
X89803410Y-63437399D01*
X89942548Y-63250391D01*
X90048188Y-63042612D01*
X90117310Y-62820005D01*
X90147936Y-62588935D01*
X90139191Y-62356007D01*
X90091326Y-62127883D01*
X90005708Y-61911086D01*
X89884787Y-61711813D01*
X89800672Y-61614879D01*
X89735518Y-61539796D01*
X89735516Y-61539794D01*
X89732018Y-61535763D01*
X89689269Y-61500711D01*
X89555900Y-61391354D01*
X89555894Y-61391350D01*
X89551772Y-61387970D01*
X89349200Y-61272660D01*
X89344184Y-61270839D01*
X89344179Y-61270837D01*
X89135112Y-61194949D01*
X89135108Y-61194948D01*
X89130097Y-61193129D01*
X89124848Y-61192180D01*
X89124845Y-61192179D01*
X88904809Y-61152390D01*
X88904802Y-61152389D01*
X88900725Y-61151652D01*
X88882801Y-61150807D01*
X88877786Y-61150570D01*
X88877779Y-61150570D01*
X88876298Y-61150500D01*
X88412473Y-61150500D01*
X88238743Y-61165241D01*
X88233579Y-61166581D01*
X88233575Y-61166582D01*
X88018292Y-61222459D01*
X88018288Y-61222461D01*
X88013127Y-61223800D01*
X88008261Y-61225992D01*
X87805464Y-61317345D01*
X87805461Y-61317346D01*
X87800603Y-61319535D01*
X87607248Y-61449709D01*
X87438590Y-61610601D01*
X87299452Y-61797609D01*
X87193812Y-62005388D01*
X87124690Y-62227995D01*
X87094064Y-62459065D01*
X82243060Y-62459065D01*
X82239191Y-62356007D01*
X82191326Y-62127883D01*
X82105708Y-61911086D01*
X81984787Y-61711813D01*
X81900672Y-61614879D01*
X81835518Y-61539796D01*
X81835516Y-61539794D01*
X81832018Y-61535763D01*
X81789269Y-61500711D01*
X81655900Y-61391354D01*
X81655894Y-61391350D01*
X81651772Y-61387970D01*
X81449200Y-61272660D01*
X81444184Y-61270839D01*
X81444179Y-61270837D01*
X81235112Y-61194949D01*
X81235108Y-61194948D01*
X81230097Y-61193129D01*
X81224848Y-61192180D01*
X81224845Y-61192179D01*
X81004809Y-61152390D01*
X81004802Y-61152389D01*
X81000725Y-61151652D01*
X80982801Y-61150807D01*
X80977786Y-61150570D01*
X80977779Y-61150570D01*
X80976298Y-61150500D01*
X80512473Y-61150500D01*
X80338743Y-61165241D01*
X80333579Y-61166581D01*
X80333575Y-61166582D01*
X80118292Y-61222459D01*
X80118288Y-61222461D01*
X80113127Y-61223800D01*
X80108261Y-61225992D01*
X79905464Y-61317345D01*
X79905461Y-61317346D01*
X79900603Y-61319535D01*
X79707248Y-61449709D01*
X79538590Y-61610601D01*
X79399452Y-61797609D01*
X79293812Y-62005388D01*
X79224690Y-62227995D01*
X79194064Y-62459065D01*
X72108000Y-62459065D01*
X72108000Y-59341134D01*
X154746823Y-59341134D01*
X154753578Y-59403316D01*
X154804708Y-59539705D01*
X154892062Y-59656261D01*
X155008618Y-59743615D01*
X155145007Y-59794745D01*
X155207189Y-59801500D01*
X157303457Y-59801500D01*
X157365639Y-59794745D01*
X157502028Y-59743615D01*
X157618584Y-59656261D01*
X157705938Y-59539705D01*
X157757068Y-59403316D01*
X157763823Y-59341134D01*
X157763823Y-58293000D01*
X159742158Y-58293000D01*
X159760788Y-58529711D01*
X159816218Y-58760594D01*
X159907083Y-58979963D01*
X159909669Y-58984183D01*
X160028564Y-59178202D01*
X160028568Y-59178208D01*
X160031147Y-59182416D01*
X160185354Y-59362969D01*
X160365907Y-59517176D01*
X160370115Y-59519755D01*
X160370121Y-59519759D01*
X160564140Y-59638654D01*
X160568360Y-59641240D01*
X160572930Y-59643133D01*
X160572934Y-59643135D01*
X160783156Y-59730211D01*
X160787729Y-59732105D01*
X160835672Y-59743615D01*
X161013799Y-59786380D01*
X161013805Y-59786381D01*
X161018612Y-59787535D01*
X161255323Y-59806165D01*
X161492034Y-59787535D01*
X161496841Y-59786381D01*
X161496847Y-59786380D01*
X161674974Y-59743615D01*
X161722917Y-59732105D01*
X161727490Y-59730211D01*
X161937712Y-59643135D01*
X161937716Y-59643133D01*
X161942286Y-59641240D01*
X161946506Y-59638654D01*
X162140525Y-59519759D01*
X162140531Y-59519755D01*
X162144739Y-59517176D01*
X162325292Y-59362969D01*
X162479499Y-59182416D01*
X162482078Y-59178208D01*
X162482082Y-59178202D01*
X162600977Y-58984183D01*
X162603563Y-58979963D01*
X162694428Y-58760594D01*
X162749858Y-58529711D01*
X162768488Y-58293000D01*
X162749858Y-58056289D01*
X162736227Y-57999509D01*
X162695583Y-57830218D01*
X162694428Y-57825406D01*
X162653732Y-57727156D01*
X162605458Y-57610611D01*
X162605456Y-57610607D01*
X162603563Y-57606037D01*
X162549315Y-57517512D01*
X162482082Y-57407798D01*
X162482078Y-57407792D01*
X162479499Y-57403584D01*
X162325292Y-57223031D01*
X162144739Y-57068824D01*
X162140531Y-57066245D01*
X162140525Y-57066241D01*
X161946506Y-56947346D01*
X161942286Y-56944760D01*
X161937716Y-56942867D01*
X161937712Y-56942865D01*
X161727490Y-56855789D01*
X161727488Y-56855788D01*
X161722917Y-56853895D01*
X161642714Y-56834640D01*
X161496847Y-56799620D01*
X161496841Y-56799619D01*
X161492034Y-56798465D01*
X161255323Y-56779835D01*
X161018612Y-56798465D01*
X161013805Y-56799619D01*
X161013799Y-56799620D01*
X160867932Y-56834640D01*
X160787729Y-56853895D01*
X160783158Y-56855788D01*
X160783156Y-56855789D01*
X160572934Y-56942865D01*
X160572930Y-56942867D01*
X160568360Y-56944760D01*
X160564140Y-56947346D01*
X160370121Y-57066241D01*
X160370115Y-57066245D01*
X160365907Y-57068824D01*
X160185354Y-57223031D01*
X160031147Y-57403584D01*
X160028568Y-57407792D01*
X160028564Y-57407798D01*
X159961331Y-57517512D01*
X159907083Y-57606037D01*
X159905190Y-57610607D01*
X159905188Y-57610611D01*
X159856914Y-57727156D01*
X159816218Y-57825406D01*
X159815063Y-57830218D01*
X159774420Y-57999509D01*
X159760788Y-58056289D01*
X159742158Y-58293000D01*
X157763823Y-58293000D01*
X157763823Y-57244866D01*
X157757068Y-57182684D01*
X157705938Y-57046295D01*
X157618584Y-56929739D01*
X157502028Y-56842385D01*
X157365639Y-56791255D01*
X157303457Y-56784500D01*
X155207189Y-56784500D01*
X155145007Y-56791255D01*
X155008618Y-56842385D01*
X154892062Y-56929739D01*
X154804708Y-57046295D01*
X154753578Y-57182684D01*
X154746823Y-57244866D01*
X154746823Y-59341134D01*
X72108000Y-59341134D01*
X72108000Y-56655151D01*
X127687296Y-56655151D01*
X127699480Y-56908798D01*
X127707148Y-56947346D01*
X127725401Y-57039109D01*
X127749021Y-57157857D01*
X127750600Y-57162255D01*
X127750602Y-57162262D01*
X127795022Y-57285980D01*
X127834831Y-57396858D01*
X127955025Y-57620551D01*
X127957820Y-57624294D01*
X127957822Y-57624297D01*
X128104171Y-57820282D01*
X128104176Y-57820288D01*
X128106963Y-57824020D01*
X128110272Y-57827300D01*
X128110277Y-57827306D01*
X128208859Y-57925031D01*
X128287307Y-58002797D01*
X128291069Y-58005555D01*
X128291072Y-58005558D01*
X128360261Y-58056289D01*
X128492094Y-58152953D01*
X128496229Y-58155129D01*
X128496233Y-58155131D01*
X128614289Y-58217243D01*
X128716827Y-58271191D01*
X128956568Y-58354912D01*
X129206050Y-58402278D01*
X129326532Y-58407011D01*
X129455125Y-58412064D01*
X129455130Y-58412064D01*
X129459793Y-58412247D01*
X129558774Y-58401407D01*
X129707569Y-58385112D01*
X129707575Y-58385111D01*
X129712222Y-58384602D01*
X129821680Y-58355784D01*
X129953273Y-58321138D01*
X129957793Y-58319948D01*
X130076353Y-58269011D01*
X130186807Y-58221557D01*
X130186810Y-58221555D01*
X130191110Y-58219708D01*
X130195090Y-58217245D01*
X130195094Y-58217243D01*
X130403064Y-58088547D01*
X130403066Y-58088545D01*
X130407047Y-58086082D01*
X130442240Y-58056289D01*
X130597289Y-57925031D01*
X130597291Y-57925029D01*
X130600862Y-57922006D01*
X130768295Y-57731084D01*
X130905669Y-57517512D01*
X131009967Y-57285980D01*
X131078896Y-57041575D01*
X131092210Y-56936919D01*
X131110545Y-56792798D01*
X131110545Y-56792792D01*
X131110943Y-56789667D01*
X131111079Y-56784500D01*
X131113208Y-56703160D01*
X131113291Y-56700000D01*
X131094472Y-56446759D01*
X131038428Y-56199082D01*
X130946391Y-55962409D01*
X130925866Y-55926498D01*
X130822702Y-55745997D01*
X130822700Y-55745995D01*
X130820383Y-55741940D01*
X130663171Y-55542517D01*
X130478209Y-55368523D01*
X130434483Y-55338189D01*
X130273393Y-55226437D01*
X130273390Y-55226435D01*
X130269561Y-55223779D01*
X130265384Y-55221719D01*
X130265377Y-55221715D01*
X130045996Y-55113528D01*
X130045992Y-55113527D01*
X130041810Y-55111464D01*
X129799960Y-55034047D01*
X129795355Y-55033297D01*
X129553935Y-54993980D01*
X129553934Y-54993980D01*
X129549323Y-54993229D01*
X129422364Y-54991567D01*
X129300083Y-54989966D01*
X129300080Y-54989966D01*
X129295406Y-54989905D01*
X129043787Y-55024149D01*
X128799993Y-55095208D01*
X128569380Y-55201522D01*
X128565471Y-55204085D01*
X128360928Y-55338189D01*
X128360923Y-55338193D01*
X128357015Y-55340755D01*
X128167562Y-55509848D01*
X128005183Y-55705087D01*
X127873447Y-55922182D01*
X127775246Y-56156365D01*
X127712738Y-56402490D01*
X127687296Y-56655151D01*
X72108000Y-56655151D01*
X72108000Y-50448134D01*
X127691500Y-50448134D01*
X127698255Y-50510316D01*
X127749385Y-50646705D01*
X127836739Y-50763261D01*
X127953295Y-50850615D01*
X128089684Y-50901745D01*
X128151866Y-50908500D01*
X130648134Y-50908500D01*
X130710316Y-50901745D01*
X130846705Y-50850615D01*
X130963261Y-50763261D01*
X131050615Y-50646705D01*
X131101745Y-50510316D01*
X131108500Y-50448134D01*
X131108500Y-47951866D01*
X131101745Y-47889684D01*
X131050615Y-47753295D01*
X130963261Y-47636739D01*
X130846705Y-47549385D01*
X130710316Y-47498255D01*
X130648134Y-47491500D01*
X128151866Y-47491500D01*
X128089684Y-47498255D01*
X127953295Y-47549385D01*
X127836739Y-47636739D01*
X127749385Y-47753295D01*
X127698255Y-47889684D01*
X127691500Y-47951866D01*
X127691500Y-50448134D01*
X72108000Y-50448134D01*
X72108000Y-47053207D01*
X72109746Y-47032303D01*
X72112264Y-47017335D01*
X72113071Y-47012539D01*
X72113224Y-47000000D01*
X72110586Y-46981578D01*
X72109386Y-46959417D01*
X72110816Y-46917577D01*
X72110816Y-46917568D01*
X78193382Y-46917568D01*
X78193963Y-46922588D01*
X78193963Y-46922592D01*
X78202920Y-47000000D01*
X78222208Y-47166699D01*
X78223587Y-47171573D01*
X78223588Y-47171577D01*
X78284121Y-47385495D01*
X78290494Y-47408017D01*
X78292628Y-47412592D01*
X78292630Y-47412599D01*
X78374766Y-47588739D01*
X78396484Y-47635313D01*
X78399326Y-47639494D01*
X78399326Y-47639495D01*
X78534605Y-47838552D01*
X78534608Y-47838556D01*
X78537451Y-47842739D01*
X78540928Y-47846416D01*
X78540929Y-47846417D01*
X78640647Y-47951866D01*
X78709767Y-48024959D01*
X78713793Y-48028037D01*
X78713794Y-48028038D01*
X78904981Y-48174212D01*
X78904985Y-48174215D01*
X78909001Y-48177285D01*
X79130026Y-48295797D01*
X79134807Y-48297443D01*
X79134811Y-48297445D01*
X79360538Y-48375169D01*
X79367156Y-48377448D01*
X79470689Y-48395331D01*
X79610380Y-48419460D01*
X79610386Y-48419461D01*
X79614290Y-48420135D01*
X79618251Y-48420315D01*
X79618252Y-48420315D01*
X79642931Y-48421436D01*
X79642950Y-48421436D01*
X79644350Y-48421500D01*
X79819015Y-48421500D01*
X79821523Y-48421298D01*
X79821528Y-48421298D01*
X80000944Y-48406863D01*
X80000949Y-48406862D01*
X80005985Y-48406457D01*
X80010893Y-48405252D01*
X80010896Y-48405251D01*
X80244625Y-48347841D01*
X80249539Y-48346634D01*
X80254191Y-48344659D01*
X80254195Y-48344658D01*
X80475741Y-48250617D01*
X80475742Y-48250617D01*
X80480396Y-48248641D01*
X80679200Y-48123448D01*
X80688334Y-48117696D01*
X80688335Y-48117695D01*
X80692615Y-48115000D01*
X80880738Y-47949147D01*
X81039924Y-47755351D01*
X81166078Y-47538596D01*
X81182054Y-47496979D01*
X81254143Y-47309181D01*
X81255955Y-47304461D01*
X81259192Y-47288970D01*
X81306206Y-47063921D01*
X81307241Y-47058967D01*
X81307628Y-47050461D01*
X81313883Y-46912699D01*
X81318618Y-46808432D01*
X81301856Y-46663568D01*
X174205382Y-46663568D01*
X174234208Y-46912699D01*
X174235586Y-46917568D01*
X174235588Y-46917577D01*
X174276999Y-47063921D01*
X174302494Y-47154017D01*
X174304628Y-47158592D01*
X174304630Y-47158599D01*
X174370338Y-47299509D01*
X174408484Y-47381313D01*
X174411326Y-47385494D01*
X174411326Y-47385495D01*
X174546605Y-47584552D01*
X174546608Y-47584556D01*
X174549451Y-47588739D01*
X174552928Y-47592416D01*
X174552929Y-47592417D01*
X174653238Y-47698491D01*
X174721767Y-47770959D01*
X174725793Y-47774037D01*
X174725794Y-47774038D01*
X174916981Y-47920212D01*
X174916985Y-47920215D01*
X174921001Y-47923285D01*
X174925459Y-47925675D01*
X174925460Y-47925676D01*
X174975470Y-47952491D01*
X175142026Y-48041797D01*
X175146807Y-48043443D01*
X175146811Y-48043445D01*
X175344907Y-48111655D01*
X175379156Y-48123448D01*
X175482689Y-48141331D01*
X175622380Y-48165460D01*
X175622386Y-48165461D01*
X175626290Y-48166135D01*
X175630251Y-48166315D01*
X175630252Y-48166315D01*
X175654931Y-48167436D01*
X175654950Y-48167436D01*
X175656350Y-48167500D01*
X175831015Y-48167500D01*
X175833523Y-48167298D01*
X175833528Y-48167298D01*
X176012944Y-48152863D01*
X176012949Y-48152862D01*
X176017985Y-48152457D01*
X176022893Y-48151252D01*
X176022896Y-48151251D01*
X176256625Y-48093841D01*
X176261539Y-48092634D01*
X176266191Y-48090659D01*
X176266195Y-48090658D01*
X176487741Y-47996617D01*
X176487742Y-47996617D01*
X176492396Y-47994641D01*
X176646590Y-47897540D01*
X176700334Y-47863696D01*
X176700335Y-47863695D01*
X176704615Y-47861000D01*
X176892738Y-47695147D01*
X177051924Y-47501351D01*
X177178078Y-47284596D01*
X177267955Y-47050461D01*
X177269581Y-47042681D01*
X177318206Y-46809921D01*
X177319241Y-46804967D01*
X177330618Y-46554432D01*
X177301792Y-46305301D01*
X177262810Y-46167539D01*
X177234884Y-46068852D01*
X177234883Y-46068850D01*
X177233506Y-46063983D01*
X177231372Y-46059408D01*
X177231370Y-46059401D01*
X177129653Y-45841269D01*
X177129651Y-45841265D01*
X177127516Y-45836687D01*
X177084580Y-45773509D01*
X176989395Y-45633448D01*
X176989392Y-45633444D01*
X176986549Y-45629261D01*
X176885925Y-45522853D01*
X176817713Y-45450721D01*
X176814233Y-45447041D01*
X176810206Y-45443962D01*
X176619019Y-45297788D01*
X176619015Y-45297785D01*
X176614999Y-45294715D01*
X176393974Y-45176203D01*
X176389193Y-45174557D01*
X176389189Y-45174555D01*
X176161633Y-45096201D01*
X176156844Y-45094552D01*
X176053311Y-45076669D01*
X175913620Y-45052540D01*
X175913614Y-45052539D01*
X175909710Y-45051865D01*
X175905749Y-45051685D01*
X175905748Y-45051685D01*
X175881069Y-45050564D01*
X175881050Y-45050564D01*
X175879650Y-45050500D01*
X175704985Y-45050500D01*
X175702477Y-45050702D01*
X175702472Y-45050702D01*
X175523056Y-45065137D01*
X175523051Y-45065138D01*
X175518015Y-45065543D01*
X175513107Y-45066748D01*
X175513104Y-45066749D01*
X175281326Y-45123680D01*
X175274461Y-45125366D01*
X175269809Y-45127341D01*
X175269805Y-45127342D01*
X175149061Y-45178595D01*
X175043604Y-45223359D01*
X175039320Y-45226057D01*
X174842182Y-45350201D01*
X174831385Y-45357000D01*
X174643262Y-45522853D01*
X174484076Y-45716649D01*
X174357922Y-45933404D01*
X174356109Y-45938127D01*
X174356108Y-45938129D01*
X174309556Y-46059401D01*
X174268045Y-46167539D01*
X174267012Y-46172485D01*
X174267010Y-46172491D01*
X174240284Y-46300423D01*
X174216759Y-46413033D01*
X174216530Y-46418082D01*
X174216529Y-46418088D01*
X174214756Y-46457136D01*
X174205382Y-46663568D01*
X81301856Y-46663568D01*
X81289792Y-46559301D01*
X81260883Y-46457136D01*
X81222884Y-46322852D01*
X81222883Y-46322850D01*
X81221506Y-46317983D01*
X81219372Y-46313408D01*
X81219370Y-46313401D01*
X81117653Y-46095269D01*
X81117651Y-46095265D01*
X81115516Y-46090687D01*
X81094254Y-46059401D01*
X80977395Y-45887448D01*
X80977392Y-45887444D01*
X80974549Y-45883261D01*
X80873925Y-45776853D01*
X80805713Y-45704721D01*
X80802233Y-45701041D01*
X80708349Y-45629261D01*
X80607019Y-45551788D01*
X80607015Y-45551785D01*
X80602999Y-45548715D01*
X80381974Y-45430203D01*
X80377193Y-45428557D01*
X80377189Y-45428555D01*
X80149633Y-45350201D01*
X80144844Y-45348552D01*
X80041311Y-45330669D01*
X79901620Y-45306540D01*
X79901614Y-45306539D01*
X79897710Y-45305865D01*
X79893749Y-45305685D01*
X79893748Y-45305685D01*
X79869069Y-45304564D01*
X79869050Y-45304564D01*
X79867650Y-45304500D01*
X79692985Y-45304500D01*
X79690477Y-45304702D01*
X79690472Y-45304702D01*
X79511056Y-45319137D01*
X79511051Y-45319138D01*
X79506015Y-45319543D01*
X79501107Y-45320748D01*
X79501104Y-45320749D01*
X79353518Y-45357000D01*
X79262461Y-45379366D01*
X79257809Y-45381341D01*
X79257805Y-45381342D01*
X79094359Y-45450721D01*
X79031604Y-45477359D01*
X78819385Y-45611000D01*
X78631262Y-45776853D01*
X78472076Y-45970649D01*
X78345922Y-46187404D01*
X78256045Y-46421539D01*
X78255012Y-46426485D01*
X78255010Y-46426491D01*
X78226214Y-46564334D01*
X78204759Y-46667033D01*
X78193382Y-46917568D01*
X72110816Y-46917568D01*
X72119321Y-46668592D01*
X72126252Y-46465719D01*
X72126840Y-46457136D01*
X72177254Y-45966739D01*
X72181067Y-45929656D01*
X72182237Y-45921137D01*
X72188768Y-45883261D01*
X72272338Y-45398559D01*
X72274089Y-45390135D01*
X72277008Y-45378159D01*
X72399637Y-44874950D01*
X72401958Y-44866666D01*
X72562374Y-44361236D01*
X72565255Y-44353130D01*
X72759791Y-43859818D01*
X72763219Y-43851926D01*
X72990960Y-43373057D01*
X72994918Y-43365418D01*
X73254811Y-42903197D01*
X73259281Y-42895846D01*
X73550116Y-42452435D01*
X73555070Y-42445415D01*
X73875487Y-42022881D01*
X73880917Y-42016207D01*
X74229424Y-41616524D01*
X74235297Y-41610237D01*
X74610237Y-41235297D01*
X74616524Y-41229424D01*
X75016207Y-40880917D01*
X75022881Y-40875487D01*
X75445424Y-40555063D01*
X75452435Y-40550116D01*
X75895852Y-40259277D01*
X75903197Y-40254811D01*
X76365418Y-39994918D01*
X76373057Y-39990960D01*
X76380172Y-39987576D01*
X76851937Y-39763214D01*
X76859818Y-39759791D01*
X77353130Y-39565255D01*
X77361236Y-39562374D01*
X77866666Y-39401958D01*
X77874950Y-39399637D01*
X78167443Y-39328358D01*
X78390137Y-39274089D01*
X78398559Y-39272338D01*
X78410108Y-39270347D01*
X78921147Y-39182236D01*
X78929656Y-39181067D01*
X79076356Y-39165985D01*
X79457136Y-39126840D01*
X79465719Y-39126252D01*
X79955636Y-39109516D01*
X79979320Y-39110943D01*
X79984300Y-39111718D01*
X79993730Y-39113186D01*
X80002632Y-39112022D01*
X80002635Y-39112022D01*
X80025251Y-39109064D01*
X80041589Y-39108000D01*
X176550672Y-39108000D01*
X176570056Y-39109500D01*
G37*
G04 #@! TD.AperFunction*
M02*
